<mxfile host="app.diagrams.net" agent="Mozilla/5.0 (Windows NT 10.0; Win64; x64) AppleWebKit/537.36 (KHTML, like Gecko) Chrome/136.0.0.0 Safari/537.36" version="26.2.14">
  <diagram name="Page-1" id="bFQ4NRlK1mvrOPa81-6q">
    <mxGraphModel dx="640" dy="356" grid="1" gridSize="10" guides="1" tooltips="1" connect="1" arrows="1" fold="1" page="1" pageScale="1" pageWidth="1100" pageHeight="850" math="0" shadow="0">
      <root>
        <mxCell id="0" />
        <mxCell id="1" parent="0" />
        <mxCell id="NZK6xFN09U6bkFKJZl6c-65" value="" style="rounded=1;whiteSpace=wrap;html=1;arcSize=1;fillColor=none;dashed=1;strokeColor=#007FFF;" parent="1" vertex="1">
          <mxGeometry x="569" y="277.28" width="121" height="162.72" as="geometry" />
        </mxCell>
        <mxCell id="NZK6xFN09U6bkFKJZl6c-1" value="" style="rounded=1;whiteSpace=wrap;html=1;arcSize=2;strokeColor=#007FFF;" parent="1" vertex="1">
          <mxGeometry x="240" y="30" width="464" height="200" as="geometry" />
        </mxCell>
        <mxCell id="NZK6xFN09U6bkFKJZl6c-7" value="" style="rounded=1;whiteSpace=wrap;html=1;arcSize=3;strokeColor=#007FFF;fillColor=none;" parent="1" vertex="1">
          <mxGeometry x="240" y="270" width="464" height="180" as="geometry" />
        </mxCell>
        <mxCell id="NZK6xFN09U6bkFKJZl6c-23" value="" style="rounded=0;whiteSpace=wrap;html=1;fillColor=none;strokeColor=#007FFF;dashed=1;" parent="1" vertex="1">
          <mxGeometry x="265" y="322.57" width="115" height="83.43" as="geometry" />
        </mxCell>
        <mxCell id="NZK6xFN09U6bkFKJZl6c-3" value="" style="shape=image;verticalLabelPosition=bottom;verticalAlign=top;imageAspect=0;aspect=fixed;image=data:image/png,iVBORw0KGgoAAAANSUhEUgAAARwAAACxCAMAAAAh3/JWAAAA6lBMVEX///8AeNMAdtT6//8AbcorgsWu2fP//v/1//8AddMAbcgActEAeNHB5O0AcM8siMrx//9Dl9lSmcoAb8ahxeGXxN+GuNkAc8EAbc254fUAcM0AasoAdMchhM12tdaMvuQSeMFkoNXo+PpvqdKoz+jV7vV9vdoAacLD4fAAectUmNBcpdjg+P4AbcDd8Pix0eBOl9Ky2e2vzd1/tNsce76w2OZsq9EvjtWSweLT8PSj1exio8/B3e1xseKx2fKj0uRDkMdvw+uSyezO8P+v6fqs4PjS//9gsuA4mN0ch9pto8oAcLWfwttPlMAbA2E/AAAMiklEQVR4nO2dYWOiOBqAIaSVkDZgU1sq0FqEAsq4uu5MnVpnetPbu529u///dy4BVHQUtbVVaZ4PbdUIydPkTQIEJEkgEAgEAoFAIHhnfgt3nYM9phbUdp2F/aVGzJYhSZVd52MPqTA5cr0hmtYiEjkngA6UXedkD0nlyDLsuqJlzZPIYQAcXe06L3vHWA7TE/RF05plKkeWTT0WTStPXo6MbG/X+dkrZuTIADbVXedor8jLkWWi+2JAOKWG83JkREXTGuPWdHkO2DZ2nat9QAlvAxPMy5Fx43nXOds58cDR0K9qeFz+4LMJ9eqWErTITNq0Wu6uc7gz4hsHLq4006YVfshOS7k6g6TQTNK0rP6uM/p+VLLhS3zTgHilGo5ZjaUPMuZJCmn0uhperSUD2b1d5/r98PsNszjSzDctOPoYswmjV9VWR5p56vrXVS1LdcPf36kMb4Tfj8zlHXdB3SmcqKvx1fmtLlt/HPCoSP1eDdaLwYv0WO2FTavz+ablBBDzDR8drJznPq2/pNJM7BDHz29PicPzL/cUQjzeKjhQOa6n0/W7p2V6tOy0n+r3bm4b1CR4xvZBylHDpg1f2pxyZUfYOnM73nU1opDw7g7MbvQA5bB5JXxNc0q1EPPkj9bN8dcHy8TLtnZwcpQhfXEMzrxAjTrNWthJ4vExLEh7aHL65svFIGIGl9X+w2nuoFeZ5PSsDYUktQxgVLe0++HgMZ4vbonk+PamTYo1Iy2IqqPvobqwpOWRYzhrROJJlwMwgSdHrcG3rwXHjssjp02Wl2RaJF5dCNTsexZ13VUTzNLI8QoKMikQJoQ2uv1jf71TDWWRc1o48DuRETYhZFE3/CXqFlASOW5j6WCNR5cg6o6++xsfpimHHKWFTxYUALHwQvXbwbf4ZWfsyiHnYlKKk3T0wse6lHXS3uqoW0Ap5Fxp+erCpka0wadGrz7BWwY58WT0h9jU6P5LLYy3cxS4BHIUfRyM0eizvzr9+pRATnMy+oOn0lbPOR2+nNzoL5GzRQ5ejqpPRziakDOLqgMhZxlCTgFMzomQswQhpwAhpwAhpwAhpwAhpwAhpwAhpwAhpwAhpwAhpwAhpwAhpwAhpwAhpwAhpwAhpwAhpwAhpwAhpwAhpwAhpwAhpwAhpwAhpwAhpwAhpwAhpwAhpwAhpwD1aLqmXsiZQ+ndtPSoztenAnHZ2wIUt/NY+1JtBELOctzfhuePz1u6CFkqmRxJGlpECy6rox+fN18G8islkyN1UbLwoQ4h/dm+8PzOa67xL5sc4whl61rTBeK0oY8Gx19fdjOusslJlsHm16Wl661sp9v//ugamxWodHKkUFu0Zg/gOoFa9DQc9J6NdcNR+eRIDwXLyxEiLGI7rVEt7IzTL18sUUI5a9yYgEUjCKEzvPAK13yWUY50tvIGMQDwgI2wadqN6mhw5S+M2KWUY+gb3AmFd2qQRk73zgvd2Y6/lHKkuLG+nBlHztPo/NtXNyt3OeUs6bIK5SQ/EkWs42+Nvoeu9KdWkP5w5Wx+R5TZkiPW8VvRz6IkByxHunmVnbT8RbXvoOWsd+OPFXYKPiNPhyxH1V99x7cCkoccHTBx9Mpbmy0HWP1Dv3+pT19/S7yFakDwY9dlez2v67KWgujnXZdsG9Tewg5u+FKlDLeTHr6+y5rHfIp3XaotoWy9yzJvDz0UT3Eb2w3K8GLXJdomXz/l7SCY1qRF92laDQBayZ5J08vNHvHdc78BX9jSgIzsLZ813D25LguzRmGEzch8kR98VJZQnGM0uUc9TiOG0Wvb/DkQG4Sjk8OfMSxG6Y4rCp6EU9dr0c3uXm+ODnmmuZzJbUtxvq+JvQ2eewBgaR827NsL5Ej8xtu6tdbtpcGnsj5HpDK5Wd68HIZ/4VgrwzOfMZSYGlwoh0+RFL/vFHfvpl7yB1/1+aPiFtScBNa9N8yl7csclrGbmlLhXRZYKodhPLLufVH3BeAHeIIu77IK5DDch9anX54qB4KH98rhLoltUCyHp/G61sxzWBD9IE+SO9VWymHENX36BB/slHDGsBjPWuuAg+IPdN59AUC6Je+m8vTXfZ6gmnTv1od64rL6uEHa0+bg7XIiEAgEAoFAIBAIBAKBQPBBUIy1l9mthWpkbHyCwXBf81ixN6HpOPo2TyL97WQ8jb5tsN140HKiSB/29umEVhwAYG7zVMkZBgAhBGSAzct1r9oy+pQg/jUEnT06b3NBWFmOtrjBMyTbl4xPAQGydbZWQ+k4BCD4yWkEJkZWe1/O+BkUnERA2+BA8CrOEPEUVVWN2HOwTM7WKGncQMBshYaiuMl32tvLzauoEdQfmKiVvfS9Ka4knXpemH7get7vvJid5J2Ol9p0H2s1rzNbfCbnPPtTHdblyUU4bm+clm3Ly76jsj8lqYWBNk5mtNl3ktb46HkdSQ29yR4qktLxarXeZBHyG6M6APoxZT/S13cWGWOx8l9b1k36gW+Zl2qlIp1bVlNtUqvJC9m0TZZQ6z7nN5mTw4qNQJQ0rHhITZZYa7EdGZemlTl/sKyWFFqgPr2OSe1i0OBRuWpax74O2R5gN81e3ILEJFDrhm+kY5YriLqS1Eb1Zvr6LqhTzoks8/xf4/pYTh00eCnPCfrSJojLYYECQ2pDjGn+itAZOT7zzq9R8i8xgie2hrDNTPYxzvbXQvBRukWomqt9vgaSqlNF9X/YRNM0IiN6JfFFuBhRm2rYvH47Izm6yGR5P7WAnZ6HdP2EZ0cmI4nLIfNyTDnCWvfmkV9FgPUr1/DbEDm5sDsjh+2AezAaAFdPWdpWHekKL76d1qcAHKmqDcyZXu0MoVvWhqpIRvD2tOP/sAGwY0nqmagaK/FpO3iX7j6EvNZXJB2RmbNtQ4xb/H+5QA6RQZTU6gFEeuqkia3cFWyzclhMq0rSDUHdtG60sfnIlSX1iW2NbZ8ZgjNhZIABM8jlkPR0amzLmP01IPV03dH7nFAeonoixTOBk/tv9FldSF7m5GgTOWm8UHRQz5p+TMethDMnpw7uJfUIaVlQ8ym/8oDt75a/6iLqS88BqM8U1yOAa6+ibNFnRfLqcqQktTZ8tzF0bAOaZEu9TENDljmY1GJpcbNCevZd2f7nVUrEa8eYOTmYfdahIMrS/hlh1lG7EaDMfieJeHEgw5kLLyY1Z7xzybVlZpH9BNDph+8zDLqpozab0Liu0SfT8oUUaVmdWNSsUFpLOlSWYQZCznSjs3LaPPb65jQtQPcSb4nE4xb42Nyw5fqvMYfLgcfjtxrJbefCiO0Ka0dX29WwEOMSsJBnMSAb7ac3vavw6gTHeb3GOJMTmpmccUfD5VxO0PNFy8lxbaA9SB0zn/aJvf8cYDa00oHNWy/rrbq5bMVUNrPeary0UYnS7BmeTtlY2noHOx7rIzkYI4xknI5LjSNkTq4qua6j7G9W1WdrDm8Z/5rMwJf1Vm0ss/J3WKuYTavoSHNZ/PnCE/XgTHd1hsAlb+xVgEfZW2xEQLOWF9ciwHu8t8YBqHub0UXp7pUuJreTq9IuiJyO4VjVn5PDhih4LHEmqzk5St+UTT68e8J4kG00S1szSW2AYTp8ZMO+ycIiZQRlKxkSVgGgWRhvY+BMvhrXecB64wvnrqxs9Jqgo+QCtibrdKdvPpoybsWSEur4FzlXrAf+keT32x/5eMrnVvy34vZ0AkgyJOhZvHXxN71smYyrob90NuFNyhhHCMD2qcLXl+h1Nh9LkvBxjsPtqdcwmVHUbhNXrgwu33yg0wX13CVrvIsy2OBFRv++S3nkgzfW3KjjUPLXybwcqWnK8P6idncPzaN8s8Ig4odzIhvy6WRajDYE9epd7dqB5tN4wCPLZBxTnhtYxppzfx9BAGAr3RqT85PQbr8dEZmw/5hqY9qteTU2KHvzmelzINPcf5wNYlnD1xEAOCW52C+kydEZ8+mZjuVMxjRKH7JgRTAmTn6uc8YXFiVg87I2nmAOWVo2S8LmUdZS2PgTTPfvtinm4U9GJBpk36ki7aFlsZwAZPILCdmUjmBimog4bz4K/DvQhvmWexFoR5JOJwRJtfLbNqVOTekE2n+4nP8G8O/JV8JhpGm0681U8v9p2QacYf4DlpZqtOWN65jSoEG+Avh9h31Oq7VJwZmcY8m7Z1uqZt/yrx22P2ewRwcLCw8Gqxtk1FiRVnFnakQih+EqM2n26TBzZfyzsuET7ytLkq+9kbGc+Vy8G/t8JXlejmCOncvZ65oDA1FzltHxF99qUCAoZp+bvEAgEBTxf04fGp+Yhi8LAAAAAElFTkSuQmCC;clipPath=inset(3.67% 15.49% 0% 14.44%);" parent="1" vertex="1">
          <mxGeometry x="250" y="10" width="48" height="41.13" as="geometry" />
        </mxCell>
        <mxCell id="NZK6xFN09U6bkFKJZl6c-4" value="Git Repo" style="shape=image;verticalLabelPosition=bottom;verticalAlign=top;imageAspect=0;aspect=fixed;image=data:image/png,iVBORw0KGgoAAAANSUhEUgAAAOEAAADhCAMAAAAJbSJIAAAAilBMVEX////wUDPwSSnvRiTwTS/4sqj5vLLvQhvyalT++Pfyb1r4uK7wSyn97Or+8vDwTC76y8T+9vXxVDf71c/yZ1DybFb2nY/82tTzc1/70Mn0hHP1jHz6zMX5w7vxWT7zemf95uLvPhf0gm/xXkT84d33pJf2mov3q5/1k4TvOQrzd2XxWD32pJr0iHiDZPiRAAAKe0lEQVR4nO1da3fqKhCVgNqoTeqrx+rV+urjtrf//+9dn1XiJMMAkwTX2R+7VpHtDMwGNtholIZ4+NwZCCE2P61leZ9aHuLmKIqU2COVg9m26v54x3YsU/ELFYm3qnvkGfNrfge0X+OqO+UT3Z4SWUSdx6q75Q9zeUtwR/GhX3XHfGHeBvgdKCZVd80PuhImuKd4F4naAsbgZSzeQRTn7XyC+ygGP6N2c8bgL8VR4InaTYsieEzUoCkWp+g5igEnagtJ0fNYDHa66fZMCAacqLCSASmOg4xinpKBEzVAAZevZGCKwSVqCy0TGYqhqZsngzKRjWJQRcOsTGQohqRucCUDUgynaJgoGTiKgSQqpUxkKIahbl4sI3igOA4hUfszUiXMUgwiilMXimGoGzeKISRqwylRgygasVsUgygafxO1mGIYifrzd0Ytpli7ujgE/uYUxbqpm7l8vv1jfEfqZreagCg6JmqNisZh677tnWJ9lsSnPRkJHc3fRdH43ZMBx6LTdFOPJfHVnoz/RK1D0dD2ZMDpximK1SdqZus+8p6oVaubmz0ZhqJRaaICW/fgWAxW3YAmBDBR3YpGZVHM2Ta8H3WTa0JY3Ym6Kdi6B6N4SFSVRpHFln8lRaPwdAlWN6so3XzNZpNNenaamlMsX90gp0vgjNp8OU0Z/eHbgrgzXnrRgOyUGsBEvULcGtEGZsmJamBCgIqGhuSZlqqlqhuj0yUsio3GyyprHK4LRUMTAjgWNSw3RIolJWqRnVIDHsU/A1qilqNuCCYEnOJ8RWFYjrrB7JQaQHWj4T2iUeRXN0QTAhrFRFB9N8wUySYEtGg8E/Uqs7qh+2SURCaH5YL6nXGqG1M75XV/frBGp9RGGRPV3E55gZxjrdIsfgeKXBv+Vj6ZAXpJbbkiN8qkbujf9Q4Kn90Ti2ZZ1A3VTnlE2kFnvv7IomEGdUO3Ux4ZvqItxx2SOD1T9K1ubOyUB4ZfTAx9qxs7O+We4RidE/obSyejz6Jha6fczTQbfKax3YTzqG7s7ZRC9P5grQ+rN2t2afJfh2xizT/bN+9pw39O3fnTkHaw9iu3M7ik6KETmKhJOg454kHdkBa8YB9m6Ge4UXRMVDslo0GiyjR5daHoVjQslYzeBfxpgWTiFEWHomGrZHTgu4o7XVNNolormWwX0IrR6H9Vkaj2SiaLdgv9sMSJot2M6lomNIrv6Mf13RLVoi46KZnbLmwge6aG2Gm6oasbNyVzizRao6XfqWhQ1Y3PFD2hrc83wMhxVDekouGsZABkNHgTmmCdKFKWxB6UzC0yDFur7u0Hl6VufCiZW2QZygii6DTdmC6J/SiZG9wwFFAUHdWN0XTjS8lkcctQSIBi/4vbrGmzdW8EgKHqQYnKrG4YysQJAMOcKLImqtXWvRlAhvBYZFQ3xiYEC8AMBZiobkWjIIp8KSpyGSqwaDCpGw4lc0EOQyH+BSjyqBuuMnFCLkMBRnGfqCqSUlq4NXOKhr8FL4x8hnDRmEg1+nlrNp/Xi97Nu5IIQHXDpGQuyGeYM6POf0vbttmhWeCgooHaKZ1RxBCsixpexo5mTTYlc0EhQ7Bo6CH9oI3HTBRZy8QJxQwVGsXGsG1v1mRUMhcUM4THog57s+acfQzugTEEi0YmilSz5mlG3fKPwT1QhqC60UE1a64P/xWPrZwCZKAMc9SNhhlN6rQ/9v/ULGMQCiOGeNFY0qKhBstdCEflhNCIIahuXIIoP3ej1+vedtGHGTAU6QZhuKXNGWrx6GIUoMGIoUTPcL5oKSfnjU4pE6kwZCjQA+M3ojH8vTHw0XsTGI1DfDvwiSa/VKfhp/sGMGGYrjGCjWRF+9hBvRgaGDfIdtSaMcRPUhOactsx3HjpvgGMGH4aMCR9qho1fkoq+BWNw3SaN2v7hxHDCXp69Ic2l+4+dUnNa1sYVYvvJcbwgxiRLVnpWcNM0zxhDNekUXVwYW/9EEBhxDCaIgSJl4iO39hbCZs0wlS1KUTU0NZ6pyVww+UcxBxmDKPiX0mKSbNGOjh9X07nIMYwYyiiwsOxD0pP1eDXpvT4UAJFU4ZFJXFLyVGlrqatfgkUDRnCT4adko2yH6F6mtEs4adoylD08syafcrZsFIZJ90j+1g0Zphn1iQdfqvBTWVlj6I5Q7H6BMTbnxGFYPQCfEWUFixAYCii73mGY/LZI41B8KoOc6JSGAolJ93LwUq8fN6QZtHBPxDBHUXWKJIY7n8GUkw/noaP22H3bdImHTyoXg7B3XfFORaJDHfoSdneQUbEje6i22Sc6obO0A5qAEwyV4k6ZqNYEkMlkAUYX9Eoh2FGyUBgE3ClMLxRMmCiMo3FMhgCSgYCU6KWwBBUMhB41A0/w8IyoYMlUdkZ5ioZkCJDFLkZqp7RGDyDQd0wMySk6BGJ99LPy1AJw0nmAu/qhpUhqmTAKPpNVNnTXxvqrjw2bqBkIPhUN2nvLXMRIn4X3k69VGpF0GfRiMZAF4a+vkFDJQNS9NQHuQZvsvRfvYxF1SNPMhf4KRoy93Te5Z3vM8hlQoePRI3yX1Lqux+ZkJQMSNE5imqzLGie/sZdpvXUegye4Tyjtgu74FgWHVP0CEd1g7329eBSM5SwLBM63NRNhGTRk0MQrZQMBBd1o76RxvsP1k4JpzKhw2FJXHBWdgLxFdprgh7G4Bn2RUOiA+UfSxuBg5IBKVpGUS2WWNOJHcOCrXs7WKobtjf3VOQxRY+w2/A3sHFZvZuIbN3bwUrdpJgDyI6hZkLwBxt1Y/B+aTwhM7Rc8OKwUDcGxu3kmzoOPSkZCPSiob7x19qoc6nnMpHpDTlR8XpINN/7VDIQyOoGd25/0lr0qmQgUBNVLZAGE9pDyc4LXgOKxChKJKfmpLWFdyUDgahu0nFxcyRFw6BkIBDVTfFlLdIVZBYlA4GmbgrF95Ly8xZMSgYCTd1E41xdk1D2MNiUjAeKeaZYNzslL2hFQ05B7UZ6uoxVyYC9I0VRQg9Dvmxc7ZS8oKmbVH4u9f9fTilvT7IrGQhEdSMXs+Hver8/nA1orvsSCj1AkaZuVLTa/Hx0u93Wfz+LNu1fy1AyEMh7N4dXkfYPIxGvnFeRokeUcxWlNCUDgdGseSHoa+veDvz3NEpVMhC4b9uUrGQg8Dr8S1cyEDgTtQIlA4HvKkqFZUIHV6JWpGQg8FxFIdopecFxFaU2KXqEf7OmhZ2SF77VTcVKBoLfolG5koHgU92otFZj8Ax/RaMWSgaCL7NmZQteHH6KRs3KhA4fiVrpgheHB7Omu52SF64zai3LhA43dcNoQvAHF3VTQyUDwV7dMJsQ/MF2SVzrMqHDrmjUVslAsFkS11jJQKCrm5JMCP5A3fCvuZKBQLQzlGdC8If+xNxIEoCSAWF8qSkIJQMhXptFMagyoSM2umAYjJIBYZCoASkZCPEao1ijrXs7YIkamJIBUUgxOCUDoShRA1QyEPITNUglAyKnLoaqZCCARaMGJgR/gNRNGq6SgRCvs79bFw3uKIIHfAyu3z5M5dri19BrjuX74mjZU6kUX3eVob94nL93BkKMpk30updH/A8xb7ymvsY7fwAAAABJRU5ErkJggg==" parent="1" vertex="1">
          <mxGeometry x="350" y="164" width="42" height="42" as="geometry" />
        </mxCell>
        <mxCell id="NZK6xFN09U6bkFKJZl6c-8" value="" style="shape=image;verticalLabelPosition=bottom;verticalAlign=top;imageAspect=0;aspect=fixed;image=data:image/png,iVBORw0KGgoAAAANSUhEUgAAAOEAAADhCAMAAAAJbSJIAAAAaVBMVEX///8hs+YAr+UAreTu+f2k3PP6/f5FvurO7fkAsOX2/P7A5/fp9/xixuxRwevx+v2Az+/e8/ub2fIzuei85veq3/Rtyu2U1/IAquPK6/jW8PqG0vA2uuhLv+pZw+vk9fx3ze604vZsxuwic0HeAAAM3UlEQVR4nO1dbdOiOgx9WhAN+IaIrqAo/v8feQHfoE1LChS9M5yZ/bA7LO2Rpk2T0/Tvb8KECRMmTJgwYcKECRMmTJgwYcKECT8NN8jjfEF4MNzn+T603p+hEWRQgaX6vvvx+fFgNNuM1LVBsFwV3B6AaKd58HR+PcfgvB+tf72RRO9+l11fKR+M688xmI3Yx14IWaPjjB8UD+bN55iTj9rPzvDPQscZxwdqwkRwysz0fRxFggXQ6WYtPQhrb+zedgFCEFLkuRP2YDB6d82x53LH2RlZCrYYQ/Ws9DvAOs4YYmAR9lz0+8PUyzCGXF7rPOxbM5Z8oc9m8C5Yv5GlznVQhr8/m3rzieETgzNcLvv0m47vMPRn538Fzju3b//b8RWGp8jJjnF8zBxm333/BsOARadqlfEWcx73ZdCGLzC8suhtgv4cbM9VX2C4gtPfch8EQbmWumxu2WkYn+GV34uByoFzWBffcuZY9m3HZ5g7cenGR1nG4F6OWcu+7fgMU6fYm514sX1JoXBrvTXrTWIxO6bHWBFhssVwEe92Meq0HvjywdA/QFT8/Q79FkV/x3gZG+NOFGMmbYXhZldaWfGHHeVt2IMhg38ORKfi7xn0cm5qwTEGc8SmLTD04k9kCyKpzdRJqu30/Vya4Z977jVK980gExyksTo8w6QZ7QBxSc+dXTmXzssIWOHRLGDdg2Ai7ukAdsJQHZqhm4Kw4QTBMVuW0Z1weywWCrYuB22PiJ13lnvEo+YLB2Y4Y8iGWrCzm1P7rCc4+90ZztBtOVzqU9ygDE9SYLJ6mRB/daNPACsEOHUnuEG370WLLP38qgMyDA94e8wRJtRF8f5qhdjEDPpElRM0xlQRiN7jZDCG3hEboBWk/UO4dqL78XiLnKjHF/z72ykZFo3Ok2EZBmc8UlW9bSu9bX9g//6xVd7P6z5oGBZD53AdjmGyVvMrkFnaPqBxwhoLdvSHYehulQP0AVsbpJW+2aeT05uhF6MzaB220hu3tobLRFrSM16atAzQ6m2qdF1fxK1Nl04O/s9khpnT/juCLq3cB9d2gso+kRlS4FgL/d/bf94xGMLcFsG/BWGYjsHQYiAm7dqrIRnymz2CxYLR8SsOyNA52I0WSru1sRny1HYONbh0oTgUQzRwMjQ8dFM6CkNgux67WwNszIfqEAzBSUfInT0R3g1nnAEYwmpc/aKhOfZmyC+jK238WWTAsSfD0QxQ6OKW4CQPwRD4baQUvYSQ7AD0YeiMbIBNBBcax+4MYf5lYa2/I5ljV4YQ7b4vjl5uCatjN4YAXzPAJsKstbOdGPLsd0RurebYgSEfwwWlo211RPJBeoaFAY6kw/T8axJuCI0tbzqHHEmXKNSXj8fZ7UronL9ckPqmgTfLgDucXyh6sWSt+SrIkoYqaCs4c4oB5ivmFH07p5QfQ4EY+PO7gLMlzNrKXAOalk0V35yTjpbk7NO3W0eXztvW+wu4MEH4L4rVEU3LLtBHaS7oqZH5hnm3z5gKHwTWhMzVFUs5wBrtNJIHAXYgrIDLg9AIRF38glhqH+BOaD6R91WAm1WI/BQEwZC3k3/ELhr/JTYRAEf0LBL2gjkqhWZB8+08IhlghBm7Y+69YidfSo5sRjDHeigHNGnZRc1sCwMkdGsxV8xPF+PZRjmXw4VgjsttVCmngEepbmRvqufKwcG2hNniql50jWWl6px9YY4HQmeWQbrKslve9ug1v2Xz+WpH2ANqMvtFr44kXh/sdU4YoOeYbEM0b6FPpnONPJMKHK3LqQUs2px7U61XC0OiOYoIkwrmruRVXAFlZIav1I7S52ekmGMdfjFPVKefM8P1eUMIJBhnvjUzzeellfiCDP8dt4KLUV/yOSEYxI0PEbe/s3wto5tj/VCbyVlRgnKheqVxQE6x4ksvnhPN0Wv6ytSBer3RciSVeNYMqNeGvZrJKloEvuBm0ygSI3lM6fpq0Tqbfji2m6MvqY2AoNzaUwywAjdd7ytsyWF3UUUrwUOC461i5SQjJ7i4+RitcKTnTrjWHH35XDpT7hqfWN7IWRHoriAKVI481ozaHD2UoNYWN8geUIVeYVXKUvvuL3YWooRsgx+Kiq+4p/+0EPXUlF71olKxMZSgRgqL2mJC17QAGyDzfSJPaMWAWcvnL7SqVGzpTzn5Rx0q8RabDFUhYiHaIIfm7yXZokdPnw8Y99+0aXbraOy1hYUe5oErTF8CRY+sDoRo0Mx30qKAriGqE1wJBMuIhnsRKNYH6oy6QhnvbFqxp37GmpMvLPSvqKYrfMXadOMSfUXn3OvUgQK6KEkdn+Id4hB9jUdf+RWPtH2EwZbGCMSVg7/mt0WzW+tP0M1vfsX3CRFc6C/xo+RQOuJEWYnfdUyCxsPzelTRberdX19XjoIjBFdWM8NYRF3qwstLbDDkTcM5NRk+l225cpT0cma9WparSop9OvHayTQYgvCaxkG/F8MFa8MINYiS9nMl+DdselfN8Uj/hmzwRULAkrD2O6/x2PyGt8aLmqdTXgw3yBFOARAdLWowPZL/Bq+ZrlnMqxEnT4UV8bVctA6Q8umzNVM8zUkyprepCC4m/5ypE5a9T629mOTSWBLahDohQr27n9YFn+Z9jEDILtdy4D5lQSxTVcOb4zIlejSN2LPglz6/ojAbN1IgAXGrptxvd4RHlsvCuTEPCHsLftx4G6GgmyCXEtUDSvB5z819HSabYCFRKewP4ZyJIgMxGk+ZbJ4chzLHcEVX88olEfR7fPnQ8t/flh7DcIbQLraeWK13d400qIvT4EKbgD5k+pujbxLBOOOaInWsTVV11kQlX6yOfcwxoOV9qpaY0tdQxUs1ZXVR4ZECvPtmQzu+BDiZZoHCY976lJ9WB9gEGKsUXm3Qf0anJeWN5S1wG6xBr0xovso0xV0hJNsCQdSH2GK71sHAHLlcZaEVLbN8radsS3D2xfwhrbS1XpbboGiu+qKmD6nLrjDdKMpDS1ioZikRA6q+mvzksk1KivWv6NB1BXtUqSf3xDT+jctbBQAzEUDUpmbHKBpIyrQZq00Ig7QwQDOfqaD4UPMZ/TB/xNXRtBpIa7yJpnZtwsuPJXbmK3TSbo6RoYvaVuWD24/qNZGzFnOMDBNt+m/YI3PeHS0nrCPDXf9MdzwECOc9vLAYkvGp/YddLvJZfgoJVuRqV0dTO8SK3r8IUjT7+4w9Ch2u9LN4uD1DWXqUrWPCNmihdkPMRVHKN1HyPuHqnakGftB0ffbRdHFSkHCvcuTMK+3hujaAtN13cLeNTDyINfI+uDX2D86aMMl6R1zodjaOE6PhZ4cQxJOTN6BqXYxXkAwcP9Jp5kM8IGtogXImHlMZIfXV8BaIyXk5597t1gghMA3RrL3xBBca4EcFUNeXVlogb5YDg3k30UJd1wacsEfyVQUzUKdRJbTmFJGMf6zZOl91VWUsLk/1HFBa9WZqsSvmUilz5uBQdpzuDR5urrPuIavxTttLFEXrlDDJ6bVo1DtKnhwpFvHnxtv7/XbsIP1vYLO8LgmthXoVA7Ja6U7JEme1EeG25W06nOWmrEyjob3qUJfz+CTvYhQEhIhYx5oKtpRBRmhXLnRnSPTyrWJDTJx2rm1Cc+TsIaaGM3vUp/nKbvuJgBbn68nwCxGTJ2gGOATDTlGv3mhdAQdlaB657A2yAQ7EkBGPeg+FgCQdGpahUQahJ0K65ntQhmMVHTI0wEEZEjN5/aArBm+fIcPuKBkWlILXVhmiCpwBsf/XrVfD1hG2SHHZsU/DMmTMnqfannIbhaG1ovPkw8+2GYqa8eGwJ/Spd119ylpkzRLxm36bbfe+G+FEOHwkqOKHw0j3W7SE7UrYuqOkheFwd5QEbVd42LqjRH/4cch7ZrydvlaErTtKdKUyhr4rSMhBCm+ztVyclC6bjfueNAITkiauCzaKwxCW7uxSn9BxrJVO3o1875p8b94D9u4oGf/uvBCr/mHzxt9E7JX9+w/lCi7dKrVQIQj6xrjDUiwCYrtWXF6viDjSPaTh/WOOI4TcrgenrHQI4EgDtIKVu2RPmfO4wJaTSjb1hRtvs/UqVQirLd0HvMl3aboLRqoPXdBQt/SN2+PHxcTwjYnhz2Ji+MbE8GcxMXxjYviz8HrGS/8HDNEMMXI8UKFN/J2rZZTAI+NUfWk0mm/dHXvs25yRMxfYT9FNkT42sI5j+/IAe/C3dLMKYIFjdN8qz7omNaK/CF/KOigO/cpnq/jvz6QVQiE/xlVB+Jlgss53FHodkDSC1ZrZY9eMotkK1lvAcvWOjkGkC47VjqIB6RKk30GQweOWgFQfHHN30ePBaPb9awAN4QZ5nFNmjnCf5/tvXlM5YcKECRMmTJgwYcKECRMmTJgwYcIEEv4DPSG7OnEcu/sAAAAASUVORK5CYII=" parent="1" vertex="1">
          <mxGeometry x="250" y="243.75" width="45" height="45" as="geometry" />
        </mxCell>
        <mxCell id="NZK6xFN09U6bkFKJZl6c-70" style="edgeStyle=orthogonalEdgeStyle;rounded=0;orthogonalLoop=1;jettySize=auto;html=1;entryX=0;entryY=0.5;entryDx=0;entryDy=0;strokeColor=#007FFF;" parent="1" source="NZK6xFN09U6bkFKJZl6c-10" target="NZK6xFN09U6bkFKJZl6c-65" edge="1">
          <mxGeometry relative="1" as="geometry" />
        </mxCell>
        <mxCell id="NZK6xFN09U6bkFKJZl6c-10" value="&lt;font style=&quot;font-size: 10px;&quot;&gt;Snowflake&amp;nbsp;&lt;/font&gt;&lt;div&gt;&lt;font style=&quot;font-size: 10px;&quot;&gt;Stage&lt;/font&gt;&lt;/div&gt;" style="sketch=0;html=1;aspect=fixed;strokeColor=none;shadow=0;fillColor=#3B8DF1;verticalAlign=top;labelPosition=center;verticalLabelPosition=bottom;shape=mxgraph.gcp2.files" parent="1" vertex="1">
          <mxGeometry x="444.16" y="334.39" width="50" height="48.5" as="geometry" />
        </mxCell>
        <mxCell id="FJDn8GvkSPcNdJjm8Mdf-2" style="edgeStyle=orthogonalEdgeStyle;rounded=0;orthogonalLoop=1;jettySize=auto;html=1;entryX=0;entryY=0.5;entryDx=0;entryDy=0;strokeColor=#007FFF;" edge="1" parent="1" source="NZK6xFN09U6bkFKJZl6c-14" target="NZK6xFN09U6bkFKJZl6c-23">
          <mxGeometry relative="1" as="geometry" />
        </mxCell>
        <mxCell id="NZK6xFN09U6bkFKJZl6c-14" value="" style="rounded=1;whiteSpace=wrap;html=1;arcSize=4;strokeColor=#007FFF;" parent="1" vertex="1">
          <mxGeometry x="80" y="272" width="110" height="184" as="geometry" />
        </mxCell>
        <mxCell id="NZK6xFN09U6bkFKJZl6c-15" value="Azure" style="verticalLabelPosition=bottom;html=1;verticalAlign=top;align=center;strokeColor=none;fillColor=#00BEF2;shape=mxgraph.azure.cloud;" parent="1" vertex="1">
          <mxGeometry x="67" y="254.25" width="44" height="32.5" as="geometry" />
        </mxCell>
        <mxCell id="NZK6xFN09U6bkFKJZl6c-25" value="" style="image;sketch=0;aspect=fixed;html=1;points=[];align=center;fontSize=12;image=img/lib/mscae/App_Configuration.svg;" parent="1" vertex="1">
          <mxGeometry x="270" y="312" width="31.63" height="31" as="geometry" />
        </mxCell>
        <mxCell id="NZK6xFN09U6bkFKJZl6c-29" value="&lt;span style=&quot;font-size: 10px;&quot;&gt;Pre-Config&lt;/span&gt;" style="text;html=1;align=center;verticalAlign=middle;whiteSpace=wrap;rounded=0;fontColor=#007FFF;" parent="1" vertex="1">
          <mxGeometry x="252.5" y="402" width="140" height="30" as="geometry" />
        </mxCell>
        <mxCell id="NZK6xFN09U6bkFKJZl6c-30" value="&lt;font style=&quot;font-size: 10px;&quot;&gt;Stage&amp;nbsp;&lt;/font&gt;&lt;div&gt;&lt;font style=&quot;font-size: 10px;&quot;&gt;Integration&lt;/font&gt;&lt;/div&gt;" style="aspect=fixed;sketch=0;html=1;dashed=0;whitespace=wrap;verticalLabelPosition=bottom;verticalAlign=top;fillColor=#2875E2;strokeColor=#ffffff;points=[[0.005,0.63,0],[0.1,0.2,0],[0.9,0.2,0],[0.5,0,0],[0.995,0.63,0],[0.72,0.99,0],[0.5,1,0],[0.28,0.99,0]];shape=mxgraph.kubernetes.icon2;prIcon=api" parent="1" vertex="1">
          <mxGeometry x="281.02" y="346.57" width="29.17" height="28" as="geometry" />
        </mxCell>
        <mxCell id="NZK6xFN09U6bkFKJZl6c-36" value="" style="rounded=1;whiteSpace=wrap;html=1;arcSize=3;dashed=1;strokeColor=#007FFF;" parent="1" vertex="1">
          <mxGeometry x="310.61" y="50" width="319.39" height="80" as="geometry" />
        </mxCell>
        <mxCell id="NZK6xFN09U6bkFKJZl6c-37" value="" style="shape=image;verticalLabelPosition=bottom;verticalAlign=top;imageAspect=0;aspect=fixed;image=data:image/png,iVBORw0KGgoAAAANSUhEUgAAAOEAAADhCAMAAAAJbSJIAAAAyVBMVEX///8pY+EqZOEtZuEoYuCUsvIsZeErZOEQR70qY+GRsPIWS79PgvAPRr0TSb7W4Phzm/Lo7vwHVt6HqfG1w+gAOrrS2/EAL7cANLhOfOhfjfKZtvNIfO0iX+C4y/aLrPEAQbxolPHQ2vcAUt4zVsEiWtTH1vl7nu03a+JTf+YATd7x9PulvPYpT7/h6Po/cOMTWt8bUsuIoutIdeOtvvGEmNcAR8nBy+p5jtQAJ7eyvuVog9WoteJXcsqVptw9X8SDmd2zx/ZZdMpIFVvjAAAKuUlEQVR4nO3cC3+ayBoHYMARwVTiZXO10xitVWOimHQ327M9e07P9/9QZ2AAuQ7vwAxM9se/rSIK8mTeGS6malqXLl26dOnSpUuXLl26dOnSpUvt7A+XYnJoW5Kbb5ujOxUV9Lpv25PO9+MUmz1xwWjZNimRw9Y1BPK8mK5KxO8rkc0XEpE6hTqciveR4Ne2YWGe5QB7Pb1tWZDLlSRgb6rITmMroQ8Gwsu2bX5esSygIsKlrE6ojNCUVqOKCCXWqBpCmTWqhvAo+lhNNeGDKxOogPBSao2qIJS3r1dEKHUcVUEodxxVQfgmdRxVQDiUO462LzysYpsCGnGyLypbrF3hUTeDbTSDO//e32jTDDeezjNjT5qZxcxgAfqaaB3kT6vCoWv6oZsfTIWTeRNm8oUhPG+x6GGbwks3s+ES0qbwDXFu7EBHCOnGhxH23fLNO8fG2Dze7Ujeehhz/GzaEx5W8K0cYPw2fpiHGW52CEObsj3hEVxtA7wde7B+FPJgcwQaWxPCaxR5vn468+fZEassPICB7n2OjzbkGAGasS3hHejnb5oGfs33+cbhtnzIaUnYnwKB234x0DOW/6TaEZLjURjwyAYS4q6M2I7wTocBe2VArxVLCrUV4Rw4zOBhKbDff96yh5s2hNBxFG8AwH5/yK7TNoSlXYcG7UDA/nzMXF8Lwu/AcRSDfB6ReXjUvHACPB7Fj7AmJMJXViM2L9wBzwswFFjSiI0LvwOHGXTPIdwwGrFp4QR6PIpnYCAhMuqiaWHZ/jmMsYU3oXdkU7zahoXQcZSrSEkYZdqsEFyjJh7zAPsPooTXv9XKO3Qc5eyGJMVH8hzC/e+L26ta+QN2wO1nyAVk7C/gwvfR4qJm4D5yVsEnLD5bAQvfb52aPgcO5BxKmYMpVDhZ1AVerNUW/lm7RGmNDqJ3HtAH5ztxQrpC8mfAIawNdIwBjTk4x/cFE8ENneDvh2gQLp16D6DwcFNXeIq/ayaZJxHvWKoXrQwovL6tK2QCs+HdHxavviGhg/iAAzzm6ogPuG0hu0ZzAr2EEWTcutAo3ICC8A0187fiGmlEyF2jJHjDQ3SLV9SIkLtGSdAdxzn+Y3GRNiOsABwMXPj+Yr612xWiSkL4WDNnjDONCKvUqBf4LrHHaMImhNV8pBGPwGve96wmbEC4riocAK8JvzIG0iaEJ06WMTCCezLYQD6aGeLzAuFto0KyxYZBt9sI/pCp4C54QF/jzQ2M9JFh4Fk5caunF0u+jWzh2g7eMsgguA1mRfON1KNgEpUSjyhabJBen/9QsvCUekvusD9DnA9NVLYGocLshY6aPhKXMdzMN1gvXQFc6HgAckNCpynJ8WcFzwVP0FeQrOsLDXwsqNR5f4cBy3MIc3IR/MuZ7d3UrlE/CO9yPs+fk4PR0grlEuYBSyKgRgOje7fpJ3+vbXaPIQ0oWSiiRkMj7u3Gs2Hf/83E2Xi3hfqkCk+mOKGPxKi33W57BpkoH2CaEAr10eheOJeRJrQ4axSBho0KkSbkHEfx3WdJxJUsId9m4Lv7T5KIK9j/x+cW8tWoB/wkiTiFfTHGWZi758/kZKfeJ/04ByiHqB9BwOCYhh6bRcdn0TGNf0eP1eizjm0b4R/D9v6R2+AhnWHY9IF3FwI9ovfYf70RLhWuw7bDn1LwpL8+O/bSnMW8Q3eo0GEeYjuJWaRG7SDRRF4M/9kzkBJLYyTWynwH2159A7chPKRGORIHAokcQVsYkPP8cFAZKJw4/S5B6KxrAAUTwU3II+Sq0SxQLPEJ/OU0PMLEW+jBPzjQJxYvwkx6sdUzFMghdNZ6nKUn7/WYWi8Afvp0ROFiWaquR6tOyrz5uq7Hf6irBzAQLiTHo/4JgLcpUWz65t4UvaGPioCfUbicnl7w/MDOeyKxEHqaw4EcbYh0aAqBGLwKVlyT66vaoEJSo7WB8J8RI2jF+S1mQKFzMVAD6Nq837UHFYI3QWqJYt4GBAvhNSoV6G4rfFkiFTrR4XVmgp5bGHWBAkqUuwcGwpvo4u9F9Pd8wTs4d4Jun0yga1b7ve79y6j0rNda2+UbwATWL9EqPTDI5Gsp8aIusHYLGtNjjV/Mn1hWiRC4gfKA6GlY3ecRr9itCBxH5QHdbd3/WXGwWERgjUrrg3jKcZhdSHQYRFgTSGvBWj0wRrwq6ovAcVQWED31Rfg84m1RK4L29bJK1N2K+57Z60U+ETTMSALiab0hNE28qiyUU6LG9E3wf047/MjrhoCNlAPEXCfysFzn7Bet8jaUU6LTu4lwoKYtc0bU0r2hlBbEU/i1NK683xSVKdIR+UsnghtvThnwfHOeRAGdrMRAKHxaj02QBpT2Vd3vN5lWvLAR8nX0LgqdLAb6r9Hjr0XJB+n7aBo/SWpASrzNEE82KkxxHyxepjABdbqT0QNjxOxOo5jIbsFKweBPXCrnX9m+eCpoEQnAleQGpMTMJ/tXf+UShZYoXaP8BvTzM1WoV39qy2kjQCn7wFzibbIFyazlCgys6tPtP94bAhJirC8u/u3PShOFA23k3P7WmFD7+zYF1FKFKrpEdf1kNSqMiIv/RLPiRNEtqK8vyH64UWFAXHyNzToXqmCg14CW03AbatrvhLh4SfxiVUgUXKI6cvwLmlbDQkIcvaR+c4wWqlggacCRRdO0kBAzuyevFcWWqL62ojQu1HL2v8uVUKBun6w2hXlZvok8m4g1oDrCx8+iWlBHUQ9USPjtcZxHrAK0145lKSckwHEOsQIw2QOVEfpAQqzfB1M9UBVhAEy3In8LZnqgIsIImCRWAOY1oALCGDBeqNwl6h+FqihMAM9EfuA6r0AVEKaAYaHylijpgUW+loWX9+N0PCI3sLgB2xZqz+k29IicJVowhCoizCFuvuRcgWM2IIvXvjBLnORcgWM2YAlQknD/60s8vxhXLJPER+/smJxMiWpAacLJbBjPjPXBcoJIfxTLKZDI7oENCh+YH9zFiGFbwwo1cxqhqjAiPp6LefkEaECITw1hQHyMX6EqK1RID1RISInJ4aiECGxAZYQeMT3esvoipAHlXk3kFmrP2R3K8qnoM1TH2/zRaGSNfAe99WeEslEwd6SOMC8FhboeRbFGieQ8tEYqC7WlmyXi04gvSgu1/7rZHhi2Vdhg6ft0kyot/Hl7SgGdqPNFY8ko+hN/6HdKv5OqLPx5Y1lxYvxCxSh3Mm8wVVjoARNEB3AUmk0zwiq/0kmBluXQX2vKudb7wYUhkFTbab1enwqL8aMKz0BvV14Rp7IwDqwZNYUCgWoKf/4QB1RTePi6+IcLtf2FOKKaQm3/IoyoqFCbCCtUVYXiiMoKtf1IDFFdoai+qLBQUKGqLNQmIlpRaaG2d+oTFT4D9rKvX6jNCL8dLllhfPhWvy82Ihw+MDP7xVgVKdToOpN/ZSnvZHGUNx0s1IyQnYcvrHWRnUb6iq/PzJmZe2lYfaFXqOXXfbNXSz+Q0NtplBM/tFDbL2oQP4Qw3hf/oUJYX/zQwhp98aMIvQsb1YQ31x9E6B3AVRPCvtxZAWHFvrj4SwZQjtA766/QhFKKVJKwyk7j5m8pQFlC7kJdyAJqk82MJ6xzi9SKX37ccOR/Fb4REbolXOEY7fbXHJEyinbp0qVLly5dunTp0qVLly5dPmz+Dy7cIgRZPJEYAAAAAElFTkSuQmCC" parent="1" vertex="1">
          <mxGeometry x="315.61" y="32.89" width="35.61" height="35.61" as="geometry" />
        </mxCell>
        <mxCell id="NZK6xFN09U6bkFKJZl6c-41" value="&lt;font style=&quot;font-size: 10px;&quot;&gt;Snowflake CLI&lt;/font&gt;" style="sketch=0;points=[[0,0,0],[0.25,0,0],[0.5,0,0],[0.75,0,0],[1,0,0],[0,1,0],[0.25,1,0],[0.5,1,0],[0.75,1,0],[1,1,0],[0,0.25,0],[0,0.5,0],[0,0.75,0],[1,0.25,0],[1,0.5,0],[1,0.75,0]];outlineConnect=0;fillColor=#dae8fc;strokeColor=#6c8ebf;dashed=0;verticalLabelPosition=bottom;verticalAlign=top;align=center;html=1;fontSize=12;fontStyle=0;aspect=fixed;shape=mxgraph.aws4.resourceIcon;resIcon=mxgraph.aws4.command_line_interface;" parent="1" vertex="1">
          <mxGeometry x="359.17" y="60" width="44.5" height="44.5" as="geometry" />
        </mxCell>
        <mxCell id="NZK6xFN09U6bkFKJZl6c-42" value="Platform Repo" style="verticalLabelPosition=bottom;html=1;verticalAlign=top;align=center;strokeColor=none;fillColor=#00BEF2;shape=mxgraph.azure.git_repository;" parent="1" vertex="1">
          <mxGeometry x="538.61" y="165.5" width="40" height="38.5" as="geometry" />
        </mxCell>
        <mxCell id="NZK6xFN09U6bkFKJZl6c-44" value="Python Task" style="shape=image;verticalLabelPosition=bottom;verticalAlign=top;imageAspect=0;aspect=fixed;image=data:image/png,iVBORw0KGgoAAAANSUhEUgAABLAAAAFcCAYAAADYn0eRAAAAAXNSR0IArs4c6QAAIABJREFUeF7snQmcW1W9+H+/ezMz3WhBFllK2YoK+BeeKCi4lJ2yCMobntCFaZIO4A745AEig2y2gIhsZZpkhkLBxzz1ISpraUEWWQoiLihFNinwAOkC3Sb3/P5zkpvkrrnnJvcmmZlfPh+lMzn3LN9zksz95nd+B4EfTIAJMAEmwASYABNgAkyACbQyAezu7k4AwLh8Pn8EAByNiIuy2eySVu40940JMAEmwASYQJQEMMrKuC4mwASYABNgAkyACTABJsAE6ifQ3d3dJoXVpk2bxuq6LqXVD4ak1a5mzcuJ6GwWWPVz5hqYABNgAkxg+BBggTV85op7ygSYABNgAkyACTABJjCCCXR3d8sIq82JSEdEGWX1Q0Tc2mPILLBG8DrgoTEBJsAEmIA3ARZYvDKYABNgAkyACTABJsAEmECTCJx88slbjB07dktN0zQi6iSicxFxXEB3WGA1ab64WSbABJgAE2geARZYzWPPLTMBJsAEmAATYAJMgAmMPgJaV1fXNgCwta7rYwHgPwAgjYgTQ6BggRUCFhdlAkyACTCBkUGABdbImEceBRNgAkyACTABJsAEmECLEpg2bVpixx133L69vX1bItocETsR8SsA8KEau8wCq0ZwfBkTYAJMgAkMXwIssIbv3HHPmQATYAJMgAkwASbABFqYwOzZs3doa2v7mKZpWwohjpF5reqQVtaRssBq4XnnrjEBJsAEmEA8BFhgxcN1eNTaQ9o0WDZOb1sznigxRuh6m75RtAMNJlAHnaA9IYDadTTaRJ40SCQAhSBAyKMhyND1QYBBQKEPapogA3CTgbgJNhgb8m1iI67T129Y9eaG5b2nDg4PINxLJsAEmAATYAJMgAlERyCdTncDwJUAMCG6Wgs1scCKGChXxwSYABNgAq1PgAVW689RqB5O61k6pj2xaWuha1tpQmxFmthKI0yUKhGW2oRB7RrSlgi4NSFsToLGAdF4QK0DQbQT4FgAGg9E4wBBJ0JEAEEkNiKAQQjriYAQYR0QEBF8AADvA4hVgLgaBKwSQKs0DeXvAcAAw6h0QNNgo0GwCoT2Ngh6Z3Ddpnceu+rE9aEGzIWZABNgAkyACTABJtCiBFKp1LcR8ScxdI8FVgxQuUomwASYABNobQIssFp7fjx7N/2C304c1Nt20tthChF8GIHaywUJJgLBLoBiF0DcGQB3AhJj5PNUKlT4R/mn4r+o8nOlLrKUMn9rKVe8gqxVSY9VLGirzizp/t37RPQGAv6DEF4SBC8j0BqUKsx8GIhvC0O8nqeNLz1+6clvDcPp4i4zASbABJgAE2ACo5QAC6xROvE8bCbABJgAE4iFAAusWLBGU+m+3Te2bbn7zpN1I/FxodEUrSSiBGxJiHsgwB4AMAWA5Ak2pktyiCjTBfnJq6K7UpRXFllVqc96ramv1ORVWXK5NJlFsBHAawC0Agj+RACvyP5KwSUI1xDRc2Ss/ssj81NroyHOtTABJsAEmAATYAJMIDoCLLCiY8k1MQEmwASYABNggdVCa2DfnjvHbTNu/L8BGJ8FwHGCqB0JdwLEf0OgXUuiquKbLKaoEAjllFdFqxWbvLJFX4WUV77CzXyiFMTlFS1W2MZIq2X+BwD4IwCsJoBVQognN7479tnlvceua6Fp5a4wASbABJgAE2ACo5QAC6xROvE8bCbABJgAE4iFAAusWLCqV3rk5fd/AgC/jITjpKBCgr0J6FOAMM5hngqV+surivgpFlSQV/YKy512R2RVtgnaNh7a/Jl9K2EpvMoe3OUUbt59tv3WER1W/NEZMVZoe7UAfBpJ/BkQ/y9v5Je8ve7t5Suu+dZG9dngkkyACTABJsAEmAATiI4AC6zoWHJNTIAJMAEmwARYYDVhDRxz+dJpBojjkLCNUEwFwi8igJmnyplDyqKM7KFUxZ6XvZFdDpUFUml8ThHkI6+kIbProdrllb0JZ/8cEWP2bYPlsQXn6ir2z76REdYh0FNE9Dcg+P36QeNXy688+Z0mTDU3yQSYABNgAkyACYxiAiywRvHk89CZABNgAkwgcgIssCJH6l3hYfPv3b0dEl0EtD0C7EmInwSghNW8qCVAVxFBptkqB2K5lFSDk7ar99lvu2PRb6nk6rILNyJ6WW41RII/oIY3/u6yE99u0JRzM0yACTABJsAEmMAoJ8ACa5QvAB4+E2ACTIAJREqABVakON2VHTnvgUN0DU4gpI8Bwb4AuJnMQ27JYG5epJJDKkAElb1VsZyX9FEXQXZhVK7RlWYraOtgDfLKIavU++wTLVYcyrsA8DgS3rt+7NiFy3s4T1bMS5+rZwJMgAkwASYw6gmwwBr1S4ABMAEmwASYQIQEWGBFCNNa1fT5Sw5HxK8C4qcQYCpQ8aRA7xxSKvLKfnVx25x30nZbSUvUkroI8pJXZq215r0q74xU6XNlBPX12bkds8BsJQD8SQia/9j8kx7wSKgV04rgapkAE2ACTIAJMIHRRoAF1mibcR4vE2ACTIAJxEmABVbEdI+e9+AeoIluApiOCFMKJwe6PIo1ailOeeVQZkpb8Oyiylu4FctY0laVPZBn0vYa5VWhlZr77CmvirNdxP88APxt43urO5f3njoY8TLg6pgAE2ACTIAJMAEmACyweBEwASbABJgAE4iOAAusiFhO6+lJTBg/bZYA+A4i7AxAE63Zxf1EUEED2YKSLCXtCaGs8sUeOGQxSaFySLkStqvKK1NfOfpX/4mDDuFWNFiOGSKPVFjBiebdwq0gx6S4eiYv9HOeuOJEGY3FDybABJgAE2ACTIAJREaABVZkKLkiJsAEmAATYAIyFxM/6iVw8MVLdhg7Br+GoKUJYCsA0lTkVVHX2KOxSn2peBt7DilLdquy0HKfOKgigryim1REUGP6XHFXVoEVnbwqM5NVErxKBHf8/oqTvl3vWuDrmQATYAJMgAkwASZQIsACi9cCE2ACTIAJMIHoCLDAqpPlkZc/9AkdxfkIdCQBTChbparbBkulwsmrsvAqW66KqLIHcdnivWo6vc85jkqTUSRtd2g4+17EQlOeua9cEWO1CDeH3JNVSIuIYj0CPv7o/JMPrnNJ8OVMgAkwASbABJgAEygQYIHFC4EJMAEmwASYQHQEWGDVwfKoeUs/pel4FQHtDwBt5aqcidPdSbAqCdh9t+HZI69c8qpieSrCp/A7+5Y75RxSXn125Vt355UqxGP5bHX0Fm6O3zZCXtmclXOLpinTCAgBBBE90jFh+0OW9RyUr2Np8KVMgAkwASbABJgAE2CBxWuACTABJsAEmECEBFhg1QjzqB89+P+0NroOSBxIgFqlGmdUkI/08ZAqyiJIVV55CK1iuJHjUZNwM0VUPfLKS7gp9dkeBWaL57J5P2/29ibsZQhIEMHv1r7SdvifB07cVOPy4MuYABNgAkyACTABJsACi9cAE2ACTIAJMIEICbDAqgHmtCuWbjUO6UwkPMdfXJmWyZGg3R1wVI4AMqty5rxyhUFVTvwrNe4VxeRMfl5zwnaVUxJdEshO1dI/u+8K3urojiALFoRlRedgHyCu7FOJsOT3L7cdBSyxaniF8CVMgAkwASbABJiAJMBbCHkdMAEmwASYABOIjgALrJAsp/UsTYzfjI4CwjvCyStn8nNTcNl2/TnlVaVMoS0FEVQpFrSVsL78UdEnmXeM1Ryw62RDV1CVOydXsCS0tFW43FsSEsGv33x3sPPl/jkbQi4TLs4EmAATYAJMgAkwARZYvAaYABNgAkyACURIgAVWOJh45BXLPqUDPQoAieKlIUSQzdEERV61rrwq9My5dbCMwS7hgk5IrNTl3NhYrNAWo1WHvPLsc2Ec/hFuADAIBD/btPaD05b3nrou3FLh0kyACTABJsAEmMBoJ8ARWKN9BfD4mQATYAJMIEoCLLBC0Dz0R/dNak/o5yLg96rKK5d7cpoXi5ZxhguVizpFULFS+644R5SV3dKYXXTGF/nkj3J5HGdkU2VQXvLK1TuL4PLbNliu0SmRzHGEk1cWOk65VjXKLVC4vQVIV619peMqzokV4sXCRZkAE2ACTIAJMAGOwOI1wASYABNgAkwgQgIssJRhEh59xdJPAuBT5UsUkp+XtYpvPia3qPLb0mbzYs7TBr3klWeEkSPvlD3MqTC0KHJIlQRfaOHWUHllIVpleyYR/F4Q/deTV81+UHm5cEEmwASYABNgAkxg1BPgCKxRvwQYABNgAkyACURIgAWWIswD5z282SR902UI+PWSnCmFQ5mbAcu/rlSpnABdnnz3HgK8SkDrraIKgdoAcGsg2o4AOoqGSSHyyiWC7Nf59TmUvDI7ahNuXpFX5QE55Flg5FV8ffYWdZaRuBNpLR404D+X/2TWG4pLhosxASbABJgAE2ACo5wAC6xRvgB4+EyACTABJhApARZYijgP/dF9UzoSiVe85VXZ5FhqU5FXhev+TESvEsKjkIeb7v3+Ea9ZuzSt55ebt3WMOQwJjgOCjxLgVATavFSm6Fmc+aOKv/OLfvLamlcal9vbmKrLI4KsGLzln0PKb+ugcp8tY4tSuAXKK2+mawXRPOP99fOX9546qLhsuBgTYAJMgAkwASYwigmwwBrFk89DZwJMgAkwgcgJsMBSQNrZebu+dr8tv6Sj9gu1pO3+8qrkRgjoAwC8Dwivu+ecQ+9X6AYcfsk9HxckZmgAXwaEqQCgu5KQmw24YrTMX0Qmr8rOLjCHVOn4xMIQQ8krc3tjffKq3Go5I7w7YszWgu20R2ufCeCefF6c9/RPu5arzBeXYQJMgAkwASbABEY3ARZYo3v+efRMgAkwASYQLQEWWAo8p/UsnTB+Ai0BgP3s2wbLFsdWS0GQeEUsmcFSRPSyBnDHXRsfPRN6eoRCF2xFDrv4rk5A+k8A/H9ANMZ5vV1qhTgl0TdPV6kFu6xyi6XqIqgk7xxwilm3XEFk/qcQFnujHOFWKm69qoLMbNgvWqzY57L9k/+45N38VhevuOaojWHnjcszASbABJgAE2ACo4sAC6zRNd88WibABJhAqxHo6uraXdf1YiqiiB+GYazo7+/fIKudPXv2Dh0dHZsLIcqOyTCMjf39/S/U2mx3d/duhmGMtV7PAkuBpjx9sCOhr1KWV0W/Yj4sMU/ynwSvCRA/evelLRcu7/1UzVvRDrnoN0dqqJ1PQJ9GgLbyMHy2DvpHXpkqqIpwK9Ydn7xy55F3Sje3EPTb6ljoqQf7atsdq8sr19iXEdG5T/zklMcUlg4XYQJMgAkwASbABEYxARZYo3jyeehMgAkwgRYgkEqlrgeA7ePoimEY3+nv739Z1p1Kpb6BiAcTkWZp6/8Q8fxMJvNWLe0nk8mrEHEXFlgh6U2fv2Q3DXGFXUm59uQFnt5HBBsQ4AerO8Zf+9iZBxSStdfzOOyiX38JEC8hwL0QAF15ryw2pxwb5UpZ5R5HSVb5iaCi0nFeVzUBeoitg0Hyyrvt8tz4yiuXiLKOwrVtsILODYyQvvvExJd+Ukv0XD3zzdcyASbABJgAE2ACw4sAC6zhNV/cWybABJjASCOQSqX+joi7xzEuIcQ+uVzuWVNgZRGxCwCsAutfQ0Lrh9ls9uqw7SeTyb0RccDZd47ACiRJeNSVy76Ggq6tKBBv6eMXFVQSQUKIa9bh4AUPn3PMe4HNKhY47Ie/6SKEHgTYyb0Lz7qlzxnF5CWCLCP0EUE2eVUu7p8wvlLE1Tt3onlLKFaleft1XuIsSF759dnSfXuEmW+uriJDAfQzEkbPU1en/qY4TVyMCTABJsAEmAAT8CHQ2dmpT5w4cQ8AOBIAVmaz2VtHCiwWWCNlJnkcTIAJMIHhSSCVSv0aAHYK6P04RNzVUkaKp5VBIyaif8/lcoV74nQ6nQOAU6wCi4gMRHw4k8lMC6rL+XwqlboOEWcDwATrcyywAkh23n67/sGrWz+GRJ9253wqqxMzwshamVm64l9WAOrH3H32wZFKj2k9S8ck9PUDACT/6EuUe2DL7RQ+WqwyEvu1tSZAd2F2bnUs2CTbRseiRrLtXKwzWqxsrIr/qAhHpyQLPNnxXwLE15+6as7Pwr4QuTwTYAJMgAkwASZQJDBz5sztxo4de6IQYjIAfAQRDweA32UyGfnfEfFggTUippEHwQSYABMYtgTS6bTc1jc+YAB7IOI8S5l7iOi6oEFv2LDhwcWLF6+R5bwElnn9c0KIA3O53Nqg+krPyy+2Jk2a9BAAHOC8hgVWAMVpPUsT48eLDwiwvVhUPR+TLTG5oLPW6usXPnL2ccoTpzrBB19415c1FFcAgmlNg7bhRZUAvcjDL4dUURCpRF7ZuXqJQnfklXlNlZxXjt7Z8pL5R3ip9VkgnrFqcNUNK675FidzV12oXI4JMAEmwARGPYGurq4xuq6fjIj7AMBWAHCY+d8Sm/tYYCktk+VEdHY2m5WHDPGDCTABJsAEmEDNBObOnXsAET1SqoCIFmaz2e4wFaZSKa8thLKK1xHxuwsXLlQO/pg7d+50IvopAEx19oEFVsCsSIE1bjyZydbV5ZXd3ZABQvv83eceGkvi7716bm/fVhu3DBE/axVs3nmvQsqrslty5YJSkFcVyVTG7BV55bV10PY7lcgrS1vl4t59tvXKGfWlKNwI6HYxSBcsv3bO82Fe2FyWCTABJsAEmMAoJKClUikZVXUsAExExAMBwJaU1cKEBZbaAmGBpcaJSzEBJsAEmEAAgYgE1iJEnOHIgQVDB6BtAoBfZ7PZE1QnIpVKybo6AWAMAPyViHZDLAYUscBSFlgqOaQsW+AsYUlE9LiRH5xz//nH/FV10sKWO/Si3/wMgI4HgsIRmVVzSNm8jmurY/UTB8uVW+KkKnvxrJ7KlVeqEK3lCshyRouVjZlZl79wK5R05uoKJa/sgo0U5ZU5jndJiNRTP03eEXauuDwTYAJMgAkwgdFAIJ1OfwIA5sjTj4joo4i4J1hPTvaGwAJLbXGwwFLjxKWYABNgAkygMQKrHxFnmQJrkIiWmqkBpMR6ZChi+PMegsDVs1mzZo1vb2+/ExEPKt7v092I+EUAGMsCS2EpFyOwxKA1F1NRezijgrzlVaEswg8+EJuujTJ5u7Prh17y624y6IcI+GFbJilnDikPeeUpgixup2reKy95Za+wLKJcuy8DIq/KnEP22bYFsTwOx28d/S66K2fEliM5fWEkFpFJNOOJq+eMmESzCi8HLsIEmAATYAJMoCqB7u7u7YQQSSL6FABsN3SC0F4AIHNvqH5pygJLbY2xwFLjxKWYABNgAkygMQKrvIWQiNYQ0fGapj1gNv08EZ2azWZlXquqj3Q6PYeILkBEmXj+dwDwBgAcAwDj5IWqf0wEtTNin5fb83Yav+XGepKJC6Av3bvh8N9AD4q4QB12wR2fIl2/Te4T9do62Go5pNxbHR1yqKy9rJFv/pLQ7pZs1q4spuzBWs66nKFhwdFihgEzn76ma3Fcc8r1MgEmwASYABMYDgRmzJgxsaOj4yu6rh9HRNsCwG4AsKVzG4HiWFhgqYFigaXGiUsxASbABJhA4wXWqsHBwY+3t7f/02x6HSL+bOHChamgyUin07cAwIkyYjufz5+g6/ohiNjFAiuInPn8UVcs2QkEvFwprpJDyi5QCLTD7jnn0PsVm6yp2BfO+98d2zsS9xDAHg05va/Uy5pySAVtGyxWXiDt3CIYOml7QORVoSHXvsbC7+y/9eoznCvWbbx+ee+pq2uaNL6ICTABJsAEmMAwJdDd3S3/sPwcInYj4kcA4MMAsI3CFsGgEbPACiJUfJ4FlhonLsUEmAATYAJNEFjml1k/Q8TDhiKq5K31fdls9ohqXZk1a9Y27e3tt8hrZDlE/DciOgUAZEJ5jsBSWclHzL//8zqgGeqmIq+K6qX8KHiP+AXWYRfdubtBcCcCftQe3eTc6ljpn93b2Mu5Ns9Ztth5RTIVn1YRQfZyNr3k3O5oQ2mW9BBald2czsirsgYrTofXdkelPnsLNyL4OYA476mrU39TWUtchgkwASbABJjASCAwe/bsHdra2k4HgNmIuLWZZDWqobHAUiPJAkuNE5diAkyACTCBJgisNWvWbLXZZpt9wbKN8AkhxOxcLud775xMJv8TEc9CxA/L3FebNm06taOj4wwWWCGW8OHzlh2WQOPectYrj3xMniLIFCbFKCLqfmfT4OLlPceuC9F0qKIHX/jbYxHFtQA0xbXdUbXPZYflzAVlkV6lXjmFlpIIKkOp+CRXLjH//GKuhO0WweXO0+WQV4UfXTFVbulWJfLKRYFgOQnta09dc8oToSaLCzMBJsAEmAATGMYEurq6dtZ1/XxETMYwDBZYalBZYKlx4lJMgAkwASbQBIGVzWa36Orq2j2RSPy9eCtOq4bSDCzI5XLn+HUnlUpZE8EfvXr16nsmTZp0BQusEEt4+uXLjkXK/8odvKOSj6kcX/TfeSN/9gPfP/qVEE2HKnrwhXdeDwizkGBC5UJnHidnFJPFANnckjOSyX8bXoWLU3pVT4BuoefIne6McqvS5xqFW3nUTunmklfVo8UIQc5n11M/mbMs1GRxYSbABJgAE2ACw5gACyz1yUulUt9GxJ+oX6FckgWWMiouyASYABNgAtUIzJ079wB5UmCpDBEtzGazctue8iOVSlmTuK+SAmvmzJnbdXR03IqI08xthL/MZrMneFU6c+bMqR0dHdeVTi5ExAMXLlz4aDqdvooFlvI0AEyfd/+/A8JA4RKP7Wt+UUH2rXGUzwN9Ycm50x8L0XSooof88M6HiOBzaEnMHzaHlENT2bbceW0bLCDx2JZXiKFy7SZUyXulskWzbK3MKQkXLWZ5Udr5eskr1ymJzrbhbQCY8dTVc+4LNVlcmAkwASbABJjAMCbAAkt98lhgqbPikkyACTABJtAcAnEJrM7OTn3SpElfBIAlRXdAd69fv/7kW2+99T3nSJPJ5GWapn0DACYQ0c8Nw/huf3//yyywQq6JIy9fOhOFcXPlspC5mEzxJcD43H3nHlW2miG7UbX4ET13fyiPg3cBwH7F5uyipWTe6tqC55U/qmKwLHhUkp9bk7MXLw3b51pkW6W7VulV7Itrc6EToatQocC/DANOfvra5D1RzifXxQSYABNgAkyglQmwwFKfHRZY6qy4JBNgAkyACTSHQFwCS44mmUzujYjPICICwBtDydjnZzIZV2RyKpXqRcS5MlKLiA7P5XKFQ/BYYIVcE4fPu3+GDiCPciyHYCmLoPIlBT3zuMD8yfefc8w/QnYhqDgecuGdtwHQlwGwPawIssmjyhCtSskceuT5o8rjcvfZydq5pdEivPz63ADhRgCriMRJT/80fXfQJPHzTIAJMAEmwARGCgEWWOozyQJLnRWXZAJMgAkwgeYQiFNgzZo1a5eOjo6bhqKwPm+ObnEmk5lpHWkqldoPEecDwBeJaFAIcWRfX98DLLBqWA8VgaWSP6r6djZBdGR+8PEly3p68jV0xfOSaT13TNVQuwUB9vdLNB/laYMVJ6eQ88rSsH1LZWUoscirQicVhFsxjNHCVWWbY0WeEcEqAhZYUa1lrocJMAEmwASGBwEWWOrzxAJLnRWXZAJMgAkwgeYQiFNgTZs2LbHrrrsepWnaHebo/vv1118/5a677tpYGu3cuXPnEZE8bbCNiKTsuiCbzRbyh3MEVsg1cfhl98/QNTIjsKxexB4V5EpZbokAsuSPeh/QOPTeTU8+CT09ImRXXMUPOecXW8KYtsUAcETLyauA/FFFEebap+cf5eaVsN0C1qarHNFXxR9dSbkKv7NfV/lJRbgVIrBYYNW7jPl6JsAEmAATGGYEWGCpTxgLLHVWXJIJMAEmwASaQyBOgWVKqM8Q0YOI2E5EfwKA87PZ7P/K57q6usbouv5jRDxd7h1ExC9nMpmS7GKBFXZJWAWWUsL2opmpiJhSg6XfETxNKFL3nXvUs4DoYVXUenjIuXd8GNq1+YTQiQBj7QnbLe1bJE+55nKgkXNrniOzlKcIqtRdrC/OhO1mW17yKoizOdgo5ZVTErLAUlurXIoJMAEmwARGFgEWWOrzyQJLnRWXZAJMgAkwgeYQiFtgzZ49+yMdHR0LhiTWQURkAEBvNpv9mhxtMpmcrmnaxQDwSQB4zzCMk/r6+so5pjkCK+SaKG4hpFsikVcVmfUECTrzvh/UltT94PN+vhO0tfUgwImAOM5PXhUcjzMXVI3yyrMu85euzXquwCpnlnT/0wYr7VhEWeHy6tszTZdmPSqy+CuVyCuFaDGvCDcCWkWIX336ak7iHvJlxcWZABNgAkxgGBNggaU+eSyw1FlxSSbABJgAE2gOgbgFVmdnZ/vEiRP/HRHl7jF5j95vGMbp/f39G1Kp1MWIeJ458hsMw7isr6/vtRIJFlgh18SRl987Eww0TyF0RiwpJBO3GxmLZ6H3DMp/NQ/wwkPnf+kllW5N67lzK9Jgd13AmYj0FQDU3PKqIn685FXxWfc4bL91Sq9yUJk7YKzmHFLuPX+mcCqRqFgwR1xY9Qg3C0jX+E36rpxgNQo3InyPCE7iUwhVVi+XYQJMgAkwgZFCgAWW+kyywFJnxSWZABNgAkygOQTiFlhyVMlk8iBN034DcvcY0cNCiLM3bNjw93HjxkmBdarcPggAM7PZ7K1WCiywQq6JI+bdOwsJF5nWpHh1qC1trvgkWz4mArpNGHgbgngf2sb8ccmmh9+r5McinNazbHxCW7cLCWMnQu0zADQTAXayiSgPGeSKGPPqs2V7oV8uqPJwAyOZwiVArzg0S94pj+2O3hKu+lbHijN0CrdiH73GaumFs4B1R6i5esql/yUEnswCK+SLioszASbABJjAsCbAAkt9+lhgqbPikkyACTABJtAcAo0QWHPmzNlT1/WfAsAhAPA+EV0uhPib3D7nc67pAAAgAElEQVSIiFOJ6DUiOjWXy93FAquOdXDkZfd2AUJfuYoI5VVRhhEQFhJJvQGEOdTg70LQYOE5AxKkw7YIcDgAHQQEiVI/4kuAXl24VTjUlwC9MiWmjPKQV0XZFF20mCtpu2mz/OWVV6J5m3B7FwBOXn5N6t46lhhfygSYABNgAkxgWBFggaU+XSyw1FlxSSbABJgAE2gOgSgEVjqdzgHAKQCgEdGqbDa7hXU0Mll7IpGYDQA3mr+/DgDekScOFrUIXa3r+rze3t43rNelUqmfIOJcABgnf4/NQTR8WpVJ3DUU5VMIXVKlQLv8f47AIpsa8TwJz5WjyRLpVEtUkP/2OEc0Uh19rvf0PlV5VaTq3N/nL84qU+He6hiDvJI9WwUGnfT09em7h8+K5p4yASbABJgAE6iPAAssdX4ssNRZcUkmwASYABNoDoFGCCw5slQqdTQi3i5llNxGiIgfAMARACCEEN25XC7rJMACK+SaOPyye2ZoiEWB1fBk4uVGLb32T4Dukld19Lnot9RFkEvh2QKnXEmmKqc0emx/dG3RdERn2X8MloRueVUZm20zYsg+s8AK+WLi4kyACTABJjAiCLDAUp9GFljqrLgkE2ACTIAJNIdAFAIrlUplEbHLLwJLjiydTn8CAK4EgEMdI32eiM7IZrOuwBDOgRVyTZQFVj2n9/nIoCgToHvKK59TCEtJnvxEUKW77hxSLqdl/iKSaLGKBfPYOqiS90pFuNmloN9WTEuAmrli3FsdCZAjsEK+nrg4E2ACTIAJDH8CLLDU55AFljorLskEmAATYALNIdAogXXssceO22abbeYi4k+sIyWiHwshftTX1/e2kwALrJBroiCwAG9x6BPvbYMeokotkilEAnSviCVbsJQ9Z5Q7h5SKCLKYpDIvjwTogTmk/KPF7Khi6rPML+aabydrV1Z336TtTklYjMAC3kIY8jXFxZkAE2ACTGB4E2CBpT5/LLDUWXFJJsAEmAATaA6BRgksObpUKtUJAIsQcYw5WkMIcUYul7vGa/QssEKuiYrAskuWYjUR5WNy5b1yShWvXFAVyeQ6cdDin6rmkHKHGZnyRiWSySm0VPpsidNybAs0cZrCycq6duHm3gHpIQpthcIJNxZYIV9MXJwJMAEmwARGBAEWWOrTyAJLnRWXZAJMgAkwgeYQSKfTuxDRmaXWhRCP9vX13RamN8lkcoamafsTERLR+lwu9z2v67u6uj6madp/IOJWBW1B9D4i/jKbzT7hVT6ZTJ6AiAcCQJt8npO4B8yKFFgIUEniXpZDTrFilz5qkVf2PFPlGh3+KNSJg6ryqrhabKNX7rMZeWVRaKVdieX6vMRZ6Ukl4WbhXHWro8c4zGRljuir4Ci3Qp9DRLixwArzlsZlmQATYAJMYKQQYIGlPpMssNRZcUkmwASYABNoDoHu7u62devWFYSSfGzcuHHdwMDA6jC96erq2jyfz4+V14wZM0ZkMpm3vK7v7OzUx48fv1mpbEdHx0Zd19f29vYOepWfMWPGxLa2tnH5fL7grlhgBcyKS2BZopb8xIq6CIommXhxCGZvyv+x/xyU96qWPhdbdbYTQbSYbTjW+qMSbmYDtqA6b16Fkv7RYqtA8BbCMG9sXJYJMAEmwASGPwEWWOpzyAJLnRWXZAJMgAkwASYQRIAFVhiBpSCvisJDZQteRaJYNta5IoDcu/zMOC2vSCGnvCqLoOrb8ELJq4Doq7qjxSzyyrZFM7JosWjklVkLC6ygdxh+ngkwASbABEYcARZY6lPKAkudFZdkAkyACTABJhBEgAWWqsBqdXlV9jLO/Ycq8spmjYpElBKgO7dAuqOxypFfqsLNS7o5LF4o4eaVX8wy3DqF2yoQyEncg95l+HkmwASYABMYUQRYYKlPJwssdVZckgkwASbABJhAEAEWWCoCi2QOrOoiqOJd3NFX7oisoJPwzNgjD+njPAmv3P1ylbZ9cfZE8+5wLnN7nLPP5EyPVdyi6PJT1pxR/gnQPfvsFS2mIK+Kbi1chFvFV/lsd6zK2cnTFhfGAivoHYafZwJMgAkwgRFHgAWW+pSywFJnxSWZABNgAkyACQQRYIGlJLCokMTd7jnsEkU9Kqh2eVWUN6UO28WKQ6+ZnbWckuglr+wVmhU7Txc0R16jvKqlzzbWzq2DHuNQjhbzSNLuJdeqS0LbvLPACnqH4eeZABNgAkxgxBFggaU+pSyw1FlxSSbABJgAE2ACQQRYYAUJrIvvmYGaQ2DVnI/J49RBV10q2/CqRgVZTJs1Kioq4WYXWsWfnH2utBVWuNnllV0bFuuKIlrM0msPIejfZ0fbBKuAeAth0JsMP88EmAATYAIjiwALLPX5ZIGlzopLMgEmwASYABMIIsACS1FgVTxHrSLIQ145IoLqzMdUHIlFyNTf56Btg7XJK5v0KvfZEUPmkFW1R7i5hVu5/VDyyiHPiteuAjJOevr60+4OeqHx80yACTABJsAERgoBFljqM8kCS50Vl2QCTIAJMAEmEESABVagwPrtDNC0whbCohyyRBcVfnRGBPkkQHclE7eLFTV5ZWm/HPTkigoq97HS3aj67I4OK/Tb1gVTRHnIoUqgljuCzH7iYK2cg4WbTZ4559Onzw61Zl0Hq4AEC6ygdxl+ngkwASbABEYUARZY6tPJAkudFZdkAkyACTABJhBEgAWWqsDy2L5WezJxu7wqy5uqIqgGeeUQbOpRTE655m67LIKillc199ku0mzSyebLnBKuLuG2CllgBb3H8PNMgAkwASYwwgiwwFKfUBZY6qy4JBNgAkyACTCBIAIssAIIHXLxb2foiMUILPPhJ4KCTxt0iiv/0wbtHscesVQlIsi6g9AeLeYh4AqtuwLIVKKYnCcOWiK8nFFMqpFiZUdm75CLKVkS01tnxOal3JFifpLQM99VeZoCotsAWGAFvcPw80yACTABJjDiCLDAUp9SFljqrLgkE2ACTIAJMIEgAiywAggdevFvTtBQu8GZPNx756DTBlVkkPCQLRUhRgCVAh7iSZY0C5SrdG7Dc2gtz4ixsiWy6Tivsdix2KKbtiCghMOUFYpHmbC9Up+VaVTCrcIhRMJ2+9bMIiAWWEHvMPw8E2ACTIAJjDgCLLDUp5QFljorLskEmAATYAJMIIgAC6wgQvy8jcDnzv7Z3wlhd6fAGo7yylOSFVxdYORVyWeuQuAcWPwSYQJMgAkwgdFFgAWW+nyzwFJnxSWZABNgAkyACQQRYIEVRIiftxE44Ozb/o6Auxd/WVf+KEsVjm2DFbNUadu1dVBlq6PKFs16tmciCyx+fTABJsAEmMCoI8ACS33KWWCps+KSTIAJMAEmwASCCLDACiLEz1cVWH6RV0W95dzm6Pqt6xRHz/xi9cirimfz2ZpZyZellFvMLtdWIRCfQsivESbABJgAExhVBFhgqU83Cyx1VlySCTABJsAEmEAQARZYQYT4ebvA+t5tf0eUEVjW6Cu3qIpPXtmSbZV6Uexj1dMGKwVc0s0r0bwlGb0tPsyeMIwFFr8+mAATYAJMYNQRYIGlPuUssNRZcckRSaB0r+k6NmpEjpYHFQcBXkNxUB3GdbLAGsaT14yuH1AQWFDYQqgkgsreqHqSec/Iq0IbznxUlhMPrdbKbpmKLsvxu/r77PrsXWUAnfTH60+7uxlzwW0ygeFCoLOzc+zYsWPHJRKJSUS0taZpWwCAXq3/mqZhPp8HTdNcLzxEXJ/P598WQqzUNO2D/v7+DcOFxXDsZ3d3d9umTZs+puv6DuvXr3/81ltvfW84joP7HB0BFljqLFlgqbPiksODwPTp0zt22GGHzYUQO2qatg0R+d1PavKznogEIhpVRrdW07Q3161b9+bixYvXOv+CHx5UuJchCGjJZHK8EGJLXdenAMBmftcKIeTa0hGRqq0hc429KYT4JxGt5b8LQ8zGMCzKAmsYTlozu+wWWM4cUqoJ0B15r7yPdXSkU3fmvaps/6swMWO/qsori90KlbTdKc9glTDopD/eyAKrmWuS224NAtOmTUtMmTJlEiLurGnaLogo/3CVAkp+zmxFRNsAwK6IuDdAQYKPqbXnRPQOIv6BiB4lojcA4F+yLkTchIh/e/311/9x1113bay1fr4OoLOzU580adJHhBC7I+JWQ1xPAoDPaZo2rbe398nK0bhMazQSYIGlPusssNRZccnWIyA/26dOnbotAHxCCDHB/KzdAhF3I6KDEPGT8qO+np4T0WuI+DgRPYmIrwkhDCkshBAvtrW1Pd/b27uunvr52qYRwGQyOSGRSOwuhNhZCJEwe9Kmadr2RLQnIh4EADtF0MNNRPQEIj6MiK8YhlH4u1DX9UEhxHO6rr/S29s7GEE7XEULEGCB1QKTMJy6cMD3bi1sIfSKvlLKIeUOjTIjuZxBFmSJ8DKFk8tXVYRWkWFIeeUZ4VWRW5ZdhK4vg4qRYbhKCBZYw2n9cl8jI4CdnZ0TJ02atAcRSSnVYQqpHYjoACk6ACCBiI3+jFlLRPcN/UH0IACsFUK8Kf8ozmazhT9k+BFIQH4rKgXkPoi4jRDi0KE/Bg8FgEmlKzVN+wwLrECOI74ACyz1KR6tAuub3/xmx7p168Zv2LBh3JgxYzYnos0RcYL5eaHLm1n5pQMAyAjafyHi2+vWrVs1YcKE9/lGU319xVEymUxupmnapwFgMgCMB4C9AODfAWDremVViP4KAFgqhLhH07R3iGg9ADy1Zs2alwYGBqpFc4VogotGSaCrq2tMW1vbbkIIKaYmEJGMnJIRevJvic/W88VlHf1cT0Q/R8TfCyE+QMQ3dV1/rLe3d3UddfKlTSbQ6JuLJg+Xm6+XgBRY4DiFUIZJRS2vKnXWL68KNdhtVMl3eSSar77Vsay3ihWuEgI4AqveRcXXDwsC3d3dk/L5/Kc1TZPRU21yKyAifgEA9jX/wG2pcVDRMq8Y+tb4FwDwKiI+9/rrrz/BkVmuacLZs2dv397evj8AyFD+fYjoCESU37i7Hiyw7Ejmzp17hBBitzhu6hDxN5lM5qW4XljJZPKjmqbtT0QTw7ZBRFtqmnYkAHwm7LUK5Z8fen+5TqFczUWI6PUh0X5/LpeT25VifYxkgSW3km233XZbEtEndV3fUd6wlmBqmia3CMnt4nJ9bWe+p3zI/LyQkRjtprySXzzI+XhF3lwKIeQXDhtkBI6maTKS9snBwcHneUtQrMsUjj322HFbb731/pqmfQwAPgwAx5niqi3elpVrl8LhTiJ6moj+zzCM3990003/4O2GyvwiLyiFVSKR2EsIIb/0Giu3Ag59bn2aiL6AiFtG3mD9FUrx+eJQ5Nft8r3GMIwV77///kMDAwNSjvJjGBFoWYF14Lw7NpsAE/bQNNgbDNpC7g3x5lqU8EJ6es+H4wnLj5V/elzsWZ8Al/J3lXNf6Psble8PyhcL8B1iadzCXaH3MKrXVG7Ju9h35XagcoIp1QToXpFXst+BWwed2wYLFznyW1lOPPQQVf7yyqyr/J9Q8kp2/V8AdPKzC06/x2/10Vvf+SwITd7kN/iBBEjvARl/AH3wr7jN9e83uAPc3DAnILcN7Lzzzrvoun4AIm4nb1jNUG+5BbAUBj5cRpknoscBYAkR/WH9+vW/u+22294ZLp2Po5+pVOpDRPQ5RNxLbvsEgMMAYJegtlhg2Qml0+mfEdGXEVHejEf9OD6TydwRdaWl+lKp1KyhKMkLVeY9rj40q14iWqrreldvb++rcfdhJAks+b4BAPsBwEdlNIW8aRVCbKdphb9zpsbw2SCjJx5AxKcBYB0Rvbxhw4bfLl68eE3c8zZK6sdTTjll17a2ti8QkRTxh5lbAlv9M/7/AOBeInpOfqYLIR5iwdmQFavNnj17u7a2ts/LbX9EJKPz9tM07UAAKGwvHS4P80vOP0opKr/sRMSH4vzCaLhwGS79bBWBhYdffs/WCaNtGui4J5DQCWgzBNiLAP4NAeQ3OMVMvs5k3R65jgrw68lt5JE43JVF2FLGlhmpIcnE7SCKXFw9LPzO3h1nDid3DqnyFVVzSFmedHK2CCS/tsu9D9Fnf8a1yatiH6zjd8WQuZg6OSsJrDfOPB8Qf9jwNwQEAQTvAZD8o+/PQLAWEN8GwKXw4Ql/QewJ9KEN7zM32AoEtFQqJb9F/5LMTyBzVg1JH/mHynat0LmI+vA8ACxDxPuFEEtH0/bC7u7ucUKIA+W3owAghaT8r9waovxggWVHxQJLeem0VEEWWGrTYUZYfRIRP29uCZLvGzLqbg8AkBEXjX68JIS4U9O01fl8/rf9/f2/b3QHRkh7Wjqd/jgAHEtE8r/T/KJuW3y88pt7mQ9zqZlD64HR9JneoLmReay203X9BCLaloi2R8QvjrAvPlYS0bIhgftIPp+/56abbnqxQWy5mRoJNFVgHfPjJTtQno4mkOGqYksAbX8onHBHmktUecgru7epIlUqxqSAKTi3kYWmUwKVanC5nzrzMUUp3EwwdqUVnABdTV5ZCFaRV9U4Kws3ywTb9JJtqt0Srryh0SMaq+KsnNc5o69c9LwkYeAWQnrzrO8P5RC8qMbXZ9SXvQsgfg+ALwDQMtDbHsCt58e+fSLqQXB90RPo7OycMHHixC/J0G8AkIk1D2nR8O8oB//Xoa1yjw1tm8utWbPmyYGBAZmLZcQ9enp6tH/+85/7EVGnGeL/KQCQ81zTgwWWHRsLrJqWUdMvYoHlPwVSWm2//fZyS/Gx5nvGXkT0aUSU0RYt8zClxVMyAiebzd7aMh1r7Y5gV1fXRxOJxClEtLcZVV3zgSotNlS59fhR+eXUBx98cN9oj7Kud27k6cNCiK8Q0f4yjxUAyC3jrbgtsN6hlq8norcB4CEAuG/jxo2/uuWWW+QhQfxoQQINF1j7dt/Yts1uH9lX02kOUeGFsB8C7BgYYeMTaVUM4nHKK/fvXFmanNeVanFEBRXTqFgfIba0VY1isvQxhhxS9m6r9DlkAvSy/7GzV+KsEnlVQF7st5+8Ukva7uyfJfKqPAU1yaviFkINT3r2+lPv9Xtt05tnnTuUL+iS1njt2yLOnpPfWoEGt8A27z2E2C+TqPJjlBFIp9MfHjrt53xN0+QRxvJb9Y+MMgQwlFxUnljzdCKRmL9gwQKZh2VEPLq6uj6m6/o3Zb4yud3HjLaqe2wssOwIWWDVvaSaUgELLBd2eYCDPHG0GwA2lxFWiCglVl2nyzVgcgURvSjzxQ3dT/w2k8nc14A2h2UTXV1d2+q6fjoifspMqh3HtudWYPP3Ifm6XAiRGzqI5GHeWhhuSrq7u7cyDONCediCmWZAbhceVQ95KuaQsPu9rus3dHR0PHrNNdfwqdYttgIaJrD27X6qbbvd1n1B6PmU3DeLAAfYdnBZhIWVkTsqyKK6apVXBXGhFGEjb24s3VERQaYgqSrcyubELWjKTzmliuUas0cueWdh6CUE/SWhv7yyo3KKwkbJK3PsDqZuB2ky82Hvva20OudiG06JWZwAApljCk6qmgOrJQSWdZ4c6xngadDgz2DkL8Xtr5Vbq/gxCgjMmTNnf13XvyZPhRpKkHs0IpYT746C4XsNUQpcuaXwx88+++zDy5cvH/ZHLafT6bvNvFaR3oCywLIvHxZYw/MdgwVWcd5krsOpU6ceP/SFlvyfTNwtt4zLU2WH1YOINiHinwDgro0bN/705ptvljmS+AEAMqJuhx12kFsFZc47ufWrfKrsCAe0XKbQEEJcmsvl/jbCx1r38NLp9DQAOMk8NfBLw0Be1z1mhQqeJCIZ5XlxLpdbqVCeizSIQEME1jFXPrA3EfwQCKcAwj7OJNx+ETZqW9qsUSVe0TWmarACVZRXSjmkHG4jVJ+LXfM4Cc/RZ8VoscIQffJe+cur2nJIueesduHm9kMe2x1jkVcKnH3klbmcgrcQrjzzPNDw4ga9nj2aqSqvzPJkANGjALgAYP3/4va965rXX245TgLJZHIGIh6DiDK3ldxKFqnciLPvDar7GXljaxjGecP9W9t0Oi23REZ+ehQLLPtKZIHVoFdmxM2MdoG17777tu2zzz4XIeLHiOhjiDhSoixWAcCDQ6ci/iqbzeYiXjbDrjqZdB8RM0Onru05guY4zDzkAeBRIrp1zZo1iwcGBvhAIwe9OXPmHKfr+pcB4P+Z/4v874YwE9aCZeUJhY8Q0RnZbPYv8ty4FuzjqOtSrALrs2c8OvZDkzfeBgSTzaPWi4BdCdDtEsosVAzQ8oimcZ0qV77cZZPKFZSfGW7yysGrjERpG551C17ZltkWeXCEm2MSPLf0Kcgrj3HYtwiWulW7vLI34YwWc4/Dpg7DSMIKwRYXWNbXlSvyqiSvSi83+Vr5BxA9BGM3fgc/1CuPK+bHCCGQTCYPRUQZ/SpPj9qJI66qTuxqeWLhypUrv3TXXXcN27BxFliNefGywGoM56hbGa0Cq7Ozs33SpEnXmAmYZS48GYU70h5SWrxORDeuWbNm/sDAgMqZ3yONAcydO/dLRHSmGVU3qr+sklvCEPH5fD4/u7+//80RN9k1DCidTsv8VjI35r8R0S4xnaRbQ89a8xIZiTWUG/aaZ5555raREKXfmpTVexWbwDrq8gdPRA2+DWTsD2DdnhKcTLyW3EaO8/ZM8VXj9rAGnd5XVCpOeec8OdAuXny3tHklmzclVyQRbpZu2Hpoip+KIHSIIp/cYoUl6uqzxxZNl3B08yqrL3snymLGsQrca6M2eSXrDxZYTdlCqBR1ZRVXlncMktFXT0LizWNwG/6mSv2ttDVLdnV1/b9EIvFdIvqsKa5Gas6LqCdAfsP2xOrVqw8eGBiQ374NuwcLrMZMGQusxnCOupXRJrBMcXW1GWEhb1jHImJs9wBRz1eN9b0jhMgkEokre3t736mxjmF5WSqVuh0R9zVPEh6WY4ih0/Jz/RnDML7X19f3QAz1D4sq586dewQRJeVhLkS0A4sr9WkzRej9kydPTvf08Gnu6uSiLxn9h9ftt+tHv7LNACB8GpB2AAJLGyo5pMInE69FXhX9iSNiy0uquKLFTEFTz5Y2r4gxi0Txk0Gh5FVAAvRatjoWR26PbHL8Rjm3mJK8qmRwL/ouD9kXJK/8+mzOoilx7OvAl7P79deCAit01JVlVOa1KLcUwl9hu7f2QRyd31xG/1bb2BpnzZq1TXt7+/kAcMTQ9gEZAduM484bO+h4Wnsmn88fNRy/sWWBFc+CcNbKAqsxnKNuZRQJLBx6LziXiI4FgI8DwLhRIK6sy2UVEf13Pp+//Kabbnox6nXUavV1dnaOnThx4r3micLDLpdZI3gS0csy6X8mk/lGI9prlTbS6fQeRPRtRJxu5rvj9VHb5Mgv+h/IZDLyPZUfTSIQqcA6/qqlmw8K/AUSHEgIbUiEFTVQn7wy3ZKJyVKrU0IpiKBiXQryytKo1zhM+6Gw1dGmS3zyXkUULVboVPVteGryytJnL+FWftqitByRTKGEW8C2UrU+O+WaS695RF/VLK8kgRYSWCpRV845tY7d8W/5I8JfcPtr92rSexM3WxsBebPybQDoJqIprXbseW1Dat5VVPyg+LNhGIcNN4nFAqsx64YFVmM4R93KaBBYqVRKHnv/XXnqHADIk2ZH5TYyIvoAEX9uGMa8vr4+mcNmRD5SqZQUlH1ySxgAjPaDWarOsVwTAPCnbDYrT18e0Y/TTjttm8HBQXki8SlDW+C2lBJ7RA+4MYOTOUYfy2QyMvE9P5pAIDKBdeQVyz6dQLgWAD4JAAl7hI2KvAp5el/Z07gjgmy6KMT2MLfUUswh5YjGKrTv8bvC/NaaQ8pjHAViLg9Xew4pzz7XKK+KDBQloZdwc0yie/im8Cs3UYO8ckxUiMir0ku1RQSWiryqJTKrsMfzGZx8vQxD50eLE0gmkx9FxP9CxBOIaMIo+5Y9ztmRx7T/BREPzWQyb8XZUJR1s8CKkqZ/XSywGsM56lZGssDq7u7eyjCMKxBRniQmxVUian7DsD550uxtRHRpNptdMQz7X7XL6XT6uKFtofMQcSrLK+XZNYhoxcqVK/cezvku/Ubb2dmpT5w48T+GtgheCgBbs7hSXheqBWWuvbs5EksVV7TlIhFYR12x7CQN4AIA2B0QtJrllds8FZ2Pj6SwxSx5RV65TZIZLaUiVmqXV8p9thS0D1ElKsjZPxOe1VO4xu+/PTNcnysTVcHu6LOXcPPK0+WSV/ZxqOVDsy0cd4Rb+WnbigmMxlJ4qb1DaMx49vqv3+tXlmLPgVWLmCr11iMCyzlvSHkQlMHJN5yuwIOLNIlAMpmcq2naPACYEMfJcxENS4qgtYj4DhHJI85fIaI3EfFNIYQhj27WNG2SjBwDAPm/7RFxYotEDci+P7dmzZr9BgYG5DdvLf9ggdWYKWKB1RjOUbcyUgVWOp0+ayg6/DvmFiE+Tcy+cAaJ6Me6rl8xknJipVKprwGA/PJqhxb5vIz65RpbfTLKGhFfWL169b4j6YTCVColo/AuR8QDiGhMs7/QJKINiPgqADwkhLgvkUj8MZ/Pv+6c2LVr12rjx4/fLpFIHElEBwHAJ8x13XLvZeba2SiEuC2Xy8mcYvxoIIG6BdZRlz9wooZ4CSHuhnLTUUslQFcRQV7JxCvWrKw8HM4rki1tpiwIL68UE6BHkEPKoXzUEqDXHC3mlFcRROUpyKuivPOQmsEvRJlb4avPLjj9Hn+BdeZ5AHhxcFW1lCjJKw8RVahORW45mTvrIpnF7n0Q2pdx8nVLauklXxMfgRkzZkwcM2bMt4b+OLmw+HdYayTlJaKXEPHWZ5555sJjjz3WdgJUT09PCYjfi67wuWQpBy+88MKEjo6O6zVN+0qz8nmZf6w8nclk5Hacln+wwGrMFLHAagznqFsZaQIrmUzuOnS67EVDJ619tfdBdGsAACAASURBVJU+C6Ketwjqk4m8vzF58uQbR0IS5mQyeT4iyu1hWzXr89/8bJSHnfx+KNLnusmTJ/9v0Dy99tprhwOA/Nvl80OiZXwhaUWTHmaqgBXt7e3733DDDe81qRuRNDtr1qzx7e3tMxHxOiLSmrQm5CnmDxmG0fP+++8/u9deexX+1jP/ppP/VrnhkusBrX8Hvvrqq9si4vcQsQsAJkUCrM5KzLXzL03TuhYuXPjrOqvjy0MQqOMNg3D6FUuO0zBxCQLs6U7KXbkxdkdKVe5f3K7DLG1b3pYfCoFH9p9LrwU/EVRsw+P1UuXkvsrtf2VLXvF3Vilgvw+Lcgte3X2uDECxz06mXpxtBGwyq9ycEudatpRW+qcUkVfpUGGSQq8NtRdRE7YQWuep9G/n2lYRV9Z1XUWAlV+g+DoMrp+Ku/TLMHx+NJ8AplKpfRDxMpmovdHdMf9glTcCefMD/O8A8M0XX3zx0WXLlsmw6lgfUhoAgEygKb+Va9g3c+ZYH3nxxRcPasQ464HIAqseeurXDnOBdTIink9EO6uPuFjSvDGSeXbi2J4mt/YMhu1TmPKI+KBhGHP7+vpeC3NdLWVTqZRMnPyTWq4NuGa5YRjnaZq2IwD8yMxvE0MzwVWanwnyLwb5uSB/LHyjYooJbOLNtGfnhRBzpkyZsmi4Sixze9hZiHimGW0XPEnRlJDzu0l+6atp2pIXXnjh+Cg+C7u7uycJIW4BgC/Kz3Qi6miCfPlzIpE4eMGCBTJCfFg95HqYMGHC3pqm/QYRt21E583XuPx7T/5vhRDi4ilTpvxPI15T5qmqVxCR/AybSESJJqwXK+YXNU3bt7e3V8o7fjSAQM0Ca/qV931Gw/YrkOjAarmYLNrB4VxDnjYoYTjlVeF3Nj3mkirFIoryyms7m+3akH0uewRH+xZrV/mnjZS6cAvIH6Um3GqQVxb25tQo9tlHXpUrKa56e7+D5ZXtGltdjjMqHWuhxsir0kuzwQIrSF4piqvKhFneYpxr1CnH5MmE+DhM3vaLiD2xC4oGvPcN2yamTZuW2G233Q4FgCwibt/IgRCRjKZah4jriegBwzAu7O/vf76RfbC2NWfOnDmapl0u87w06ihoIlozdMPf/49//OOsKP5wj4sdC6y4yNrrHc4Cqx5CXV1dO+u6LqM/4tg6cV8mk5ERGiPiEZfAIqK/IaLchnNwg0FJiSG/zNpgSn0pNN9GxDcA4AmZM9AwjLd0Xf8wEe2FiB81Jak8EVeWleJzAhHpTbzpHBRCnJTL5X5pSrcGI6y9Ofk3wNSpU+W2wf8EgALTOB/mHMuT1zbKKCtd1zt7e3vlz7E8Tj755C3GjRu3jIh2QEQZaROHJPfr+/JNmzYdt2jRItf2tlgGW3+l8uCebYjo+CFxtaD+6qrXYJFW7wPAW0R0TTabvT7udqvVn0qlvgoA8tTtnZp5yioiPjs4OPiZ/n7+or8R66EmgXXYvIe3b9fz1yDCV0pZye23v7UnEpeD9o+w8RZBftE1hbrsFRaZNjQXU7kXZtuVn/3lleOamvvsvwWvlmgxW69cEk5REgacNliCZKm+HD/lty6K/QqQhB7rwHNthHvVBQusN868ABDLe6bCVW8tHSSngp63zJ4driOat0pkFsJbgPh13H7Bz2sfB19ZD4Hu7u62fD5/jKZp/9PAXBcy/5P8Y0V+s/SSpmmXLly40HfbbD3jq+VaeWz4pEmTZHTDsUQkQ8xr+lwL07a8QSOiM3K5nG/+uzD1xVGWBVYcVN11ssBigRW00uISWEHtRvW8edMqc//JzwAprt4dynm7eOPGjTfffPPNoaNVTjnllL0SiYTM2ShPOZZfPmzRwM8zK5b/IaJzhlNSdymvdt1116MQ8YeIuHdUc1ylHjnnq2Xy+02bNt1y8803y9P7GvIwo8x+gYjycDAZVdQokfWIEOLEXC63siEDrbGRrq6uMbquy6T9DyLih2qsRukyU2JKgSnzlj5mGMbZjYheVeqcWUjmgkXE7yDi7s2IyCIi+b44P5vNzg/Tby5bG4HQf+gfe8VTWxn4/pUawOxCky4ZFCSvvLbhBUfYOOKsypFWoeWVZ0RW8Ja2giCxOZLa+2xRCa6opaKkccogldMGzescffQ7DdElg1Sjxcrds45fUV4FnjZYrHyYyCvZ2WCBVXcSd6+oK+saCSuunOvLOnde8srxPOCfANZPw8mL5Bs1PxpIwAyZPgYAGiUQ5RaedwDgDSHEzwYHB69v5B+vYdHOnDlz6pgxY+4kIpkLpj3s9TWUlxFoXa32R1xpHCywapjRGi5hgcUCK2jZDGOBVfoM+Jc8xIKIfprL5R4LGq/q82Yk0fFEdDYi7khE2zTiCwhr/4QQp7799tu33HnnnbFFFKnyUCgnUwd8GhHlDbLcahfbQybdNmXF1evWrbvp1ltvbVpuqNmzZ2/Z1tY2gIi7EdGOjVgjQogHNm7ceMrixYv/GRvkOipOp9O7CCEO1jQtU0c1gZea8lpGWr5IRE+uXbv2tFY/yCadTt9NRHvK95TAAUZf4GnDMI5v1b8Lox9u82oMJbAOv/ye8W1a+/kIKE846QiWV+7cU+4tbcEiqHjLbb2Rr9yEVwSWKwasvi1ttubCyyu1PlfGUf6Xa7uj4mmDLsHmjL4K5uwnCW29dAi2yIWbHUlx5n3EofeWUq+1ocK5phdhzAJLUU4FRVRVFpdlkM6INaeoKhUt9aH8/GoAWoA7LvyvmojxRTURsERe/aKmCsJdJJOxvgwALw6FZPdlMplGtBmuhz6lU6nUToh4IwB8GgAa8Y3kLwzDSPf396+KZAARVsICK0KYVapigcUCK2ilDSeBZd6wyqibl4UQ8uY9Z26zCxpmXc+nUqlZmqadZW41bGiCZsMwjnz//ffvHxgYsB04UteAYrjYTNQ/HxFPiKH6QpVmpM0/EfHhfD5/WX9//3NxtRWmXjPH0/66rsttcjLqaGyY62ss+2spOFspEktK39133/3jRCSj8HercVxKl8mUEXJbHBH9OZvNFoNWhsljzpw5X9R1XUbm79PgLssotV9kMpmTG9zuqGsujMDC6VcsO1JHkCeqfdJzG57X9jCnCCq8Q1o5m9rEHkpVLKAaFeTMa1R8F3ZPZmxJ251yrUUSoJcZxiOvzA87B+c6osVCrg21bYOuSms9cdDrzSEmgRUUdVXqSkmsVpFPXq8r2wswKJm71/P4DBjiBNw589Koe8dswoDNMHq5ZeBXcTZPRHKLyN8RUX6DNK+vr+8vcbYXV91dXV3bapomkybPbkCOMPkauCSTyWTjGk+t9bLAqpVcuOtYYLHACloxw0Rgya3ibwPAnwDgKcMwftRoMd/V1bW7ruunDX0OycTMDUlEbf4du1AeZpDJZN4KmstmPT9r1qwp7e3tFyPirBj7UEjGLfMJaZp2R29vb6wHKdQyDjPy6KKhBPLy9MIptdQR4hqZOuEmIvpBNpv9V4jrYiva1dV1pK7r/4OI8uTG2B5EJN8HXtN1/aThmphc5lIbO3bsnYj42UZuUSaixw3DmNXf3/9CbBPEFasfW3r0ZffvCu36hQg4Uy2HlDV6pCgRXIEi5o10XbmNYpRX5V7XI9wsAsFejUUqFT9B3csxcHumRc74isJgeWWZnWIfvPrsnjzF/GLB2zNr4VxLtFh5aF6sa3sziEFgqcgrr8gsD4lVNTLLueZ8JFiZleV5hLUgaBFOyXyjNmx8VQgCmEwmp2maJrcNyjwhkT/Mb9zljct9hmFc09fX93jkjTS4QrnloL29PUlEMh9C3Inu7zEM48xWE34ssBqz6FhgscAKWmktLrCkuJK5fp4ioodzudyVQeOJ83n5hc2kSZO+CQAyGksm8Q7zRXvNXRNCHJdIJO5qRWkzZ86creWBCQDw9bhuxOXhJDLaxjCMS/r6+lomx6XXhM6YMWNie3v7CZqmfRcR96x50tUulJHolzzzzDO3LF++vOlCL51Oy6jIHdS6XlOptQDwqGEYF4yEvwVnzZo1vqOjQ/79fFhcrx0Pyh8Q0U3ZbFa+XvkREwGlD4Z9e+4c9+EJE87UZDJqIt2tWoIkhYq8spkTnxMHK2UqjqUWEWS/ebfV4BRBVeWVpc+q0WIVi1KY0qJjUJFXXn12SkL//GLKklBBuPn2W1W4OYYbvK3UNikl7Vl5SVhEjZ8krMq69hdXsMBaecb3QdMuUmvCS0w5XheVsESLaQwrr/yirpyvwVK9XnKLpOSYiTtm5bd1/IiJgBl99Sgi7hdTE/Lm5a6hD/dHstnsZTG10ZRqZSSWruvyD4hvDB1hv3lcnTBPZuxds2bN9wYGBuQ3ti3xYIHVmGlggcUCK2iltbDAkietPQQAv8tkMjcEjaORz6fT6dMB4GwimtIgiXV/Pp+XURNvNnKcQW3J9AGGYciItB/GFXFkJp/+7VAy/aszmczyoD61wvMyJ+jEiRMPM7nIJO+xPYhoqRDinFYQOjEKLPld5u+GDsNZbhjGuSPpJD0zEusmRDy6URKLiO42DOOkRkexxvYiaMGKlQTW9CuXfkYH+JFMGuh2Lc2UV/YbblIVQa5k4mY9DlllD2AxY348hJbyVsdydy3KrOY+q8irYoPNkVe1CrfKnLrya3lJwnqEW/0vyGCB9cYZPwDULqzelFXQ+URCeYor6/p3rocq9ViYVfoV1AfX86sAZS6s3Dn1Y+Qa/AjIfAe77bbbX+SpKnFQGro5yCHiua28daKecSeTyY9qmnYBAJwIAPLo9rgeTwshvp/L5aQMbIkHC6zGTAMLLBZYQSutBQWWzNl3hxBieS6Xuyao/816PpVKfW3o1EOZb3NyIySWEOKwtWvXLm2lXFhz587dh4guAYCjYpoHeVCLzKf000wm89eY2oirWi2VSh00dGjLpQAQ15d8hb4TkTwN8fvNZhSjwPptPp//r/7+/j8DgIhrwppV76xZs7Zpb2+/ERGPb0QfiEhuH5RbT3/WiPZGYxuBAmv6pb/dWusYfxaCONudJzxIXjkTiVtvuK2BRzVE2NjtkuJ2NrN9l/txJmn3ToBePZm4fWzW/ZJ2X2CRV8V3Rce6izaHlGefvURQufumqCv1qlbOXvnQHIhCbSsN1Wc70+IQnJwjebm/R0QnPbvgdN9wawo8hbDWqCsrTJU6wm4Z9KjfxZHuhY00E3fvk9vP+BEDAVNg/RURZdLSyB+ZTEbzOPY08naaWWFXV9dnEomEjC6bFmc/ZMj44ODgeYsWLZJRDU1/sMBqzBSwwGKBFbTSWkhgbSSi2+QBHdlsVt70t/yNajKZ/LqmaecBwHZBnOt9noh+tX79+q5mnrhnHUNXV9fOiURCjj1d79i8rh/aYr8KEf9H07Qre3t7n4+jjUbUmUqlDkFE+RkvD2+J5WGeyjh/zZo1lzcz0jougSWE+Hwul3t0OLwn1DrB5uupP+4TPIu3SoUE+IsymUyy1v7yddUJBAqso65YdpgGcB0A7e7SAjWKoOLkljoWk7wqLiDH6IOFW6FvNlNnjZaKrs8VBvZImfARbuUeh0qOH1kCdK/E+K4IN3e0mJq8Ko6t8ChMnWM+LXItnCSM5m2BAN6DmgVWUMSTY605RGJlsoOSsJfhmRXa11uFREA9nu3Tq0BwKe7UJ09940cMBOKOwMpkMoGfATEMq+FVJpPJ6ZqmySjiT8TY+CsAIL+hvSXGNpSrZoGljKqugiywWGAFLaAWEFhSVN0hTxPbsGHD5YsXL14T1OcWeh7T6fRFQwnmvx7nVnDLePfMZDJS5sTyracq1+nTp3fssMMOMwHgKgDYTPU61XLmoS1LzO1if1C9rhXL9fT0aP/85z+PJ6ILh4Tcx2Ps45NEdE42m10SYxtVq2aBVTv50rZTAOhtQG5U2dHb8/n8KSNpO2bt9KO/surNy/FXLd18UOA3keiHjZBXxVttu9AqfYbY2ndG9yhtw6tFXpk3/1WEm3efHb913fz75L6qJ4eUHVB5pXhtw3PEWJU6U7jGTwQVnvMaR02SMGROtBrlVbHPsf4NEryF0DMCS0VeqURVBZ1CWE/UlWU12Bi6BNitsGPfTMTm/rEX/Vtja9QoBdbUqVNlSPdH4ujRaBFYMunrmDFj/hMAZNLXMXGwNOu8LZ/PX9AKp8+wwIpxli1Vs8BigRW00popsMzTxO4lot4pU6a80NPT0/JRV06e6XR6MhEtQsTPDSXUbgviXc/zRDRv5cqVF9x1110b66mn3mu7urr20XX9x4h4UL11Oa83D255Vghxdi6Xuzfq+ptRXzKZ3EzTNJn8/wwA2CrGPsjtlj9o1lZCFlj1zexJJ5201fjx4+UaObe+mpSulhFtZ2Uymd8rleZCoQhUFVhHX/ngAUjiRgKwG22F7WF+ibmV8zGV758dusV56qCSvPLJx+QK6PGJFPKJFnNoKu/T+yrmpzwxRQ/kbNwZXxRCuFlcg/VLo7jllT2/ltkJF0Ln9kx/eWXHUl/kVbGuWOWVbKIGgaUophzrv7h4PKKnqsklr3XrimKrEpHlWqde7cOjoNNZOLmf36BDvfWqFWaBpcZJpZTMJSKEuAQR48olIrsht9N+N5PJLFLpU5xlWGDFSbdSNwssFlhBK61JAksKmFsQ8X/XrVv30DCLunIhTaVSRyJirgFbCd9Zv379bs3klUwmt0fEcxAxlpOeZX4eIpLy6pdBa3c4PT937tyPEJGMtD4uxmTd7xPRd9esWdM3MDCwqdF8WGDVT3zOnDl76rr+06HDKw6pv7aqNci/B3+cyWTkmuRHxAR8BdaxPXeOExM26wKg6+xtOsWKj/Sx3W+bEkpVBDlu3iuXueLAFERQfcnElYWbZWx+0WKVYQXJq/r6bPcO9vlxR7gVe1U18solMswVYYsYi0q42UWNdyJ3p9S0X+PLOeIXDxH8CzQ86dnrT/X9BquSAyvCqCuP15ZLbgXJq+pRVUVS5TI+kks+T7AWAH+KO/d9P2K8XJ1M2sQRWJGuA/NkK5nU/cORVmypjIhuHRwcvHDRokV/j6sNlXpZYKlQqr8MCywWWEGrqAkC6x4hxN2Dg4O/uPnmm18N6t9weT6ZTF6haZo8nXBcnH3euHHjTk3khnPmzPmCpmkDiLh11OOUJw4S0fVr1669sJWS1Uc1zmQy+VlN0+YBwOejqtNZDxE9LoQ4s6+vT0bYNPTBAqt+3F1dXWN0XZ+JiDL9icwDG8vDPKH6xmw2K0/D5kfEBHwF1pGX3/+JBOoy+uozlTZVJIUzwsYpr2Rt1pv5CHMbeeVjckWLme3bLZM157o5XB/pVvZBrvCt8rj8ZJBa5FUT5VUBjYIkNMtVSqqsC8s8e8gV/5xo9rUStKW0vLrij76S2u89IFBI4l44Qca2VbO4yDwjmrx/by1fXEi2dVp+jYYSUz59sK0DlT5CP2x66zTcvbkh9xG/N7ZEdSywop0GmcRT1/X5iNgZbc2WT0midxHx65lM5r/jakOlXhZYKpTqL8MCiwVW0CpqoMCS0SG3CSEWvPnmm39u9ja4IC5hn0+lUjsh4mNEtG2cpxLKbYTZbFZuMWr4dstTTjllt0QicQ0iTg/LJ6i8uXXwqXw+f2J/f//LQeWH6/OpVCopTwwEgF1iHMNFmzZtunrRokXvxtiGq2oWWNHQllFYMi8qIh4bTY3etRDRwmw22x1nG6O1bl+BNf3yBw9GFHdjeb+5iqRQyW1Uv7wq3l8rRDG5kombN+y1yqvy5RHJK6VE8/YIqmIX3L8rix2nHPISbpYyDhQ2eeIp3Ey5Yb/OprJsiddLL6xQfbZ4Fd+tqOWKFYVbPK9wxS2EdIldDDrWj20+faKdfA4WiDyZu02OWSaieh+fBKBzcadF98eDefTWyknco5/7VCr1DUSUNyexnWpFRNcODg7+qJknErLAin7teNXIAosFVtBKa4TAIqIliNhPRL/LZrPyQIkR+UilUt8FgItizmX49ooVK7ZftmxZvpEQzc/7I+S2TwBIxND2K0R0WjabvTuGulumyjlz5myt67qMrolzK+FLiDhn4cKFDzZy4CywoqEtE7pvvvnmSSK6IZoaWWDFydGrbk+Bdcil92/Z0aZ/cygxs9xqUToCrvQvsx5nbiPn6X2Vm98oTxws1xqYC0tFuDWmzxUn4BYX9mGo9FlFEtoMUE2n9xVqUMovVsuW0uC1USwREH2lGi0W36tKTWCRKEZgOV5B1hMWPaOxrOV9xVJEidqLE24h5RHh5ZWwv3jFOgC4Ane6yXy/iA/4aKuZI7Cin/Hu7u7tDMOQ33CfEH3t5quc6E0hxNy+vr5fx9VGUL0ssIIIRfM8CywWWEErKWaBtQEAfo6Il61ateqFZuTlCRp/lM+ffvrpWwwODv5j6HS+SQAQ2ym6K1asaGu0wEqlUlMRcQAA9omSmVnXIADct2LFiuMaPa4YxhJYZSqV2g8RrwGA/QIL11iAiK7WdX1eb2/vGzVWEfoyFlihkflekEwmP4eIVyHip6Kr1V4TR2DFRdbnzf/wKx7YNwF4Jxa+oVaRKv7bw+qSV66b6kaf3lfogHlH4rF5zSIV7IFPjqggl3ww67U5QBXOIROge0aqVcZUvc9O2VYUHK7fmhNsi8EKHeFm4VxGEySv7Nf4RovF99qRQN4GgTP+cONp9/k1QyvP+D4gXFReROWC1ii6KlFX5WH6lAnKU+V6DXnUU02OlV//AX0EuBqmLDqDTyOMdsGxwIqWZ6m2VColX5PfQsSJ8bRQ+ALgO2vWrOkdGBhYH1cb1eplgdUY6iywWGAFrbQYBdYKAFgg8yX19vaOmFxXQTzT6bT8UvDsoUgsPahsrc8LIXbI5XIra70+7HXys36XXXY5Utf1O8Neq1j+1Xw+f0R/f//ziuWHdbHOzk590qRJNwHAiTGeXPm2EOIruVzu4UbBYoEVHelZs2aN7+jokCdXXhZdrfaaWGDFRdZHYMnTB4HEI1Z55dIeNr9gvRkvdbb4O+8k3F7RNcUW7O5DYXuYS6rYI8PMXtgDXEotuW2Mpc+VEVccllOqOPrsIap8xUoDEqAX3UM4EeQ5Z0UqroMTS+uj2fKq2GcP4Rbf66ZYM8GLhiFSzy38mm8IMb115jwQ4nuVroQVV5Z1aDZqq6uafIoiH5Z/1JUtMhOAfguG+C/cbfFzcWMfTfXzFsJ4ZtvMM3I9Ih4eTwuF96S/AEB3Npt9JK42qtXLAqsx1FlgscAKWmkxCqzlAHBOJpPx/RItqG/D8fnZs2dv2d7eLqNe2uLqPyKev3Dhwovjqt9Z76xZs6Z0dHQ8AAC7Rd0mEW1CxHsymcyXoq67letLJpO7apq2GGy5nKPtMRH9uK2tbd6CBQv+L9qavWtjgRUt5VQqlUbEhdHWarlL4xxYcaF1h99O67l9wtjxW3dpCNdYjUVZBDnvp0uKxBF1UyjmvLku37s7ZIOlXPkZxe1hXrmwSrSqyiuPcVT6bHnSq8+VToYXbmYjXtLHXwTVmgDdOQ7bLHokFfeJcDOjcFw60SeCrMg/fLRYJdjPKt1q7XNsr5lyxYLgKQT6+rMLTn/CrzVa+e0FgHhqiYmJJmSidtdiVTshsNwpn+ipIMFle/06BaF18uVztKaQl2LnW66In/zoaYEjsGKbay2VSt2MiCfH1YI8gYaI5Lezv4qrjWr1ssBqDHUWWCywglZanAKLiM7OZrNLgvow0p5PpVJ/QMS94xoXEf0tm81+LK76rfX29PRoL7/88oG6rj8YR3L6obxXbw4ODn6qmTkZG8HRq42hxP99iPgfADA2pj6sJqLDs9ms731AlO2ywIqSJkAymTxI07TLAWDfaGs27/pYYMWBtVCna//4YfMf3L1dF78Eor3sucKtkSOl/qjkY7Jf59qEVoe8cm1pc5046O5zLcnE3VFMFkFTQTEsEqBb3JtDovjJK6+tgx55r1xO0sneoufsnSi7HYeqKgu2mvoc20vGWjHdnwc66083fO2Pfs3RG9++HwAPUc535cXGeVqhq4xDUAXVYRNTTjlmnbdSRUr1y0VxCe68+PyGoB8ljbDAim+i0+n07KFTmS5AxF3jaoWIrjIMY35/f/+bcbXhVy8LrMYQZ4HFAitopbHACiIU/vl0Oj0NAJaGv1LtCvkFRDabjSORuqsDs2bN2qa9vf1hRNxdrXfqpcyTB/82dCruHupXjZySXV1dm+u6fg8ixpYLCwDOEEJkc7nc2rjJscCKlrBM+K9p2jmIeEa0NbPAioOntU6XwDriRw/snUjgciAq7C33jwpSkVeWGpzb2cpPVY+wKd5rO6M/PKSKS16ZDdgubbE+W8Zmo2ANQApz4qANt1sg2VHYmSpzduVE80nmb1s8wfKqWNw28Nq2lMb9irHUT4TXAogfPbvg9Nf9mqWV334VEHYsDs0hgsoXeUkjZ/mwSdZ92gqKunK93pTklTkS8WOg9vNwl36ZVJYfERAwtxC+MHS61M4RVOeqIpPJxJYEN47+Rllnd3d3m2EYMvlxnMcobxRCTM/lcrHdaPkxYYEV5Wrxr4sFFgusoJXGAiuIUPjnzRxHsZ4S2KjPx3Q6PRkA5MmRWngSgVesFUIcnMvlngosOUILpFKp+xFRCs+4cqatz+fz+/f398eeQoMFVuSLFFOp1HeG8qH+OPKai+ltFmaz2e446h7tdboF1iVLPploR7mvviZ5Zb//rdyYq0VeuW/aazsJz6ynHnlVrsItVWy9dIgJdRFU6aOfJFSLFrP0pow7xj57RblFKdxKr0iTa7lqxS2ljXxBG0SnPffuW30w0LPJr11641sCCLE+eeXcrmeDVPwhSEzVJdBUBJssQ48A0Xm4y20NPVa4kXPe6LY4Aite4ul0+hdEdHwc2zYsPT+8GTlqWGDFu3ZKtbPAYoEVtNJYYAURqu35dDr9GgBI+RPLoxECq7Ozn+tLWwAAIABJREFUc+zEiRNziPjVOAYxdJjIqmw2u0UcdQ+XOufMmbOnruu/BICPxNVnwzAO7Ovre8y1tSXiBllgRQwUAGJ8f2aBFf10lWu0CawD5z282STc+G1ArJya5gh+ckuV6tE13nmwbPFGHjfgIbazBZ6CZ0b2OGRWWQFUDEkFc9kXuG/c7cVVopiKlblKWqt2FYgqf1RRblXts0ts+Jw2GHgaZcjotmLXnGn7bXm5Kl2zKT7viLwYXyT+VeOMP9xw6q3VmqaV37LNtLnYLf/xiZRSkVK2MjVGXFUVW1Yx5tdPm1zbCATfx11v5TxYEa1HTuIeEUifatLp9BxzG+FOcbVERJnBwcGeRucfYYEV14za62WBxQIraKXFeIO0fLTmwJLM586deyYRXRnEv9bnGyGw5Ba3RCLxXq19DLhOEFGWI0AA0un0U0T0ybi+rCKi5YODg8fF/TnPAiv6V0oymTxN0zQZgRV5njSOwIp+vko12gTWURcv2QnGaMuAaGd7zp7S/bbHvbipRyoBIPboH7X8USoiyEes2ASWynY205zYglacEUveSdPDy6sWzx/lJa+qnDZYIVe2T+Y6qlW4uexo+csL38irZpw26PH6IwBBAmb+8cbTbvN7eVIPaND9LcMVfeUlTQPzXNnpV6yoirjyuLb8qyAxFfS8o26E83DnWy+N7y1rdNXMEVjxzvf06dM7tt9++98gyjx18T0Q8cCFCxc+Gl8L7ppZYDWGNgssFlhBK40FVhCh2p7v7OycNGnSpFW1XR18VSMEViqV+gIixhW1Pqhp2ua9vb3rgkc7skuYr8EfAMCH4hppPp/fo7+///m46pf1ssCKnm4qlToWEecDQOSHNrDAin6+SjXaBNYRP146VTfoBS95Ve1UOT95Vby1dcohR/SV6tYwcm1CLEfilGt0+ZDwws2vz7aqa+6zM/m5O79X2Ai3SoqsKpw9RFXxVw5gVU4btGsKuygs9NkOqLxi/cWmQ3xY+ugnCr37HN+Lo2rNBG8QUPezC07/tV85euXre0Gb9qfi89a1GFXUlZWhdf6rSKdSZ73mvjJrlvks1eWo00/CEV0E65+7GPf6s++2yibN2LBslgVW/NOWTqfvIqIj4vpm1hzBQZn/z96ZwMlRlP3/eXp2c5CQcKvcECJHuF7h9QIERDn0j4K6qISE3Z1mgYC8ICCioOvLKaIo+ALuTs8uCQnKCsqh4VCJyA0RRBGBcAkJBEHZHCTZnennvzXdM31PVfd0zc7sVn8+7yuZrnrqqV9V905956mncjm2SPG/dKV1UAEsadJ6DCuApQAWb6YpgMVTKNl9++/jcLLa/FqmaU6TmZhbdoQ1Ea02DGMav6fjo4Su688BAEuULyv358mFQmF+f7+8PLAKYKU/V0dSSexNRBch4ufStq4AVtqKOva8AOvyP8zKZMhacPuARJCB2NgoAlwEtofVAii48Mp22MNwROCVHyyEbWnzAzevOJFQpYrPjoUQEBSifemjMGBQ6aIfXllGHMm9ayZxn0OAmw9WJQFuPkWD2wYrGjh+NxS8sgakd8Nw8ZJnjdNZ4s3Qi5Z/7SeAcIYYvBLIc+WdCK6HVASOJS0TBa78E7UCuu4Bky7AGb94XN5ra/xYVgBL/lhns9n/Q8S5ADBVYmvdhULhJ/39/dKiBfy+K4AlcTRdphXAUgCLN9MUwOIplOy+DYDWIuKEZBaq1zJNc0Y+n39Jhm1mc86cOVMmTpy4RpZ90zT78vl8pyz7zWZX1/VHAWA/WcnciWgFIn4ol8utlKWNAljpK6vr+vvsVBKnpm1dAay0FXXsVQDWUVf/diJtmHyCBmZuNOCVtTYP+XE6DARxT8KLmY8pDAS5IIqXHQlAFVGfXQxALGF7EFRxt2imGS0WciKiN/rKpU1S4Faem/5k8Q2ydbDsXpGo66/Xn9pb7dGk5V97B5A28yUhs6sIRjSF6BGaEJ6XxD0Av0IAVFRUVckHEcDGDOC7gHQ27vjzvLzX1vixzL6gz5w58+9ElPrx2kzFemyRaPTRymazByAie5ZlHjP+aqFQOFL29gK31gpg1WfmKYClABZvpimAxVMo2X12EuG0adOeQMR9k1moXgsRP9zb2yvtx7iOjo7PZzKZX8vwndksFovb9/X1sUT36rKSdR8PAOwHq01kCTI8PLzLDTfc8KIs+wpgpa/s7Nmzp02ePJltLz07besKYKWtqGOvArAOu/R3m09o1W5Fok84t1PIbSQQeVVZSvshhSgI8kWBuZr0wAKveS8MijolsTq88kOAZAnQxeCVqy0OcPN4JQKCRKPFAt0l3y5EO7ZKFF45A18aJ6eaACSU90yIWF5VJJr31+tPXRhVmJ5pmwCbvm8NELRGn0AocHpgSRgf7Ko0Wp4IvPv+gfODYh6c4t33+Yh0Ju70i5+ICKnKVFfABlgvUCkvYfqXAliWptls9gGWpyp9hR2Lpmnum8/n/yKzDbdtBbDqo7QCWApg8WaaAlg8hRLf17LZ7PcR8ZzEFqpUJKKDDcO4X4Zt++/OM4i4hyT7lMvlNEm2m9asLABUFoSITnrqqaduWLp0qZStrbL8N03zoHw+z/J0mk07uAkdb2trmzB9+vQLRpjvhQlNRFZTACttRR17FYD16e/fs3ULtryKQC2VBzEQccOPsAluD/N9EqRL9la3YPRVMCJLMIeUD2ix/lSHV6USjip+6Bbmc8hnpW17gW7wtuHFhISx4JW3XzVFuPkkCuZESx9eWeMWnBfyHgcxy0TwKwL6ztPXn2rntwrWo9dOPwQycC+Q8zxJSebOhVv+gUsa+VUFkgWB5Tfg1ZVX4aFLCmKKqlJRCqgthPWZG9ls9k82wJKVGwNM0/zk6tWr7x8YGCjWo1cKYNVD5VJS3Z8T0bGStjEdk8vlbqtPT+K10t7evmMmk7kQUQEsnnIKYPEUSnwfOzs7j9E07dbEFqpUlA2wdF2X+QV3RS6X20aGLs1sM5vNMmjIknVLgXumaf7j7bff/vDtt9++WoZOCmDJULX0d/zbAHBx2tYVwEpb0QiA1YqZ5enCK2vx7OVJ3ve1xYFC3uGBqCAeCLJbCoFX3ib8oIqTaF4YuFn+BXpXAU6Osl5WVqcE6KkBN9eY+sBFkgg3D17x+Rg5N+Q9D1zLpdMHic56+vpTr65WmFacdg8QO9mMtEDeZh50CjwTEfCoYod33zX3Kk4LRFVVJrSIfc/M7wETL8Zdfq5C17kzqnoBG2A9CwC71GgqtLqKwLJkyWaztyHiUQAsYlLORUQ/Wbdu3fcWLVok68h0j+MKYMkZR79VBbAUwOLNNAWweAolv9/Z2bmrpmlSTn6TCbBOPPHEGa2trcuS97x6TdM0L8rn82xblLpcCtgRe/8DABNlCWOf/Dgow74CWDJULQGsb418/7skbesKYKWtqGPP/rWZ8IjL79s7o9FTpbVzSK6j8iI8cTLxkuGk8Mpb14718QVNBUhRJapqdHzmA7eK1sEIlsik7ZW+l8fQBX28Zhytrf77IWGSaDHX7Ijls69tAZ+t6SLzx6lkDxUBPFMEPO9v1538mygLdN8hLTBz1r8AYZP4UVciWwbd4xkClwLjnaBMyPh6H7gIqGXNs+eB4CyccfNvk6msapUVsAEWOzlnZxmqKIBlqarr+plE9C1E3FKGzrbN14noQMMwIg9+SLNtBbDSVDPalgJYCmDxZpoCWDyFkt/v6uqabpqmlMMxZAKsbDZ7LSKmnjS6sjQgmmkYhjRAlnzERrcmA4ctLS1/RkRppzMS0V6GYUTu0KhFAQWwalGv6t9xBbDkSCvNaglgzeq+ecL2kzc/CxEuD24NcxbLwiCoUsUVfdWM8MqiKBXxIyOCRKPF3NyhDApjgCCrugscuOpGwitfH5zO+LN+JQFu/LmRBLg506exAJY1zPR9Wrvm4qcXnLs26qmkFad8EShzAwBMcaCPQMRT4sgs95wIgkrHTwEfQpO1+2BVKNxyT24qAOHJOONmlci9xle32kJYo4CC1U888cRZra2tbBvKBwWrJCrGkvHXa1GhAFaiIYpdSQEsBbB4k0YBLJ5Cye83K8DSdf0dANgsec+r11y2bFnrkiUqjUOYSiPP439kJnInou8bhsGASOr5pBTAkvPEqAgsObrKtFoCWId03zd1o43MJQC0XzBYx0YQnnWxF6JEJUB3cSxPBJA4CAqLvLKt2i6IRYu5Ftf+emV1OVFBtflcadQFw/yf+XUOgiouvAqBVWJ5r2LAKw+Eq+6zELwK8zkKusl8EgRsE8FfqWhe8HTvvNurFaflpy0FIHYqjrXHPjGY8ogdYcc9j6pGRbmz5Lvc58GpKDgW0Va5r0gn4c6/zAnIqopUUUABrPpMj66urtZisfg4Iu4js8Xh4eE9b7jhhmdktlG2rQBWPVRWObBUDiz+PFMAi69R0hJNDLCGJG5ZN5ctWzZRAazwWZXNZl8BgO0RUVbOy38uW7Zshgz9FcBK+qaoXk8BLDm6yrRaeng/dfm90ycgvkUIE3wJq4Lrb18EUFx4Za3nQyJrhE4ctBf0HrYTnkMqNB9TPeCVK4LFA3D8PscAQVbRINBKlF8s4YmDUaBQOCrPFbXjZaHeuRAJCmU+BQK2iWCI0Lx6w4bV//tc/rzI5Iz0xumHgGkOAMAW3oenClwKjWiKAkc+qMXLUxUaURVlI+RzqxMR8KsKYCM6A959+XrcX85JLAJDNiaKKIBVv2HUdf1JAJByHHu5F0T01VWrVt06MDDAFi9SLwWwpMpbMa4isFQEFm+mKYDFUyj5/WYEWJ2dnTvbebuk5FwkohdefPHFPWQAlOQj1Tg1dV1nOyROkJXInfVUVgScAlhy5pECWHJ0lWm1ArBaNXw3DF5ZwKny9dvxpbKm9YMVX9yNyNbBhPDK8i0IBmo6cbCyJnf1wxWd5RYg/omDlnGvOX8UkwsKJARuThd8oDAhvOJvK+VEi4Vp6p1YJVkbFV7Zvv2BioVvPd1z+qPVHkhaftptAOaRADjBeXA40UpO723TMaKeApOQF1Hlml/ldqsBNKHosTCb9FMobrgcd72zcjCEzBfZWLWtAFb9RrYeAMs0zZtaWlpO7enpkZLg1a2WAlj1mTsKYCmAxZtpCmDxFEp+v0kB1rmIeBkiZpL3PLomEf3IMIxzZWxhk+FvvW12dnYermkay2PbIqvtwcHBjQcGBtakbV8BrLQVtewpgCVHV5lWSwDr8B88uFWG1q10AJazCK4NXnkXtlGAIhiRFWNLW8jiO1WfpcIrR59on/0QylWnPDNCfAxoKgQJK8TMNef8wM3vc9A/blRexYRrnpU+89mSOfPj2V4OJlz61M9OubZaNXqj61AwW24EoK2Dz1IQJjq2QgBXYEx5ZXj3vc9i8MhMHmTj3Q/YfxyIzsJdbn0wntSqtFsBBbDqNx90Xf89AHxC5pdaAFhZKBT27e/vf1N2zxTAkq1w5Yvvz4noWEScIKHFY3K53G0S7NZssr29fcdMJnOh2kLIl1IBLL5GSUs0I8DKZrNPAMCHZG1hKxaLh/X19f0hqaZjvV5bW9vU6dOn/1viFk4wTfOT+Xz+vrS1VAArbUUrf8dVEnc50kqzygAWHv79uz+Vgcw9Vit8eGWV8kfduCKWyu6mmQA9wEnCtzXVtKVNBATZoMXrThLg5midJnCz3fOdOpjWiYMiPqcE3KRN+diGC0Rwa1ErnvO3a097rVptWjFvAIiOBiofz1vWIkZElTOAdlOxwVHCXFfeZ98BXH6o6IacEb5ZWw7XAEI7zrjlltiKqwoVBRTAqt9k0HX9p0TUjohTZLZqmuY2+Xx+hcw2mG0FsGQrXPniqwBW+lLfm8vlDk/f7OhYVABLnu7NCLBYAnci2lQWwAKA9+dyuZXyVG9+y7L+PjrLX+o1DKMrbaUUwEpb0crfcQWw5EgrzSpCd7d25EYHXo0Ep1mt2CAqbFtRZe0qAikEomtEt7SFwSvPejumz66+ebsZwFLBqCDREwdr9DmAA11wrarPYZE7/jRhgTxdtpgen6Mjr7yMxQEaSSKvLFt+SCJtvicwTH8cLphnPtN72lPVKtOKU08Bwm4gep/7OXID4VSSuYeNr+u5DYui9PggkhMrdNtgDAhX9hFhNs64dVEC0VUVWwEFsOo3FXRdnwsAVwLAljJbVQBLprr1t622EKothLxZpwAWT6Hk95sRYMk+BU/TtE3qsU09+aiNfk3ZAItFW+dyufen3VMFsNJWVAEsOYrKt4qHdHe3TJ584HMAsHNDwisPqHJFfvkAW02RV14i4+AAP1ipAq9c6M/LL9zRaj5A5DTrhgPl6sHPPHFvAZARkUMqZeAWDa8CA+XA0PI8FvVZ/rwXaoGIntSKdNaTvfP+WBVevXrqppCBWwCIbT9y5TQoj2FUEvQoKOTTskylqsGrMODsSWon4ENiuOXy1+2jAlhC86xaIQWwapZQ2EBnZ+c+iHgHIm4nXClBwWKxuH1fX1/VaM4EZgNVZH1B1zTtoz09PY+r/CqVL74qAiuNCeu1oSKwxDRdSkTnGYbBtj+Py0sBrOCwK4DFfxR0XWcRalvxSyYuQblczjqJPMVLAawUxXSZUjmw5Ogq0yoe0n1fy6RJxXWIVEpmVz0BukjklWsxG+fEQf92w1KvgycMBhmIf3ucExFkWUjgc1CIkjCBOKGAz962Pe2nCa9C/LN0CUYyBZLcB1wMhGc5moVAkQAoFE3mH8NnmRNe1DYR/IPQPK+1mFm8tOfk4Wr16LVTrwakdgDY2ClXFto9JhH/LZQo3T+2MeBY2mCq/GxWOuueVG4/zZPh3df61EmEorMuWE4BrOTaxa3Z1dW1kWmafwGAXeLWjVOeiI5atWrVvQMDA8U49eKWVQArrmLJyqsILBWBxZs5KgKLp1Dy+80GsLLZLPv7shQRpyXvdfWaCmDxldV1fTEAHMkvmbxELpcr5ZlO81IAK001HVsKYMnRVabVEsCaPLlQWaA3RjJx1uUGh1eBbXhJ4JXdT8//cCKvKmWdclHwKgDdUgFuLmcrwxTus6ekyGmUMmd6HNsEb5gE31+1YeLPXunvWF+tKi0/+ctAcAkAzrDK+YGpCzRVDEUBnxDAFRl15X5GqkCyEHAa8JMH0Lj3/f2u9PkKAPwh7vKrt+LIr8o6CiiAVd/ZkM1mn0fEmZJb/cHy5csvXLx48QaZ7SiAJVNdzxdfFYGVvtQqAktMUxWB1dU13TTNd8XkileKiA42DOP+eLWql7a3ql8HABulabdsi4gok8lsqrYQVle3s7Pzm5qmXSZjDMo2FcCSqW66thXASlfPeljzAKzUk4mX1rXeBX06Jw46C+Y0fXZYgRcIBAObRJK2807vq/y5qTCPJNFilsTByKtgxJjf5yBwq8SrRUaL+UBFyaQf2LjGxvmL6pnLkcCtHjOe0wYBLAfSzl+7ev1tyxaesapacXql6wPQol0PAEdZp5m4QV4VcBV4LkQis3zaVwCqCLyKW8bVVmJ4xSameTcU4Fzc/ba/NsDQNqULCmDVd9jqAbCI6PdDQ0OfX7BgwVqZvVMAS6a6jm0VgaUisHgzTUVg8RRKfr/ZIrB0Xb+KiOZJOrWUCfmyaZr75PP51clVHfs129vbj2xpaWFRWNKuwcHBjQYGBtal2YCKwEpTTc/fcZXEXY600qzifj97onWrd/8zlCYIqix/JcMrhwN4I4Csf/mjgnyfBiJbyqwtGEHjQ3Au4FQeF7FosUrpikEHIomBID/ESAqvbDs+UBWUxNYsKorHD7BcBrxddAw0OrwyzcLxqze8/dgr/d1VI69KCr5+8v8BQCcATuInaw+DWyFQynl4XA99CIDyz6G4+a54YMp5uAInWjqPlx+cBvx8FQjaceavl0h7g41xwwpg1XeA6wSwVq5fv/6DCxcurArIa+25Ali1KihWXwEsBbB4M0UBLJ5Cye83IcC6CwAOA4BS2hYJ1x83bNjwWdk/kEjwu64mdV3fCQBektkoEX3IMIwn02xDAaw01XRsqQgsObrKtIpHXH7XPggZ+4Q1P/TxRdi4Fs1ephFAPLFO73OW8RH5mPzrZM9JiQl8DoNXngW7I3nD5JASBW4sJsoPnBxOZndMHLgJ50QTgFeWxIHBlDm/xWwzeoj0xroNhf9+bvX9K0EgNw29fgo7rWweAE12zRYXxyr3MwpcObPequ8epBBgVS5TK7iKzIfl86cyTlHwrIqPFVNkAtCxOPP228UGQpXyK6AAVn3nRD0AFkt+rmnaZrK3eCiAVZ+5owCWAli8maYAFk+h5PebEGC9SkTbIWLq+ZFsFW8cHBzsSjvyJ/kINWxNTdd1qXkoiWiuYRgL0lRAAaw01VQAS46a9bGKR1x6zxzUcH4wYinF7WGiCdB9bKMSlRQSARSWTNxaNweBVqAnovmYPH6LbBuMPiXRy8dcEUl+MCUKgkKBm+VjGFx0tegvYJUP0TjKZ6sNv87Wv718RQBs1meeR7bChhgR/7HmlQ3/tWzxGUI5aei1U74BSOcBwKYAYH0J4UU08e5HjWfFc94pgrz7Aj464Mmllw/EBSaLD2QFAJt5DM6847ZRHuambZ4BrBkzZryAiDvK6ISMHA0y/KyXzToBLKhHkl0FsOozaxTAUgCLN9MUwOIplPx+EwKs1wFgm+Q95ta8aPny5ZfIzrHI9aIJCui6LvsX9ctzudz5aUqhAFaaajq2VASWHF1lWsUjLr/7WgQ81btODpCkCpqIAhTWujb4LghE3NRw2mCwCTdUSs/nJPmjYsE2F+kJ1vNtJkwE2+wGPDCrxtMGw3x2DUgYNCvPqai5IXNi82yXwBWAaVLhiKd/drrwEdT02sknjCCrbgCYwYVWngkbEbEUeGZ4QMg1ECL2RSKuhKCUUMRVGPhSAIs3GavcVxFYNYiXoKoCWHzRNE37aE9Pz+MskoxfeuyXUABLASzeLFcAi6dQ8vsKYHm1I6IzM5nMtT09PVVPz06u+NipKRtgmaa5IJ/Pz01TMQWw0lRTASw5atbHKh7x/d/dj2QeVGpOOCm3bxGdOJG4A1qc7sZIfl6Dz5FQJRAtxo+8EoNXLs1sFhAGrzzK+sCCuM8OTPTERXmCpipOBKBDVD40yzc/KPRHXjV21BUBmUC4FoCe+ss7mx8KA8cJhRATtWXgn5scChmNwasDaoZXPGgUnAj2OIUBLhE4lrBMrYANSAGsGt7lCmDVIF6CqrquP0dEMyVu7yh5pSKwEgxOg1ZRAEsBLN7UVACLp1Dy+wpgebUrFotzXn755Z8vWbKkkFzV8VFTNsACgD/mcrlD0lRTAaw01VQAS46a9bGKR1527+uAtI0TqOGhHNzIq8o6mxt9xQdBFUDiDeex2FrIZ87nCXwOAAS7dX8Qmd2w83GN+aP88MoR0OpnedxD/BM7bdC2EgnJXBiqqs5+TaO3lDo+Nyq8QiIwh4BgkBBeWl/Ujn6+5+S3RR8xeuGoibDRjkeAaV4ISPv7BikIlnjbBXnwyjsJgvZDo6rCwJZnRtXoZwgAq9oP+6HV6Au4y52/EtValfMqYG8h/DsizpShjdpC6FVV1/WHiOjDiJiRoXfZpgJYMtWtr20FsBTA4s04BbB4CiW/rwCWV7tCofDZtWvX3j0gkMs1uepjo2YdANayXC6X6nc3BbDkzD21hVCOrjKt4pHfv6cAJmR8cTQ2SQl8GtgmaK1h/dTH+iwM+kSDIBuQVAVVvgV50lxMEfAqkD/K/iAJvPLK4oVBifJHhfkcllvM1YnK6Pk0DZqyS0ZoXy0yLwq4Rc4LmbPZbdsS2QSklQCliKuHcEPhW0/mv7Yijgu0omsjKNBxgPgdAGCnloQDpcrHIaDHky/M/6yIgCdeGff8Cms/+Nx4k57x4BSvfT8oc0FeNOfB4Js34P5L34ujuyprKaAisOo7E7LZ7N2IeCgAtMpsWQEsmerW17YCWApg8WacAlg8hZLfVwDLq12xWDxshx12WNLd3a22eHOmVR0A1uu5XG675LM7WFMBrDTVdGwpgCVHV5lW8cjL7rF5hheyWI2mlI8pkPdKJB+TsygW2tLmIilRUKVikQvc7JISckgFQaHvkxBQZbkbBB/BboREufmigaLgVakFr3DlKRCybdA1No6onnla19MG2cGLWHJzCABYZNV/EKFIBO8Wi8Vv/633tIeSPET0Ytd0mKTNGUmV9R0wYUvHBg/4uMfLLhsQPo4NZz5WBqXiTFx4xQFckX6K9CPUz4uB1vwEd10iHPGWZKzGah0FsOo7srqu30JE/w8RJ8hsubW1dbPrrrvuPzLbUEncZarr+eL7cyI6VtKcOSaXyzXkIRjt7e07ZjKZCxEVwOLNNAWweAolv68AVkC7T+RyuQdVjkL+nJINsIjoHcMwtuB7Il5CASxxreKUVAArjlqNUbYEsIJ5jXyAwks3Sp5HRtj4rY0WvKrFZ24UU/zTBsv8KSz6qkwQie10I1iHgCvYi48lGWfdsH5GEQFYZiWtrlM6CAu9U88paVb+0/XDjVluOQxwurc8+v2r448/hARIBQJ8zQS85a0pq+5deeW5a5M+YkTdGry64n3Qgu1AdKljJwL+cLcMBsfOYzMMHHrGm3fCYNR917ypCaCJwKvg1lpr2lIPaOZFOHMxO3lHXTEVUAArpmA1Fs9ms/MRsQ0AJtVoqmp1ItrRMIxXZbahAJZMdR3bKgJLASzeTFMAi6dQ8vsKYHm1Q8QDent7H1EAiz+nZAMsRFzT29u7Md8T8RIKYIlrFaekAlhx1GqMsnjEZXd7V9euhW5UJJMwvLIWsNY61vX/PTuqHLLjUsQu7fHMvYiOBkhp+mz57W036rNKD8NgRMVEAAIVCOhpBHibcSIkGAak12gYfvXouveWQM/J6hSROj8npS2DpvlRAPwiEM5zmk8DXoXYqBWMLlI2AAAgAElEQVRe8eCZ6xm0+hLlQxRk48Ez22ZUPxBuAw3PxRl3vlDnoRwTzSmAVd9h1HX9ZwAwBwAmS255/1wut1RmGwpgyVRXASwVgSU+vxTAEtcqbkkFsLyKEdHBhmE8oAAWfybJBlgAsCaXyymAxR+KUS+hANaoD0FsB7wASwBeWeth/2LXn/Oq7Ie1+I2OBop/4qAHIFXW4x485snf5RSJ57Oz1PdGloidOBiMVirXI4AhILofAVabBOtRoysf+cGcP8ceOVUhVQWIAOFlfSuYoH0BAM4Dgh0igU8AComAIR84qhVclWFUILLK5wsPcPEis6re9+e/C4Nj9BCQeSrudtfTqQ7YODGmAFZ9BzqbzV6LiO11AFiHjpxOtERm7xTAkqmuAlgKYInPLwWwxLWKW1IBLK9iiHjkNttsc6/KgcWfSXUAWG/ncjlX+hG+T7wSKgKLp1Cy+wpgJdNtNGs5AKvR4ZW9Lg9udxSBV37AUB24eUp7tkAGo7GCkVeu2uXiJafNZwjwWUB4Z8O69Rc9+dNsrGTiozlJxnrbpVMGJ297HBDuBQDnOv1NGHUVAFwS4FVlXkb5GAHVyuCrcjuifoU88+5z2iH4B4A5F3e96/GxPo9k9E8BLBmqRtvUdf1qANDrALAOz+VyvwvZG55ahxXASk3KqobUFkK1hZA30xTA4imU/L4CWF7tWD6+VatW3aFOIeTPqToALJXEnT8MDVFCAayGGIZYTlgASxReBRbmVlvBiCx/MvGIpO2eoCgbRIV8Vl5z+1BVJdLKG8zijbSqKQG6J3wsOlrMK4sDuRi1AqIHCOF50zR/s/4tuvfpBXMT52aKNbKqMFeBUtTV66ccD0jvA4QrwKRMVXjFi1aqCoXc8DMuFPJBotCoKnfUXxX7IuAqUMYfvSiwrbDsI8I/oWh+BXe/62HugKgCAQUUwKrvpOjs7PyJpmkMYG0ks2WWKN4wjN8qgCVT5frYVgBLASzeTFMAi6dQ8vsKYHm1M03zhJdeeukXS5YsKSRXdXzUrAPA+kcul9s9TTVVBFaaajq2FMCSo6tMq3jEpSwHVgANuY+kK/OjwGc2vfKlF08Or0JBkGvtHpkAPXRRHpVo3r+t0a4cCK4K2ToYAdcCp/dZjj5CREtNkxY+Om2bJ6D7UPXHROZMjmGbqC0DyzfXAcypAHABEGxSFVx5J2Z4HqlAGTd0EgA+Plga6U+1rYc1ATbPg+bqY1T0mLt/vv/2bjFeCURfxN0Ws1Nx1BVTAQWwYgpWY3Fd138KAJ11iMBip8vdrgBWjQPWANUVwFIAizcNFcDiKZT8vgJYXu1M0+z6y1/+0r906VKVQ5czrWQDLCJ6wDCMg5LP7mBNBbDSVNOxpQCWHF1lWg0HWL4cV9a62B+FEbENz3/qYMCWyDY8dzSJ1f0gvHJ9Gli4xzglMXDioL0Y97jg99m5GYRX9BYB/V5D7F3+1tDDr/R3rJc5gMq2uAK08tS9Ydj8FBBOA6SzAWgKsCisyhW1Ha/GiKZq0Mme3Q4FTupDXB/tee7ue1U/E0O4dwGLn8cP3nO/+EipkmUFFMCq71zIZrPXI+Jc2QDLNM3P5/P5OxTAqu/4ymhNASwFsHjzSgEsnkLJ7yuAFQBYZ7e0tFzT09OjANYoAyxEHOjt7T0u+exWACtN7arZUgCrXkqn1w4eceldXvyTJrzyZnAPPdEv4el9XqSV2Gd/tJhrUV9hVmLwyt4ueB+AtqhQMJc8ftXsl9IbJmUpiQJEoMGbp+wPJh4KprkpIOwJAIc624PK4y8CjUKAT+Uj3pZA3v0I21XhlnuuxoVXIeWrRW/xEsGXXInUcC0Q/D/c/S6pCauTzI9mqKMAVn1HKZvN9iHiVwBgksyWWaLd3t7eexTAkqlyfWwrgKUAFm+mKYDFUyj5fQWwAtr9cPLkyd++5pprNiRXdXzUlB2BBQDX5HK5M9JUU0VgpammY0sBLDm6yrRaAljewAtXdFFgYWq7QoFU6p4FrMdCJAhyFuBe/uQFRsGk7a56IQChpmixchiMP/rKE3xm/cMtGgGsRILfmFToeeTKuY/KHDBlO1yB0rbAf225JRS0TwKYH4IiTQAADRD2ADD3B8CN3edhOgMoAq9EyoRAqGpQSGTLYC3gyDOXawBovGTxkf0o60FrwMSjFcBK9uQqgJVMt6S1stnsLwHgaERk7w9pl2man8zn8/dJa4Blotf1IQBoTbsNTdM+2tPTww5lMNO23Yz2FMBSAIs3bxXA4imU/H4TAqzXAGAbAHf0f/L+h9S8deXKlXPuuOOO91K1OgaNyQZYRHSmYRg/SVM6BbDSVNOxpQCWHF1lWsXD7QgsdyL3coPB5OwxTu8TTIBeE7zykiS7Cx7aZHUlDLgFtg76I63sbYtceIVPEtBPTLNw/2NXzn25lsEqJRV/4+zNIUOfAYIDAcCVVLwWyw1St6Rl1JrH/rz0PyFjWOpCWN1KWQ0ApgPALCDaGYBanF77AE7ImFba5EGnintxop6i2vf3001OOfY9cz9mRJUQ3LI7WmtkFtA7AHAs7nr3nxpkFjaVGwpg1Xe4dF2/FwAOAQDX+yN9HwqFwof7+/ulnsypAFb64xZmUQEsBbB4M00BLJ5Cye83IcD6MwDsU/qBVc71+ODg4CcHBgbWyDE/dqzKBlgAwE4bZt8pUrsUwEpNSo8hBbDk6CrTqgWwAovUiBxSQiDIvfC1XC81UBUE+aBFWFp5l49hEWPObR8USOhzJeuWt7FK4E7JLNLjZhHOfmfo7ceXXXNGonBdeuFr02DahG8D0Q5AiIC0EQCyUyt2kvgHTuacctmOAWQiQYkbLFYBPokjmmL46IFG5W7y4BTvvm/ucyOaynyvbFcGvBLId8WLDquMJy0HguNw93seqtOkG1PNKIBV3+HMZrOPI+KHZL97C4XCTv39/a/I7J0CWDLVdWwrgKUAFm+mKYDFUyj5/SYEWAMAcIysH0mIaOX69es/uHDhwlXJVR37Nbu6ulpN02RRytKuYrG4fV9fH4u4S+1SACs1KT2GFMCSo6tMq3j4pXebQKYrkXV0AvRgRFZEDik3E4iAV14W4KkQPBORA68cW0HAEcw9z/c5Cl65fC6OHIP+hGnSaY/+cPbSuANE1K3Bm2vOBaQDAGgiAHwUAKfFtdPY5aPAUwLgUjUqqkr+JTc15QKXOBFVIdDJ81GYrRSgkPehCZ4UGAKiveRYwIdQgBYTwrm1JloGGs7GXe9+rLHna2N6pwBWfcdF1/VniWhXRPT8TUzbCyLa3DCMf6dt121PASyZ6jq2FcBSAIs30xTA4imU/H6zAaxsNnspIn4dANh3fxlXQdO0LXp6egZlGB8rNkfyXe6AiFJ/RNp2221bu7u7Uz2BXgEsOTNQASw5usq0iodfctc7ALRZuRFrDewHQWHb8ERAEDMVDgYCp/e5AEDwxEHLRljkVeXzNH2OiIKxmygCwOM0XOx6+KoT/hpncErgauWqHgDYGQBnAdCWAHIXSnH8S6dsjIgmX3Sb1X4YLKkCl4RthNgOnetJAVuEfZHIMJGoq4CvvgisqpBPBCZGgcAY4xnmI9ETYMJJOOvep9KZX+PLCgNYM2bMeAERd5TR81wuJxXUyPBZps1sNvs8Is6U2QazrWnaJrIXGApgyR5Fy74CWApg8WaaAlg8hZLfbzaApev6F4hoPiJOSd7r6jXr8fdFlu/1sqvr+qcBgB2kIu2S8f1KASw5w6UAlhxdZVrFT1+y+E8IpXxL8XJIuYBRBS/5uBd/66A38sryIfiZ51PfQj114BZI5G73zuJ1Q4iwpDCMX3vsR195XnRgSrmtVn79Z/a+d3YS3uSxB658AIcb8RQFfFyfe8baP7k4EVNhMKUyYGFQJsJeAIwmjUYSsS9SJkQ3HryqFfKJALZIH2gxDA1/Hfde8g/R50WVcxSwI7CeBYBdZOgi4wuWDD/rZVMBLL7SKom7VyMFsBTA4j01CmDxFEp+v9kAVkdHx3aZTIb9+M1ytkq5FMDiy6rr+mkA8FN+yeQlZHy/UgAr+XhUq6kAlhxdZVrFT1/82+sQ8RRxEOSN1PDERnnYkzvqw1l0x4u8CiCtQHSYWKJ5bw4ucZ/t9q0KRQD6axHMox+94oTXRQeFVp79BSA4FQA+BlDKbzUGIx780JEDl3jApTJdfFFGJdHjboMLAT48+4H7IjZCygT66SvDg3yl4jwtefcjfK9MYI6evPZ5PiLcAMXid3GPP7wq+syoco4CagthfWeDAlh8vRXA8mqkAJYCWLynRgEsnkLJ7zcbwGpra8tMmzbtbUTcJHmvq9dUAIuvrK7rOQDI8ksmL6EAVnLt6l1TAax6K157e3jYRXdmNS2TE9s2GAav/FDB+rd37e5EMTkuewGXJ/LKBxC8ASTOgj0UuoUlbQ+LFvOzhEDkld0Ptr63Era/UaCW/R7/wXFvishuRV2ddRWANhsA2B8qqadaifgkp0xYNFMENIkNrkLs8KKJEgOXqH4k8CFxHilXW7G1CgFZPBvuKv6tm+XJUtEzgX1mA80fQaH4A5y1ROi5kTNHm9eqAlj1HTsFsPh6K4ClABZToL29fcdMJnMhogJYvKdGASyeQsnvNxvAYj0dmQ//kQmw3nvvvc0WLVr0n+Sqjv2auq6z/MXswBYpFxGtMAxjm7SNqwistBW17CmAJUdXmVbxkxff9eEMmI8GGpF0ep/VTh3hlQsmxI28KnlqBagMwnBm54evOk4o6S69dsZMaGm5CBA/DwCTZA7g6NsuR/DUEgnkng8RdhKDKdd8Kw9oRTRfhBcP+HhMVelvALLFgHyRPvqfmzjt+zSIFcVWy3iwdotnwNDbedzn6bWjP1ebzwMFsOo7Zgpg8fVWAMurkYrAUgCL99QogMVTKPl9BbCC2hWLxUP6+vr+mFzVsV9T1/X3rHQuci4iWmAYxty0rSuAlbailj0FsOToKtMqzuq+ecLWLVM3+BtJcuKgtUz2btcrfRIV6VEp6l7gO4vt6pFXwUV5OicOutovRV/R8NBwcYelP57zhshA0BtndQDiBQCwAwBmROo0Z5kydIoLruLClLhbBhMCFx684kV+caFQVD98evBAXaSfAhCw1BRnvCLLxIBwbh+JjsU9fv/r5pzjo++1Alh1HQPMZrPPyU7iTkSD69ev3172MecqiXt95o4CWApg8WaaAlg8hZLfb0aApev6a0S0jazTbonou4ZhXAwAZnJlx3ZNWX8fy6qNnFT//wzD+E3aKiqAlbaiCmDJUVS+VTyk+76W1pZ1w5WmApFXEfmjPFAqDFzZOCts4V9Za/vBVQWBWe4EFusRiear+Oy04AdrrtTwIT6WIq8YezNh3iM//Or1IkNBK8/uAqKLAXBLkfLNVyYcNAZODgwduxBwIgSNRCKNQqCYsA9xAZyvfCjYcvmTGBi5bUT0r/yQVNXRrssDcDw/efdLzfheCuwBRjwGd/vdbc031xvDYwWw6jcOHR0de2QymcUAsL3MVono/qGhoc8sWLBAalSirC/oKgLLOzsUwFIAi/e+UACLp1Dy+00KsFj+pQ52IG3ynlet+dTg4OD+AwMD7NR0dYUoIOvvY7mpZcuWtS5ZsqSQtvgKYKWtqGVPRWDJ0VWmVS/AEs0fFQav/Gtse5ugtaYNgiruaYMhC2LLlL9xf/YsB1TVAq+spvDPD//gK/vxBoCoLQNvbX/yyHbBy4FgY1755rzPi8ARiQCKKuOfPGHRSrz2/fMsaaSRbYcHfLgRV247IWCn4m4aAK0GyBd4psIAXQ0+onkM7nafAlgJH3oFsBIKl6CarutfBoCrAWCrBNWFqxDRZStWrPje4sWLA5HPwkYECsr6gq4Alld8BbAUwOI9jgpg8RRKfr9JAdZBAPAHmblxZQGU5CPVWDVl/X0s91KW/gpgyZlHCmDJ0VWmVRtgvbcBCDT/MtsNi6x7bgBhuVXBR57KdmnZ8KoEmYJAqyxYcp+tvFcPb/T+LaD70KoEnairFd6cOhsQrhjzkVeRkT61wKvo8XPAZwx4VTUaKczPEDiTBryqlvycB424cCsKjoXBpxA4WHmjCGzP5Pajqn0Ck47FWQpgJX2JK4CVVLn49bLZ7DXsV3FEnBK/tniNQqFw+I477vj77u5uqds7ZH1BVwBLASymgEriLv7MK4AlrlXcks0IsFgfZb2fZQOUuOPTiOW/+tWvvm/KlCmvAUCrJP+Gli1bNkVFYElSV4JZBbAkiCrZZAlgZTLvvYYA7/e0FTi5z71odhBRgBd4Iq9ci9sKO/ADC6eMlxs45aw2AnjNPh7Q5XUNpw26m7BPHfzCw1cczyJHQhq22qT7DmmB3fc/CoiuBIQPSh6rUTAvCI6Ck8AnmwAo4UY0CdiI3Obmn4dhEUUC9rk++p+RiMgl3na8miBcLXmuXDp5nrkoyOd/NALl3gOi43CP+1LPAzAKD8OoNMkA1syZM/9ORDNlOCDjmGcZftbDpq7rS4joQES5uQtN09wmn8+vkN0nWQskBbC8I6cisFQEFu9ZVgCLp1Dy+wpghWu3YcOGqbK3qScftdGtqes6S65uyIqAI6J7Vq1a9RkZWzhVBJacuaMAlhxdZVpF6CbtU5nf9gGA67QEkW14duxVZOSVA7ks2uOK1vLc8sRJBfJeCcOrFE4brAiN8JfB1ZkDn7n2uDXVxKc3zt4DEC4BgGNkDtLo2E4Kr0Rgh0jUlRs6RYAgz9bUuGXcsCYleBUKpqJ09MEiT3Rjlb4EosPSirqKgnxxx7NCqgEQHgdz+HSc9afHRmcON3+rDGDNmDHjBUTcUUZvFMByVNV1/UkA2FeGzm6bCmDJVri+9hXAUgCLN+MUwOIplPx+swKsbDb7FqK8fLmmaX4mn8+znI7q8ilw0kkn3UlER8nKQWaa5pfy+fyt1QIgkg6KAlhJlateTwEsObrKtIoAgIdedOexGcBbrIZE4FX4aYOl2iFAyzHpXsw7C+aoyCvHXjDSI9COa93s70f538FAIRueed16b2iosAvv1EF699RNYf1GpwHARTIHqP62w8eoomnFobLgcWCLM+bBMapXtFKUD3H74bPDjariALbYUVcStAw8wGWfY0A498NMdD2Y5qW41/0sVFtdCRRQWwgTiJawSj0AFhENEdFOKgIr4SA1YDUFsBTA4k1LBbB4CiW/38QA61JEPD95z6vXJKLfG4bxKVn2m9luNpt9eyTf5WayToHUNG2Tnp6eQRkaKYAlQ1WVxF2OqnKtMoAFn/7ubVtTS8vyWuGVd/3rECVfjJUnyioJvPLs5BICbtHRYn6fiWjRkNY6b+n3j4t8+dCb50wBpDlAcJ3c4am3dcGoqwo7CQEckZFEtQCXhHArAGTSglciUU92W2mAqYDe7n74T9dMqFWkn24yHBPCEX0NNoIc7rRkfb1n8lhpTwGs+oxkZ2fnxpqmPQgAe0lu8a/FYvGwvr6+f0luR1qOFbWF0DtyCmApgMV7lhXA4imU/H6zAqyOjo7tMpnMP5P3nF9TRViHazTyPP4HETfhK5ioxHpN096vAFYi7UatkorAGjXpEzdcAlifuvze6TA89G5o0nZf8BM/absPEvi3DrqIVVV4FQofrBAvj0t25IvzmX9BH5Zo3lXa68/agkZ7P3757JeqKUorzt4PNLoZAHdOrHzDVUwKKkKgRlVoEzdHU1z7SftRC2ALqVse32pJ0Hk6ieTc4iVZj2Ujoh88COd9kO2eEwCas3H3+xc13FRvIocUwKrPYGWz2c8i4rUAsL3MFk3TvHR4ePjSeuQmUTmwZI6kY1sBLAWweDNNASyeQsnvNyvAYj3Wdd23wkquQ1hNWSfhpetlfa3Nmzdv6tDQENsVIAtg/WHDhg2fk/U3XkVgyZkvCmDJ0VWmVQtgnXfvdJg69A4QZZwlrAgIcpUOW8SKwKsQUGWtl0Pe6354ZS/O04BXtsgLNxThzKU/PJ6Fl4Ze9NpZm0EGzgZN+5bMgamf7aRRVxVC4wCLKJBR6UzSXFMiPjpz0SKcVaKFAn6KRFSJlPG1mxheiUA49zMS0VfetsbAcxYGC/3PoYgOrAyZgHAC7v7Hm+o3l8deSwpg1WdMs9lsDyIeDwBSTyA0TfPj+Xz+UQCQegKhvTgaknHKUrFYPKCvr++RevShPqNfWysKYCmAxZtBCmDxFEp+v8kB1gsAsEvy3levSUQfMgyD5XZUl63ASSed9DnTNBfJOm24WCwevWbNmsUyErjbf9dfB4Bt0h5Q0zQPyufzD43Xv+sKYKU9o+TbKwGsA75x28YTp2T+rCHsYi1P3QtoywmxyKtg3WA9Tws1JG13FvC1+ezGX/SRh6+Y/XhU4j26uS0DB233CUD8nazkf/KH3N2CCBjiwRTefbu9xDAlho8BIOOaj+V5XSu8StwP/7MRB7Cl1Y8YPlSKlv0Mg1shflWmF70BiF24+5I76zunx1ZrCmDVZzyz2ewDiHiA7NbYaZKGYSyT3Y79RVcKwDJN84jtt9/+d93d3dIhXD10qrUNBbAUwOLNIQWweAolv9/MACubzeqI2Ju899yaN+dyuS9zS42jArqu3w4ALIF7i4xuyz6kRUVgyRg1lQNLjqpyrZYA1i5f++3EHbYoXgSI51rNRURfeYIxbGwU8pnXRBBweBmCGyCV0VEw6iMYkGX56Knt86X0T0GfCeCholk44bEr574cJTmtOHsL0OjHADhb7rDUw7oIeBIsExDaN36pQJ8qwCcAWyLASgBeucsJRIcl7keUjiF+VvXR/2xGwCWejch+uPzxjKlPe5790kNHvwCt+F3c7cHn6jGbx2obCmDVZWQxm83+STbAIqI3i8Xix/r7+1+pR69kbSEEgOOXLVs2sGTJkkI9+tHobSiApQAWb44qgMVTKPn9ZgZYbW1tU6dPn746ee+5NYdzudwEbqlxVEAWACp9eyZ6YWho6MAFCxa8JUtSWf6rCCyd7aq6JO1xI6JewzC60rar7LGD7tnV3a0dWvyvj2mtmQfiwCvrgS3L6I6UKXMjcXjl2BKHV85yO5jIOgpeRflcNM05K98e/uUr/R2hCaepGzQ4+az9ATW2/aOJL/c4caBQReAq5arCKwEoxMvRFCCXIb7U5EMtPrqAj3diucipIATkah2VOyzueIqMOW+8ff32b9dk1TU4Gya9ei3u9IpK4F7D20IBrBrEE6za0dGxRyaTYVtd9xaskqgYEV27bt26CxYtWvSfRAZiVpIIsE7XNK2np6dnOKZLY7K4AlgKYPEmtgJYPIWS329mgGX/fWc/mm+bXIGqNdk7eudcLse2nY37a86cOVMmTJjwPCJuLUMM0zTPGInA6u3v75f2vVcBLBkjpyKw5Kgq16oFsOyTCM2MttwbsWRvHQyJYvKu173wylreuhfunk8C2wadtbsfXoUkbQ+cOigeLRbpM8D6YsE89NEfncDyeoRe9GLXdNho42sAYY7cIZFpPQbs4EEhZ9Bsh31jlzhaqWLYsstLUs4DXLxooVj2I8AOTyuh+75+h0EhSxDXBCn/t8BJhDwfAuPpbksQwrm1RjoJ9/hTTuZsHg+2FcCSP8q6rrNf3U4FgE0lt3b44ODgH2TlxvD7LgtgIeJVkyZNOv+aa67ZIFmvpjCvAJYCWLyJqgAWT6Hk95sZYLGf+nRd/6aMyA9b0SIRXWYYxoXJFR47NXVd/xIA9Mj6W2+a5m75fF7qrgMFsOTMR5UDS46uMq16AZamLXc3Jpb3qgq8ci2KvQzMCzustXUSeBWsF5Vzy9uE12cCvHNo/YYzl17T/mKU2PTP07eG1okvA0KThuMKQoiqIMMFNTxAxAdVeNAoMN4hUKaa/UQ+hsAfnp9pQDiejapgyfa5mp88+yJahz5/YXAsAuAFo+jeAYTTcI/7fyHz5TUebCuAJX+Us9nsbxHxCNl5DU3T3Defz/9Ffo+sFmQBLCJ6YGho6EhZpyzVS5+02lEASwEs3lxSAIunUPL7TQ6woL29fceWlpbI1CXJlSltaSNEfCmXy0lLFF+Lf/Wuq+v6YgA4TMbhJkT0d9M0j+zr62MnHEq7FMCSI60CWHJ0lWm1ArAOOv+3W06YVLwPAGZZy2Z/BJUDAKK2DXrquSBDOvDKC6ssm97Ik6Q+A+LcFW+tH4jcPnjfIS2w5/5fgiI14YlqMqOu6gmFovqRwIfQbYsiEM7VVuyIJh6kq9aPkHvlt4LUkw7Lz5cfLnO0Qvo1FArfwb0f/qvMl9d4sK0AltxR/upXv7rFlClTbgWAg2S2xKDPyEJibi6Xk7JQCfNdFsACgMF169Ztv3DhwlUyNWsW2wpgKYDFm6sKYPEUSn6/2QFWZ2fnxpqmscOjdk2uQnRNIlo1NDS074IFC+r2t0dGP9Kwmc1m2fbBmWnY8tsgopNWrVq1cGBgYJ0M+2WbCmDJUVcBLDm6yrRaAVj7dd+x0XTEsxDo4gq+8pInCxmFfOawLt9C117kewNInDLikVcR8MrDE5IDNyL49CNXzmYnC4Ze9Na8qWBOfhgA9pQ5GHJsh0GIBDClonVEFI6USCBXFBCv/ZAtq46ePDgVA/IFHoIEWvIiv3h5wawnMWQrrkg/PA9NxJZEAfvVfES6ACa//kOV/6r2J9oGWM8DwE61WwtayOVylb8BMuw3us1sNnsyAHwbEbeT6SsRzS0WiwMyc2P4/ZcIsEDTtE16enoGZWrWLLaz2ewvEfFzMn7VB4BjcrncbY2oBYscyWQyFyIqgMUbHwWweAolv9/sAIv9jZ85c+aXiejG5CpE1yQidhrtfMMwTpJhv1ls6rq+HwD8WlK+MdM0zQ/VI8JaASw5M04BLDm6yrTqWrx0awdf+KH9WlrgsUBwiQ0HQuFVZa0rEV6F5b3yrMNF4JV/4W5hOgJ42wTzC4/9YM6fooSmf583HYYK71Ts+dYAACAASURBVMociPRtlzWpsu2r3CgvmqgqcKklCbpIVJV7bKv0pWYoFNUP17wp/SdHz0gtRfohYD/SBxF4FeWDr4+JI9Rs+0hn4h4P/CT9OT3+LNoA61l2WKyM3o93gKXrOls0HCcJPlSGjJ1w2Nvb+5CMMYyyqQBWfdTOZrM3A8DnEVFGegEFsOozjFJbUQBLnrzNDrCYMnPmzNl+4sSJr8pQiW0jBIBXDMPYWYb9ZrGZzWZ/jojHAMDEtH0mojwifiuXy61M27bfngJYchRWAEuOrjKten59P6T7tl00xBe8idytRWl1eOVf5Dv/dtbzXsBl2fNBLwaU/B8F4JVdzwUsYgG3yhq+0q87TLNwzmM/OpFFOYRe9OY5HwGgyATvMgcome0wmJEgUqgyRFHQJm6S9Qg7XCgUnCeOLikANF77XB14cCoFH62n0PfIlHXhte961niwMtBX35iFgkK3fXoRiL6Bez3ItmWpq0YF1BbCGgWsUr2zs3NrRJyPiCwnhszroUKhkO3v7/+HzEb8tmUCrEKhcHh/fz+LWg78xa5nHxuhLbWFUEVg8eahAlg8hZLfHwsAa/bs2dMmTZp0BSKyiODULyJ6BwBOMAzjrtSNN4lBXdefHInA2leGu6Zpfmb16tX31OOAFgWwZIygOoVQjqpyrXoA1oHdt+w8AScsBaJNrGad76ZRea9sDOR46Vogx4VXgfU5F14lOyWxkisLAEyAM9esfdd45trT1oRJTdStwVurFgDh8XKHIi3rYTBDBrwS2JroWdok9SEKnglCGz5wcQmfFLB5n5XASYFVoZFdN9TPMBAZ0ZYQhKsFBApAOOYD0TWwYf3/4v5L305rRo9nOwpgyRv9zs7O7yLi1xBxc3mtlCzPWb58+cDixYvremqfTIBFRL9etWrVl+rxhV3y2NRsXgEsBbB4k0gBLJ5Cye+PBYDFDhDJZrP7I+KjyZWoWrMAAA/kcrlDJdlvaLOdnZ3tmqZdCgAfSNtRInoUETtyuRyLlJd+KYAlR2IVgSVHV5lWPQDrY903bzYJJ1+MROxI8QrAipe03arnrMe9i2ZrLR/yoy25sZJ3Ue/CaIHfe0u1Qhb/osCNTPjiIz+c/auoX5KJDmmBlfux7YNTZA5E7bZ5sEMQ+FSGPS7s4LXvzCdranHAFK8MD/gkziPl8jN2tJKvj7w8VZERVTG0SsNH7pgLwivLzgW41wOX1D6flQWmgAJY8uZBNptl0VezJZ8+SKZpHp7P5yNzLMrqoUyABQDvLVu2bPqSJUvYwmhcXwpgKYDFewAUwOIplPz+GAFYwCKCNU0bAICPJ1ejas1/FovFo/r6+v4uyX7Dms1ms4sR8VMA0JK2k8Vi8fg1a9bcMjAwwHKNSb8UwJIjsQJYcnSVadWbwLe7WzsE9vmEBpn7ylSoJnjlgxCNBq8YPzABjnn0ytmRSVKJultg5ephmYNQu20enOLdF4U2UeApZXjlgTJRkVshsKgiZAzg4tkBE6MfAXAU4g8PLqUB4UJPIRQdzxR08kK410sJsfd8YH7tc1pZUABL3hzIZrNzRgJwv4OIUnKLuTy/WtO0y3t6et6Q15twy5IBFjuifaZhGMvq3a9Ga288AyxN076jaVqHhDG5N5fLHS7B7qiYVABLnuxjBWC1tbVlNt54409omvYHSWoVEPEPvb29R0iy35BmOzs7d9Y07RZJ2wefHxoamjN//vzH6tV5BbDkKK0AlhxdZVoNnEB1SPev9tVAY3uFXUEy7oW95Y4nXsq1EPfE7bgW8OLwin/ioKd9HwSIC9yaG2DVAlx8YKhmmBIHhpSndBScCovOErAfK+qqCgDjRYfxwFTFdLkfvmg2nn3vwxd9UmAovIqClVGArYoOvAgyfz8Irof3hi/AjzzG8i2oKwUFVARWCiKGmMhms9ciYhcAZOS0YFlFxC/19vayfHD+kFaZzZZs67r+JgC8T1ZDRHSfYRiflGW/WeyOV4Bl55D7BiL+j4SxUgBLTNSlRHSeYRi/Fys+9kqNFYDFRqa9vX1mJpO5DRF3lzBS7G/QM0NDQ4fMnz9/3HxHk3lKbLFYnPPyyy//vJ6RyApgSXgyrO9L3xo5zCf13SNE1GsYBvuuqa6UFQgBWHfuiVB4GAinOm25F8U+eFVZ/1plvBzE9ZnQtkHbgqc5b9tWCf9ndjthEKZSNAjhmCUTsEkjsAThVWzY4hlFawrwgAvvvoiNQBm3HynBq1A//fMiDJ65fOHpGZiDaYHCKB/iQMC0+hExJ5AuwVkPXZDyO2pcm1MAK/3h7+zs/KKmad8DgFnpW/dYfAwRT+/t7X1ccjuh5u1Tl74sse1iLpdLfUuGRH+lmB6vAGvu3Lmbt7a2nomIMt75CmCJzVYFsLq6ppumKeWU8BFIf/AIpL9fbChSKYUdHR2HZjIZWUCS7Sa5O5fLHZ2Ktw1uJJvNboaILEXMQez3pDTdJaJX7NxXS9K0y7OlABZPoWT3FcBKptto1go80Aedf/OWLRMmXQBAZ9j0wvGvxBH80STOojh9eGXb9jAGHrzyL9Kr+8wFWMvnbQeZyf8czUHyth0XuKQNZFz6lv6zRvsVc1XsxIZGZcUEIV9d++HTz/088bSM9DOqnyFthUFe/zbKahAu0kd4DdDsxlkP5xvnWWl+TxTASn8MdV2/ioj+BxFT/ULr95SIZhuGsSj9HohZ1HX9EAC4T6x04lI35nI5th1z3F7jFWDNmzdv6vr160/VNO0KCYOvAJaYqApgjS2ABSMRQ3siIvu7sZfYFBAvRUSEiE++9957X1i0aNGr4jWbs6Su678goi8iYuqR1qZpnpDP5xfWWxkFsOQorgCWHF1lWg39An/Qhbcd0KLRA5WGKwEw4fAkDFxVEEIg8soy5sVgzgfO5/5CNjrzVKweeWXfdfRzgZCyGeJFYL15zkcA6BGZgyBm2w3u4kCjuBE6AlDKA1IifOHBGB6UqrAXHthKCwiJ6JQACFXb5lcaeIHosmho5Kpfg05cH6J8dM1cohy0vvN13O251WLzWZUSUYABrBkzZryIiNuLlI9bJpfLSYU4cf2RXT6bzXaOtNGNiNtJbusl0zRPzefz90hup6p5Xdd9vzil7s3w4ODg1HolsE3d+xQMjleAZb+b2hGxNwUZ/SYYwGK5emTPXwmuB02qHFjyZB5LWwjLKmWz2cMQ8W5JW9zZM/W7bbfd9sju7m5T3siMruUTTzxxRmtrqzHyI87BEjx53DTNr+fzeWedLKGRMJMKYMkRWgEsObrKtBq6eDn4wls/hpp2P7ITGyrcxA+vrMV3VXhVKuL7/lHLaYP2et8SpHZ4VVq3I2cL4cqzvwAELAHgKF1xoojKLobBDAFQwgUZtu7CETqeAXO+i/LgVTX7iX0M0SZWDikRwBWc6+65GvhvHuQLPD9hPvi/3/vKBLQMGZNqZarCM1tTgiJocBXOevDcUXpIxmyz9iJxGSLuIKOT4wlgdXV1bWSaJstxcKYMLV02iwBwci6XY1+eR/WSnch9JBE+WwDdZW9JGbOLoWqDOF4BFtMkm80ej4ipRyEQ0RMA0GEYxt9G9QFKqXEFsFISMsTMWARYXV1du5mmeRUAHClDOSJ6DgDONQzjDhn2R9tmW1vbhGnTpt2AiF9J2xciWg8ApxiGcUPatkXsKYAlolL8MgpgxddstGuEAqwDLrh515bMhB6N4BPWcpcDrwILbRsvSYZXTrNB/4I+28CrrLgNUcjUjnn0qiqnEK44ezZocOPoDFRceBUBrirMIipKJ27UVcWg9wfS2EDGbcf+71rhVWwf4oKppCBQBCy59OBBvsCYyuiHe15U/SH874D0XZz10C9H5zkZu62qLYTpjG17e/ukTCbz7dIpmZK3DrJEucVi8ey+vj72C/qoXrquL5a1CHJ1bLVpmp/M5/MMOoy7SwGs9AEWACwHgMtyudz/jYUJpQCWvFEciwCLqZXNZo9ExJsAYBNJ6t1NRMcbhvFvSfZHzexJJ5103MhuSZbncrc0nWBbMAEgZ5rmRX19fa+laVvUlgJYokrFK6cAVjy9GqF0KMCa1X3zhC3M1i9qgIvi5rxy1tW8yKukpw06i3yLVYjAK6tcWLQYmeYxj1514m1Rg0GjArD8fYoCT/bnPNghdN+nZWRepJByPPvOpHDJHAe4VNvCFgPylfxICvlEtLY7Wg3CpQHYIvsR1X7UmFUZ89DotMinpBf3fEidsiHhja4AViqiatls9rOIyKKvUs8r4vNwAxF93TCMa1PxvEYjp5xyyp6FQuGvNZrhVWdvvDc1TftoT09PA+WL5Lld+/05c+ZMmThxIotA+szICUattVsMWDgml8tFfj+R0F4skywCCwBulACFWbLpX4yV/GoKYMWaVrEKj1WAdfzxx286efLkr42Iwba8y9jqv46I5heLxTP7+/tZVNGYuHRdZyfv/hQAvpR2h4joTUQ8N5fLjVJQQ+m0vNcBYJu0+2aa5kH5fP4hO6o6bfMNb08BrIYfooCDkS/FQy741SGo4W8IaKNKLReoCINBleUwN/LKu9D2xEZ52I0bGpS9sEv7IUGlaBBoBdK4u/xrPIAVA8gIgSN/5IwP4ARgiw9q8IAL737JXC0+JI148s4Xi8fJhFfBnG2WB2mPZ9x+hJRPPOahL7g1gHANznqQHUGrrpQVkA2wCoXChzOZzH8Mw1iWsusNY669vX3HTCZzISKy/FdSLyJ6EAC+VeeTqyL7ZM8f9gv7xlI7DlAgokeI6Mv5fH6F5LYawnxnZ+fOmUzms0R0FgDsJMmphgZYnZ2dx47k58sjYupRIkT0a8MwjpWka13NKoAlT+6xCrCYYrquf5qI/m9km+5MSQo+xaKSc7ncbyXZr6tZduogEV2JiCw3X9rQbw0AXJjL5X5c1075GlMAS476CmDJ0VWm1cgH/IALbtu1FYs/BMTPlhwQhle+BXMg55V9P8CmkiRt99vygRIRnxsqAkskyidpGb82YTAnOHbO5Ison0oeKV+7odCH176IjZAyAbAVVaaKfW5eLgEIx0vU7nsGrXEpayJgn+uj91mKkTt3CVDhf3CvR5+W+aIar7ZlAyz2axsRsV/dvpnJZP7W09MzOJa0PuWUU7YaHh4+FxHPkd0vIvoXEX07n8/LSGqd1H0WfXY9Ip6U1IBoPSJai4gLisXid/r6+v4lWq/ZyrW3t7+/paVlR3uLyqclLJTckjQ6wNp1ZJ3IIkRk5Jr5/fr169sXLlzIIg6a+lIAS97wjWWAxVSzt8NdAwBbSVLxt3ZCcpYXq2mvo446auLWW2+dRcTzR7b5bSuhIywlAIN9SyXYFjapAJawVLEKKoAVS66GKBxNqLu7tU8U9/mShvALEXhVWv6GwABry7D7qu3EQaed0n9V1tlJtjqWLDQEwIobpWP3vSIrL6qKdz/EXuIoHUHAxrNfGdsqoC3Uhq8vvAgx7v1qWgvkDuPZ907o8CixqpAtJXglkqw98Moits2jX20flPcutwHWsyPbdHaR1wp7d9OqkS1QlzCYNRon68jom72V4GwAYPAq7V9jw1yeb3/BbagF97x5896/YcOG12UcJR4iwtumaf50eHi4b8GCBWNqO+HRRx+90VZbbbUrAJxoAxu2VUX21dAAq6urq5WdtgkAP5EgxFtE9EPDMK6QYLuuJhXAkif3WAdYHR0d22UyGRbhrgM7WCv9i33D/BURndeskdhtbW2ZadOmfXTk7/z3EPGw9CWCl0fyX33XMIwFEmzHMqkAViy5hAsrgCUsVcMUrPqlnm0jBA36gGhHzzI+DFQFFuJWDS+/EoFX9oY/D/dy/uHYc0CJ9V9uCOT828s4vDCtZItGOwdWXHjFiZwKjE0M+yIwJbJMVDu+sUkcCVRLP0J8qHzkimKqPJYpQaFQCOfypdpYOcd/Rmx9tO3wbHBBYTUIx3lPEb0IUOzGvR4dtXwADfMmleSIDbCel7hFyZn1IyEliPgy2wJnmubyZgZZLnjFAJYmaXjc2r0wEs32HcMwfi67rbj22emLxWLxFkSUcqJViD//JqJFiHhtLpdj8LWpr+7ubu3111/f1TTNT2ma9mUA+HidgCjTraEBFnNQ1/UOAOiRsbgmooFMJtPe09PzXjNPIgWw5I3eWAdYTLlsNnsYIl4GAP8tSUn2Y+RNpml+L5/PvySpDVlmsbOzc++RSFgGrz6fdiNEtJIdKGEYhgxIH9tdBbBiSyZUQQEsIZkaqlBVgHXQ+TdvqbW2noVE51cFQaW1tD/SyvrMhZ5c0VJlDfzbBl3ZqkIW3gF4FRb15VrQc+FVCTDQKCZxF4xWqjCPpPAqLpBxQZbSUPH85N0XsWGX4QGX1COaQjStCoXi+hkxZrH7ETImtcKrRFFX7vcX3Qmr/nkcfvz1dQ31VhtDztRhC2GYWiYAsC2h7Bjv53O53CPNJOmcOXO2mjBhwrkAcLbk7V3W25HoHQC4wjCMKxs0ASqedNJJ+5im+dhIInsZicYD04OIVo+AnnsQ8Se5XO5PzTR/3L6y/GmaprHFI0vSzvI91SOSz+1CwwMstrgeybH2Q0TcR8I4P01EFxiGcYcE23UzqQCWPKnHA8Bi6nV0dHxJ07SLR04mZFGgqV92FPYvhoeHr5w/fz770awpLl3Xd2fbuRGxTYLDw0R0i2ma3xitUwf9fVIAS8IoWz/EsChHdtBPqhcR9RqGoQ65SlVVyxj3y9jB3/7l0YhaLyFY4fI+UGWtoRPCq1Jdp1cV3CUIr6wAF48B21j4iYPlljw+jxrAKkOfpFDKJV4AZLiFFYBXsWFKGPTxzwFfGR6Y4kZmCZxEyAM6FVnCNBeEcJ5uxoFTgvar+lhtzGPqXTu8eguQfoyzHma/CqpLkgKjBLDKvWFf3h4mopuI6Mm+vr5HJXUzFbNsG8HUqVN31TSNbbU4sx6wwT5W+y7TNM/p6+v7eyodkWCkra1t+sjFgCSLlqnLZWvz+EgE3P+uX7/+TwsXLmTbVJvhwmw2uz0AsPyf+yHiHEknDIpo0fAAiwGEYrF4np17RqRPccowmP6LtWvXnnHTTTe9HadiI5VVAEveaIwXgNXW1jZ1+vTp/8MOjUDEzSUpyk4mvKlYLF7e39/Pooob9mLbl4eHh/fSNI3luEw9B5/d8YYD6ApgyZmSCmDJ0VWmVS7A+vi3b9mhVYNvAWCX/yQ3MXjlBVzWMtu9mLe6F4RXTrmwyCvHhN+WLxsWD7iNCsAKgxlxI4FEgIhb+ziwxTVGpf+sAtmEoZHPpv9EwGqAKxXA5m/f/W8ByMcFbLa9QD/cgDVKR/8zwdPb53vlDVFLP2K/Zh6EofeOww89OS5OHIutTkoVRhlglXsxbJrmnzRNuwsAHnnyyScfWbp0Kdty0DAX2yZXKBRYAteDEfGL9XKMiP7GTiYyDOPX9WozaTvt7e0zW1pa/iApwW01t54lotuJ6M5G35ba2dm5NSKeMAJNdgeAOXXKG1ZNu4YHWMz5bDZ7MiL+aCQS0Tm1OulE9dUjomVse9BoHl1fa1cUwKpVwej64wVgMQVOOumkWUT0vwBwtESozrbr/opFozTqFvDjjz9+08mTJx9h/7jAomNTv4ioIdMCKICV+lCXDCqAJUdXmVa5AIs1fvC3b20jDX6KRJVTMIThlSfRumvh7QmcCgKtMuSSCq9K7tRzC2EYzBABVy7dSrMhDqiIA0N87QidjFeDfZF+hJ5yKOqnCOQra1kFLqUC0KroVOmOJ7wrmPuqGuSLpaV/PsV8xRC8C0g/wz0f+mbMmqp4TAUYwJoxY8bfJR6jHccjFg3xIPs/IvorIv4+l8ux/BCjebH8Fx9FxC8BQCciblIvZ4joFfYl3zCMXL3arKWdefPmTR0aGjqd5fOoxU7Cuuy0ywdGcrj8BhHvyuVyDXNqqQ2JPwcA+9pwby4AZBL2M+1qTQGwOjs79xmBfRchIltYy7jYNmZ2AhgDsE13KYAlb8jGE8BiKnZ0dBysadpliPgxeaoC+1v/60Kh8IO1a9f+eWBgYEhiW7FM67q+rWma52qadjgA7BarsnjhfxLRRY34t10BLPFBjFNSAaw4ajVGWSGAxaKwWhAuRIAsc9sJugkuuIOHDnpirnzwxbIWCOKxo3MCCeArjYdtHfS14zNaBbjVKQcWLxJHELZ4B8CeRb5xCAUuvPZd4pb+kwNceGWqwha7LV6ZUHgV1Q+f/9y8XW4fZEA4Qfvc8eTNCxGYWUOi9vD31F+gCF/GfR5s6mOXG+MVXN0Le3HNdN65gfxlk5IlemUg602WsHv16tV/GxgYKNbTx7lz5+7d2trKToT7EAAcUs+2R042XENEP1+3bt03Fi1a9J86t524OTu5PfsFf1RyMhDRWgC4HxH/wpIGjybIam9vf38mk2FbTSePwLVPISKLuhL6TpR4AOJXbAqAxbql6/qZRMRy9EyJ383qNeztqA8h4gW5XG5J2vZl21MAS57C4w1g2c/apwHgcgBgf/ukXUR0HyL+0TTN3nw+P6rR9m1tbZOnTZvG3tNfBQCW70rGiYwsp+WbLJp0cHDwuoGBgTXSxE1oWAGshMJxqimAJUdXmVaFv6wddMEvj0HC7yPCBy2uIACv7KgQp6Q/aXs0vCq1EAY4QvNeVYdXli2/v5UGJAMsN3Dx61a+x4MUrnoB7X3wJaBZ1P0IX3j2K9V8vpdmqWA/QsGVz59Y8CoEQNXUD9sXYcAWNa5xt3CG2BH2IQLC1Zzryvf6IRoEhOtV9JXM17Jj2wZYywBgh/q0GK8VIiqObNu7j4jY6YUbisWisXbt2r/KhFnZbPYcRJxBRDsjIvsiL/x3LF7vIkuzX6eXEtHJhmE8mZLNeplBXdf3AoDrAUDmL/i8/rAtqAxEvAgAzxaLxZv6+vr+xatU6/0TTzxxVktLC4uwmg4Am42AtGNlLYRq9dWu3zQAq6OjY49MJnMxS3afUt89Zti7BgAeI6Jv5/P5+2S0IcumAliylAUYjwCLqdnZ2Xm4pmk/AIC95albWjutQsR7iMhYsWLFfYsXL94gs70Q2+wQkpmmaZ5n5ySUcViEtYIhWkVEN7Doq3r8PUqiowJYSVTj11EAi69Ro5UQ/uLPTiRELfMdQDidn7TdXoh7eFXEiYMeruRCXZHwyrfItxfo3uJeWFUNuJkAxzxx1Ym3RQ0MrTh7NmhwY7KBi4oWCoNKVaKAKl0OQkPHL04kTq0RVeWGgiF29h2RSKAUysQGU775EgrZYkI+6y+da0rwABrvvoiPlQHwtltNj7ThlfUn/h8wYfiz+MHHm+2o5WSP8CjXsgHWPwBgxii7wm3ehlkPENFyTdOKpmmuHBoaumbBggX/5FauUqCrq2uLYrHYyfISISL71fVwItqyHknaw9wioudGjtY+tdkW0eW+2PnCjmMnBI780jytlrFJoS57g70xkjCdJXtnJxcyCNrb19fH/s1AYU1XZ2cnS+rPfrHfaSSZvAYAWzNwR0STRmv+xOxQ0wAs1i9d108bGbfvAEAl3UTM/lYtziKxEPGJEXg9f8OGDbfceOONbO40/KUAlrwhGq8Aq7u7W1u+fPlniIhBLFlb6SoDxw5yAYDnRn48WrBs2bJ7lixZUpA3qpblbDbLtiS3IeL77ShZ4TVrAt/eIyKWy/K7hmGwHw0b8lIAS86wKIAlR1eZVmO9DA785s37YUvmYiQ60uMU+RKnh+W98rGXZCcOslbdUMj6dxJ4VXZRHsCKE40UB4b4NCj9k1efd99vMw5wcfeTY0c4mshtRxACVqpE9dUuEPAhCl5V0azmftSoU2i+K5F+1PoqoX8Dwvdw1kNX12pJ1RdTwAZY7EhrtgBvpotNSLZd7DEAGLReU8SAxLqR7WsriOiRTCbzzMqVK99Yvnz5+lmzZk3TNG27TCbDtkT8FwBsyZLU2pCBJYZmn21hQ4jR1OHlYrHY0dfX98fRdKLWtufOnbv5hAkTvsYS0DeApu7usEXRn4loBSKWX2osWovlYPk3Ef0ZAN4eOYlr0DTNDYjIIgB3QcRZiLjdyLaaSUQ0AREZrGJzbnNE3JOINm0SYOUf2qYCWB0dHdtpmnaFxFPByvq8TkQsN2Dv4ODgXY241cc9kApg1frGiq4/XgEWU6StrW3CtGnTPoOIV9bpRy7GkJ8ZSZ7+IotWWrVq1ckDAwPsb3pql67rO418V/gOIrIo2Q8S0R51eHevH9mOeXuhUPhuf38/+8GwYS8FsOQMjQJYcnSVaTUWwNqv62etG22x+ZmA8E0E2KzkWABe+U8d9AOOFE4cLLVryeIFYV5KZgWn+KOWvD6nD7DSAi4pRCt5+h8BZIQStbsEt1WvTEreVj+R5OKRZdwDLRPCCUDAwFyKo2cUzAzRlQfHePBKStSVPdoEL4Fm/jfOevjfMl9KyrajgA2wngWAXZpZFzuHDYzksGGAgp1ytJKIWO6o9xiEsKEDy52zBRExUDWJgZU6fHGNI+tyIvqyYRgskX3TXx0dHSyK7euapjXsYQx2xA0Dn+z/NhDR24i4nogY0GLwir0xWRQZ+z7C5k9mZPtHpsHmTS1zpakAFuuoruv7saiQkdw5h9bScV5d+53CtqC+BgBvjcDx8wzDeJVXbzTuK4AlT/XxDLCYqkcdddTED3zgA0domnYNAGwvT+mAZfbDwp9GDlcYJiIGsR5ctWrV1XETvnd2dn4MEU+0fWeHZ2zMtgq6fsCS3SXm/63FYvHC/v5+dvJgQ18KYMkZHgWw5Ogq02osgMUc+ci3Fr1vAky4EhFO4MMre4HuCZoKAq1YJw561vzu6Kv48IqZShdgJYVXcSKeyjCBA3RKOpXLxIEtHoFDAGBYpE/a0UouHyK3LLrL+Hz25GfjgUDeff8c9gPRKDjl096iqa5nOe6YC/gpE14BvQOm+RXc+5HfyXwhKdteyymuVQAAIABJREFUBRrsFMLxPDxvm6Z5bD6fZyfpjZmLbc80TfNsAGhYiDVmxE7WkaYDWG1tbZlNNtlkDstVVS/wzoAmIv7dhuPri8XiL/v6+liet5BfMJMNRC21FMCqRb3qdcc7wGLqsEisjTfe+ICRaNQbEZFtk67bZf/IwPLTsR82WWoJz9ZvGzSXnsNyZKzPuc1G8mux6NmNEEtL0tjr0ho6y/y+mIj6GhV++/umAFYNo12lqgJYcnSVaTXRi+LAby7cWdNaf0zgPzLZWWRb3xq8ea+C2wadRX1UwnarhIeA2XpEbx0Uibwqi5oOwPL7FwdUhAEhRxfLz5TLpAFTKm5FQLLQSCJfX3hbH0vFq0C4mvshA/KFgakI6BV4RhKCQKngqqRRARBvh3+1fhkPlZ/3QOYLr9ls2xFYz7BQ+mbzfaz4S0Srh4eHD9x5553/1t3dXXNepkbTJZvNsuil8xDxnAbbTthoUtXbH/YH4dhcLheZo7PeDom2N3v27GmTJk26DBFZwvypovVSKseeUbbNtJQfi0Xp2RF777IokWKxuHjt2rXs1NRUtz5V810BrJRGNsSMAliWKAwcT5s2jeWJ/L2sHHRJRrEcfW0/i4nWnEnaFalDRLPXrVu3uMlOEn4dALYR6V+cMqZpHpTP5x9KI/dknHYbpawCWI0yEuJ+JH2Z4AHn33S0hi0XOSdg+OGVDStcICPAG2ww4w2ycUe0+OBVhX9U8JjNdryAIOrEweBPcQQmYI1J3N3wKg64qnSmyul97jJBPZ1h5vnAu+9rhxf1FIBTaQE2lx+eyZIgWsk3VyytYvrJA2xCAC3unIjpp2x4Zek2CEX4IO7zENumoa46KmBHYL2AiDvWsVnVlKPAcKFQmNUMWwtqGTS2CCwWi19nWwpHATjU4vpYrssOQvhCPp+/vRk7yfKstba2/gwRP8e2A41WH+wIEfaHmIEtlpdvzUjEIct58zA72Syfz6+Q7ZsCWPIUVgDLqy3LIWWf1sny/yVd48kbsAaxrGna3hMnTnz+mmuuqfepijUpoCKwapIvsrICWHJ0lWk18cttVvfNEzYdgnOB8AxE2spzuFsZFgjAq9LyOCxap8TDfMjJBQycKsnhFTNvYi0Ayw3b4oIKX2RRVRhSS46mNHx0QRUetAkbS08EHUcn74RwQSeRfth+8nzg5ZESydvFg1sVyXzjHPJsOA94TMBW8TOIZtN7adAw0Ibdca+lLNeIuuqsgOwthKZpbqNpWvvIAvOSOnetGZorssTyPT09TXHSWa2CstMJiWguEX2jCQ8NqLX7jVh/iIi+ZBjGHY3onIhPNlzIAQA7TWyiSJ16lSGi+zKZTHtPT09Np6SK+KsAlohKycoogBXUbc6cOVtNnDjxZgA4OJmqY7cWEf2rWCwe0N/fz04alPnlWYqICmBJkZXlbvyWjO/BRNRrGEaXHK/Ht9XEAIvJxiDWZkPwYyCaC4BTnDcBb+ugq2QkvHJBEx8M8Fbx2/K/jygkj7vjXzKA5WqDBzICwMffrwjAUZmXArmPeMCl1kTtPPvc+3afQ8FSlB7uz0XglUiZKBAYYzxLbiWFldV0iAmvQrdWSniZmcUTcO9HFkqwrEwKKCAbYOVyOezq6mo1TXPbkWjaWwFgXwG3xnyRkWTtz65bt+6AZtpakMagsPm2ww477Nra2nrFyK/4n0nD5li2QUR/QcQzEXHayImHqSZRJqK1I3mdjsvlcr9tZg3b29sntbS03DByuiSLxGKHMzTEpQBWQwxDzU4ogBUu4dFHH73RFlts8dFMJsO2FKqLhWCaZvfw8PB1CxYsaNrdBApgyZnKCmDJ0VWm1ZoAluUY4UHn/3IBAX3R+nIySvAqABYcWOCL0XKdYMi850RgvXFOByDlnUGIATt40UpVYYgAKKlavwx04kY82bpVOswDaLz7Sfrh9kEETAn4wIVsUTZcvgiNZ4h+1nNiPy5R95356ipoj4IPytZl22Cp6SW454NST5KS+XIbC7ZlbyFkAKusE8uhMXXq1P0zmQzLg6CNBf2S9IGIvrpq1apb456mlKStRq2z3377te67777zEfErjerjKPt1faFQ+H5/fz+L3jGz2exhAJBLc6svEf3bNM3j+/r67h7lvqbRPOq6fsrICZEXIeLmaRis1YYCWLUq2Bj1FcCqPg72Vt7nEdE6OX6cXkT0EcMwHm/GqCv3kCmAJWcCK4AlR1eZVlMAWJZ7B3zzF72I8BUimIL2KRKlLYCetbf1j5oStnsNWOYDOZusz6qBK8trAkI65omrOiOTpNKKs2eDRjdWBqHW6Bur2eon0oVGKsUAZx5NIgBW7DxXIT4n6ofLDq9+YGxD+sKzwYv6qtt4RoFEW4/EYy7h9YBkAuGfYdaDH0UEdkqLukZJgXpEYIV0TdN1/UgiugUR2bHWo5a/po6yFwCggIj79Pb2Pl/Hdhu6qWw2e95IQuzT7ZOtxh3UtBMQm4jIjowfJKLLnnrqqWuXLl3K/l25ZAAsAHiDiOYYhjFmIihOOOGED0ycOPFhRNyOiFiKntS+g8Z9kBTAiqtYY5ZXAIs/LvYPEp9FxJ/bf8/H/LvcfncPj7xnvrd+/frrxko0tQJY/PmepIQCWElUG906qX55OOCbi65AyJxAQO+r/ILvW5jXlLA9BP4IJ2x3NWxjtJLywgCLB0pEwFTVMuGwz5oeMeBVpJ+CEUChPvp84OWQ4kGhkrk42/B8EUjcaCrbXx4UCs0hFUNrkTHnzRthH/1jIOnFQTQMGvwNYPATOOsZluxWXaOogOxTCN0RWP5u2vDsqwBwlb31hx1znerfjFGUttw0S+y82t7+dZVhGOwocHW5FGBHtE+bNu02RDyQHXU+TqLzGNBkCb/ZAuj2oaGh86ttO5EBsIjoFUTsyOVyS8bYhMRsNsu2Rf73aEZjKYA1NmaVAlji49je3r5jS0tLDwB82D6sg/1ANdau8mENL5qm+bV8Pv/AWOqgAlhyRlMBLDm6yrSa+mLkI+cs2rslk7mB0NwbCW3K74+8ci3GK1zFv03KKeNd4/viqvyRRIHIKy/McMOrEr8gOuaJq6tFYH39BEBa4AyCSBSQHzbwtrjx7nv7EDhNr+xcLCgU18coH3x68CKeSmaSwisRCCdg3+ODSIRaLWNepa88eFW/rYL2DKJVgLAYht47Bf/rKXbkuLpGWQEbYD0LALvIcKUawCq3Z28tnKtpGovG2QIRpwNAiwx/6mXT/nX234j4kmma8/L5/BP1artZ28lms22IyBKd7kRE08YSzCz/Wo+I/wKAIhH9XdO083t7e58SGa/Ozs6jNE27DgB2ECkvUob5AABdhmE8KFK+2crMmTNnysSJE/9ORBMQ8f319l8BrHorLqc9BbDi69rR0fEhTdOuRsSZALDpGImyLhDRIACwbd3fNQzjzmbfLhg2sgpgxZ/vIjUUwBJRqbHKpA6wSt3r7m45YP1uDxDBtgi0TbnL0acNloiCo4wraqU6vPLXC5xbaNl1c49SK67PeADrjTPbAbDPck4EZMQsw4M5pWY5wEekTGpbBqN0iOtjXD1Tgny86C1exFTF7RogHA9cVR1PWS8QehVMuBpWvdOLBz63WlYrym48BWyAxU7LSW1h7PZABGC5ymNHR8cXNU2bN5LvZ1t70blxvB6NbmkGKhCRJXB9m4gu2G677W7v7u5mv9iqS1CBbDZ7FgCcyLaBAUCz51X5DxG9hYhs8fPC8PDw6fPnz18uKEWlmKQILAZVTzMM47G4/jRT+c7Ozn00TbvJjvLcqV6+K4BVL6XltqMAVmJ9WSTkx+0fJXYHgC3tqKzEBkep4nvsZEFEZBFXP83n8ywlzJj9m64AlpxZpgCWHF1lWpUDsGyPP3buoiM1TbsYyJxBgJtYH3tBlSciygcHYsErls/KF8TFg1cWJ+BFYJ05GxBvTASvuKCiDGVEonR82sVKCh4HtoS0w4uqSgWwRfRPqJ92XZ7eoX6652MKEC7gg0iEmogP0l4D/wai5f+/vXMBj+Mq7/77zupiWb7EdpxEzgVCcEis3KiBEMIl0HIrha8PIEpwQhTtEggtt6bcoVa4lcL3taRcKyzbuZi2qNxK0rQ0bV1IYtJiyE0mqQmQmFgEYzuSbVm3nffzO5qzPjua3ZnZnZVWq/8+j72zM2fOnPM7s6vVT+95D9FUD53/3zt5Hi4rXDMydVCxP43vZ8xcDwKrQMRPDPthInoBM+tfcHUVw9Y6QBbaBH9Ft8dFZP+xaUufP+200/4B4qq60crlcteJiCZ516ml66qrbdbO3icie3VqoP/z/1uTk5M33HzzzTpdsOJHd3f3SzOZzFdTfp9uZ+b3xI0Cq7jx9XEid3d3PyOTydzMzBrdqWkoOmrZNAisWtKdvbohsKpn3dPT8wxmvtafJq7vPf1Xz7kvdYq3Rsvu1ZVgXdf94pYtW35cPYn6rwECqzZjBIFVG661rLWmAstreNfXM5ecOfVxh/iFQnQ2kajlt6KiKoi8mv7maXGZFkHF/qp85JU5OZ7AIj+Jux3KVY0U8gGUi/ZJQwqFcSpQSymiqdDOoD1Mi1USyVeiDbE4VDOeMftakWCr0dtfQ60deoRc+i41cx+fc5f+UodHnRHwI7A0qXhNIhMSRmCF0dFfPF+UyWTeyswdIrLan5ZQD19+NX/R48y859hPokHXdfsxVTD9G/wtb3nL2SKieVU0ZcBqEdFfhmr/3SKiKyKi06AfZeYR6y/yt+Xz+a1btmzRX35Se/T09LzMcRxlkKZovnVycvIDN95442BqDZ0HFamQyOfzOl31imOrFmaY+SQReSozt6TZ/NkUWFdfffXrM5nMn6TZfr+uhycnJ/tuvPHGnTWoe15U6U9Fva0WjXVd912bN2++rxZ112Od/h/M3sDMb9DoWhHp8CNt6+GPU/pHB50eqN9Vdargd3/yk59sCS6oUY9c02xTLpcb8KPl0qyWpqam3rF169YHG3HaZRxQuVzuCiLKxSmbpIyI3Nrf3/9/k5yDsvEIzNqXzM7ery9ZNjr1DiJ5AQmvZKKLhOT4h6L1y33ZyCvtV2Teq5jyatp6ReTA0ggsFVgxJYXXvsJ//iiUisKxy8WJwqm0DSFyZkYbQ9ocW7iUkD9REq4sJ789sVmWEVDl+hHVxkTjGdaGakRhvDdxglI6x/aXRPQzctx7KeP08zl3PZzgfBSdZQL1kAMrQZe5p6fnUsdx3qFTEUREIymezsxPS1BHtUV1OsEDRKTJ2Icdx7n1WHTQ1/v6+opWjav2Ijh/JgFN9r5kyZLnO47zbs2Rxsya8F3Fq0bn1WrVK81X9eSxZOePEtH+Y9NCdSXJ6Z8aIg+KyNeGhoYeuv3228drOWZ+DqyvENEZKV5nm+M4G/v6+h5Jsc55VVV3d/cix3Fe7DjOBs3VIyJ6Hy1h5jNE5JRqpNZsCqx5BR2NBQFNvnfNNc35fP4VzPx6zX3p/zx/GjM/dRZzYP6vv5iFRlwd1lUUmflW/DzHLQoCIDBrAquAurfXefbw2ec2ZeQ9xLRMSNqYnLNE3GcwkVMUQxMQVf630uJRm5G0vYS8CviZQrasaIF1JbHcNFNKVSB8olbvi8rPNP2t3Op/nKinUvKsQuHjXT2GlIkSQ1FiaoY4CvQ1qv6yrMJkYb1JvtQ+nHQlwYe8v1wJTRHzbZQf+QZfeH9VU2ZSax0qKktgHkRglWz/q1/96sUnnnjiax3HeY1fSH/5XOpHaOkv+lWtgCQiE8z8kH7BPZZwe9x1XdL8Vsd+sf3KyMjITwcGBvK4veaMgNPT06OJuV+lAsL/5UcboxE1LX4S+BP8ZxVd+k8lowrIo8x8lIgm/DHe7ydWzzuOk9dxNo9j+VsmXNfdLSL/cixqYNehQ4dG52Lcr7766v/jOM7n/WiFVKCLyJePsfrUpk2bfpVKhQ1QSW9vb9OePXtOZeaXE9FzRWRJoFuOH/2n320L0tTPfadPYu4hERlsamr6Yl9f328bAA26AAI1JdDV1dW2fPny14jIq/x8dfrztslfhEEjT/UPVfo5nvSh31F/7kdLHxWRws9t/ePT8PDwbQMDA/rzAA8QAAEQOP79b45Z8EXv3rK8NdP8e8zyChI+/gsNE4ur4ePEJOKJNu9ra9DZ+DuKd7uRKfxcc57k/+rHf/OWkuHXMvTOq0h4a8mV/2JFZsVIxJ6GkCkbVRVDOsUSU/RdYrGSfAcHxP/loiiFov3CLz8jxWJImRk3p1Wm2HRaJQMVF17aJ8S81ox7rXAX+tcLLVCcP9KNKFOyHxW8M1nyJOwWWU6XfkNNdBuNju/gZ+1EFEoFWOfyFD+kf5cvfVJvSgpTCGO3SVczbGtrO6WlpeVlInJJMMcGs7dqrf5jzbWuFfvRNBplE5aUdTSfz982OTl557Zt23SaGB51TkCjtJqbm9vb2tpOzefzZziOo1NUTtTpKsw86rquRs4d0NWkMpnMYdd1D4+NjT2SyWQm2traJur1L+9XX331H2Uymf9HRIVFa1IYik/n8/m/Snu6Ywrtqtsq9DNGJWl7e7uTz+czS5cu5X37vNmi+fb2dmlpacnX6z1Ut1DRMBAoQeCVr3xl6+rVq5c0NTVdyswvqnBRjydE5L8mJyd3jo2NPTkwMDAB4CAAAiAQRWD2I7CiWmSO9/Y66/d2ZJZOtGTGVxz02qmJTNJ+/Gr5yDiVWYVK9r5jA5EmcTePtCOagsm74kQCJSnjl42KeCo3za7QdSFy5Xxqda0pDfjjcNl7shY3bdgFO1qFnkpTRNvzzDM1b9rvG9Q3OwT8CCzNgXN2La44mwIrqv29vb3O4OBgk/7yeeTIEe8z/5RTTnF//etfT81FVE1Ue3EcBAyBXC735mNRCZ9OM/H4sUi092sU1ubNm7EqLG41EAABEAABEAABEPAJ1K/AqpMhkj3v2ECZSlYh1A7EiHoKTYIeNsXNry9MpM1YfjHmFDmvriRt1JiJ/Fo+feBndTI8aAYINDSBhSSwGnog0bmGJpDNZt9+LFpwIxGdlFZHXde9pqmpaSsihtIiinpAAARAAARAAAQagQAEVsQoTgssswqhJZFiRzTFEU9JIqoStMErWiJPViXySmVXswuB1QjvfPRhXhCAwJoXw4RGLnAC2Wz2fcfyd72PmVelhcJ13Ss2b968La36UA8IgAAIgAAIgAAINAIBCKxEAitGtFKciKaoZO6JE7WHSLIZUwJTmvoIgdUI73v0YZ4QgMCaJwOFZi5oAtls9npm1tU3V6QFQkQ29Pf3fy2t+lAPCIAACIAACIAACDQCAQisWAJLpnNglY26ipGo3asjbPW/BFMGyyZq9xtZrbwql1C+WRCB1QjvfPRhXhCAwJoXw4RGLnACuVzub4ioW1fZTAsFBFZaJFEPCIAACIAACIBAIxGAwIojsBxfYBXlxk4poinWKoYxE7GXlWxxosdiSDgIrEZ6/6MvdU4AAqvOBwjNAwEiyuVyOtXvtWZ5+TSgQGClQRF1gAAIgAAIgAAINBoBCKxIgfX2DeSUWoXQN0ZRK/iVi2jyqgiLyirYqOkWVpXLKoa8ijttUWQtPx1J3BvtgwD9qU8CEFj1OS5oFQjYBHK53L+IyO8xcyYtMhBYaZFEPSAAAiAAAiAAAo1EAAIrkcAqFXUVkE12pFaUnIo8XqbuktFb9jnVyKuQqY1CEFiN9AmAvtQ1AQisuh4eNA4EPAK5XO77IvJ8Zk7tOxUEFm4uEAABEAABEAABEJhJILUvW40KV/a+fQOJRmClPGXQc0ymzhIrBcZe6bBMBFdFdQSkWZFkc79PxEemx9sWXK51CwT7Yw7ZZcy+UtMj7TsqeJ5dv0s0o9pSqzqWq4esekr1JdAvkSPkyKf53Dt3Nur9j37NLQEIrLnlj6uDQBwC2Wz2Tma+NE7ZmGWGmfnqr371q9+KWR7FQAAEQAAEQAAEQGBBEIDAihhm2aNTCGk6ibvnbJJO9ytRPlRelZM5lQq0qOsHRFR09FjeBxGPR5RAK1w+SsIlbmdAsEWMW8l2+ud5TitQB/OTJLKBz/vBvy6ITwt0ctYJQGDNOnJcEAQSE0hbYInILhH5k82bN/9n4sbgBBAAARAAARAAARBoYAIQWLEFVoypeCo4QvNhWfIjSpTURPjMiByyel2h4CpqZ6mIp1LSKKkIrLCNM4RjiISK4h06noWdTxLJ5dx557808GcEujaHBCCw5hA+Lg0CMQmkLbCI6Dsi8pH+/v4HYzYBxUAABEAABEAABEBgQRCAwIolsOSWcDFlT6GrNDKrVB2lZEvI/kIfwgRanDbGEWylyiSVVzEkX5F4qqD+QlOTRF0FJF9JGWnzpCeJIbAWxCflHHUSAmuOwOOyIJCAQA0E1ufGxsY+c8sttwwlaAaKggAIgAAIgAAIgEDDE4DAihRYb9tAbFYhrDASKFaUTxLZYhqdYFphGlMfY/UjqWCLI+riSLgisTRzul9cyRdHXB0v8yQxIQKr4T8m566DEFhzxx5XBoG4BGogsN7lOM6X+/r6JuO2AeVAAARAAARAAARAYCEQgMCKJbCsHFhJk7mXFEe+uKm5FIoR8RTVhoJjCpNs/r6ydSSdMmhLrQTyakYbEsqxOPKqaDw1Ait/OXfuwBTChfBpOQd9hMCaA+i4JAgkIJDL5U4WkVuZ+VkJTitbVETe0t/fvymt+lAPCIAACIAACIAACDQKAQisWAJLjidxryrPlSVUqsohFScfV6lVDqsRQmHT+dLKcxUim7xdSadmxpFWAUFWPs9VmTaowHIhsBrl07AO+wGBVYeDgiaBgEUgm81eysxfJaJz0wIDgZUWSdQDAiAAAiAAAiDQaAQgsJIIrMQypYIph1EyJXGU0FzkkIoR9RVHTlUr+QqeKo5kSzpW3o0DgdVon4h11h8IrDobEDQHBAIEcrncu0Xk/cx8ShpwRLwvGtcgAisNmqgDBEAABEAABECg0QhAYMUVWFHyqibT8AoGxm9ljMir0HamFXXlt2eGZEuQi8vrSZJ+lBJLIWwKYxmj/kIbykR4hcrEohsGAqvRPhHrrD8QWHU2IGgOCAQIZLPZPiJ6EzO3pwFHREaI6Nr+/v6vpVEf6gABEAABEAABEACBRiIAgRVHYJHrTyFMGqUTJ7F4EtlShbSpSrBZ1y1XT5Tk86pJOiXQlI+ZayuOHAstE0fyzbhZILAa6dOwDvsCgVWHg4ImgYBFIJfLfY+IXpoWFBH5ITO/b9OmTT9Iq07UAwIgAAIgAAIgAAKNQgACK7bAqlBeRSUWLwidpJFAcYSLkT5lptCZpPRRgqvs1MaUJFzJNsSRVzHLxI4eC8rC0BsFAqtRPgnrtB8QWHU6MGgWCPgE0hZYRPTliYmJT950002PAzIIgAAIgAAIgAAIgEAxAQisKIH1y7dsoEzIKoRRwqfgPyIijspFJJWVRn7DoyKaIo8HRU1Ie+cs6spqW/Hqf9PTEAuPFARa2dUiS94kEFj4RK0pAQismuJF5SBQFYGurq6WZcuW/TMz/25VFVknu677vkOHDv3VwMBAPq06UQ8IgAAIgAAIgAAINAoBCKzYAitBxJPnXWzBEiKJYkcCJY38sqWPfd2EYipRZFaZvlYr0KoWhT6DcjKwMnmlFUNgNconYZ32AwKrTgcGzQIBIuru7j4/k8lsYeb1aQERkXf39/ffkFZ9qAcEQAAEQAAEQAAEGokABFYsgSXTObCqlimVTnMLCLAoKVQk0JKKqxjCx8CI4hEVQZaoH3EkYAVlQqdwxn6LQ2DFRoWClRCAwKqEGs4Bgdkh0NPT815mvo6ZT07jiiIyQUTv6e/v/1Ia9aEOEAABEAABEAABEGg0AhBYcQVWLNkSIlAK9UdNc4s6Xk4sWdeteR6pUonYq4lQi5JsIRFeUXIsTjL36uSVQofAarRPxDrrDwRWnQ0ImgMCFoFcLvf3IvJ6Zs6kAUZEfkpE7+/v7/9uGvWhDhAAARAAARAAARBoNAIQWHEElmNWISwhqGZIo5By1SZBjyXQovJtVSPYSgm0hLmooqK2Ck009UbJraSso0Rgorc4BFYiXCiclAAEVlJiKA8Cs0cgm81+i5n/MK0rishm13V7t2zZsietOlEPCIAACIAACIAACDQSAQisSIHVs4Ecnp5CGEwcPkO2VFAmchXCUhFPgWtFJoOvRm7FaEMags3rUql8WtVEqMWJDqvobQ2BVRE2nBSXAARWXFIoBwKzS6Cnp+dpjuNsJqIXpXjlP9+0adMnichNsU5UBQIgAAIgAAIgAAINQwACK0pgPXr1VcS89XixUjIkRF7FnuaWVqL2Um2oRl6VEkfWtaLkVeKoK7sfpfKG6Rd8+QWJ/DsxPUki+oW/mYhPJpZLSejMGdKx8mTt4XcJ035y5E187t3fa5hPBHSkrghAYNXVcKAxIFAgkM1m38fMf0pEaeW/EhH5yObNmz8FzCAAAiAAAiAAAiAAAqV+BQeZsgSkSGDFTMJe8C+lxJFfoJzYiZJCXhVJxFSpqXgh0qtAJEbUU1QEWVQbZ/Qj0J5g/Sz7yJWbyeG95Mpj5I59n5a0DdPoPpeOLmqi9uaTSFouJpIzKE8XEtPLiGX18eC5YIRXNW8A2U9Cb+LzIbCqoYhzSxOAwMLdAQL1SSCbzd5ERFcwcyp/CBSRX/oCa1t99hitAgEQAAEQAAEQAIG5J5DKF6+570btWiC/6nkzuXKj7XRCpxJ6BWIIn9AycfJIWWIncURT0jxSMeRYkXhKGkEWRwTOkHyjxPQP5Mq/E43fzp07DkSNugxe8nQi52IifieJPHM6QivNBwRWmjRR10wCEFi4K0Cg/gj09PRc6DjODWlOHxSRmycmJj5y8803P1Z/PUaLQAAEQAAEQAAEQKA+CEBgRYyD/Kr7SnL5pukInlL5mVKSV4mjlUq0p6hQXTjgAAAgAElEQVStceRYGmXsqZVBVkkF2gwROEoi11HG/Vc+5/u/SPrWkcFLX0DEl5MrlxPTCUnPL11eDhDJm/i8Hf+aXp2oCQSOE4DAwt0AAvVHoKenZyMzv5uZU/t5IiJ/0d/f/xHkv6q/8UaLQAAEQAAEQAAE6ocABFaUwNrTs4FcuaVs1FXB15SZ0heVD6sqeRUV0RR13IdQcRviJEmvOHfYFJFcQc1t3+a1t49X+taRBy89g1jeSi79MTEvr7SeovOENIn7GyGwUqGJSkIIQGDhtgCB+iKQy+VOIyKNvnptii074Lruxzdv3vy5FOtEVSAAAiAAAiAAAiDQcAQgsKIE1i97NhC7/iqEBVNljI/ltSqUV2UTi8cRT1Floo77fQoVbIH+hrY1Zv1xJF9YGXGvo8H/uoHfQPlq330y+OxTSJo1If9LiDiN6YRYhbDaQcH5ZQlAYOEGAYH6IpDNZt9DRB9k5tUptuzWfD7//i1btuxKsU5UBQIgAAIgAAIgAAINRwACK1JgXbWBmMMjsMrmoionhsKikWqRR6rSnFxxxJVVJnHkVkwRKPIQtRy9mNfeM5LWO0/uv+Qccni7t1ph9Q8IrOoZooYyBCCwcHuAQP0Q6Onp+T1m/iQzPyfNVonIFx555JH3bN++fSrNelEXCIAACIAACIAACDQaAQisKIG156oN5FJxBFbUdMBEydzj5LEKET6FXWUiv7wypY4nTdReqg1R1y9xXoF7Gck25V7AF3z/gbTfdHLfpVdRRr5ExIurrPsgkXs5phBWSRGnlyQAgYWbAwTqhoCTzWY/wswfJKJFKbbqMRH5eH9//6YU60RVIAACIAACIAACINCQBCCwogTWo2++gohvni5Wy4imOHmkLBlUNvorrJ1pJGoPyKhyyeLjCLbyIvAndO72ZzNXP3UwOMSy55I2Gnb2ElWd0B0CqyE/FuunUxBY9TMWaMnCJpDL5a4hok8QUZpTB0lEvpbJZN7e19c3vLAJo/cgAAIgAAIgAAIgEE0AAitSYF3ZRcRfN/6qbDL3yMisUlFPceRVpbmmAhFeiaf7RU1tjDpuACcUaE0Tz+Sz7743+haurIQ88Lx+YuomYqeyGoiI6bfkygY+/+7vVVwHTgSBMgQgsHB7gMDcE8hms29k5s+KyKnMnOb3ptFjQuyLmzZtet/c9xItAAEQAAEQAAEQAIH6J5DmF7H6720FLZRfXvn7RHzb9KkVJmr3Tq1mql2l8spuc5zosWramUYbrfa2Da/gM+99soIhi3WKPPScM2mq6eGqkrkzPU4kb+bOu/8j1kVRCAQSEoDASggMxUEgZQLXXHPN813X/Usiei4RVf4Hj5B2ich3RkdHc3/3d3/325SbjepAAARAAARAAARAoCEJQGBFDKv86ooLaYqtSKCQnFVRkVeR8iotuVVKssWQV1FtLCnhSkWPhbQlipM9RXPR4RP4rJ01nVIhDzxvgriq1QgHifJv5fN+eFdDfjqgU3NOAAJrzocADVjABLq7u5+dyWT+kplflLa8IqKjItLf39//jgWMGF0HARAAARAAARAAgUQEILCiBJZctogePf3ojOirKBmTSAhVmMg9qg0FIVRN5FgpKebvT5yLK47Y4kGi3z6XOwcPJ7qbExauXmDJ90jy7+Xz77k/4aVRHARiEYDAioUJhUAgdQK5XO4CIvoMEb087cpFvC8I333kkUdeh5UH06aL+kAABEAABEAABBqZAARWtMBqokdPm5wuFiOSySsWEVFVVCakbJQUKjigOCsMxslRVaMysQVbQGqJ3E354ZfxhfcfqeWbr3qBRX9NY2Of5WftHKplO1H3wiUAgbVwxx49nxsCvb29zmOPPfY8Zv4CM19Yo1boz4zPbNq06XM1qh/VggAIgAAIgAAIgEBDEoDAiiWwTp3wUnZHCZmS4soSNCXlVIo5pGa0M2Ei98QCrRoJF5BX05B3EWUu5s7t9R2BJW6WfrrjRn5D+islNuSnDTqVmAAEVmJkOAEEKibQ1dXVsnTp0t91HEcXbllScUVlThQR/T7xnf7+/jfUon7UCQIgAAIgAAIgAAKNTAACK5bAOm0vifhLZ6cdrZRUXIUKH78XYRFipXJUpd0Pv11Rki9eFNsYHR09hZ9V5zmw2N3AnTu+1sgfEOjb3BKAwJpb/rj6giHg5HK5NVNTUy/OZDJbmDlTi56LSJ6Ivj85Odl100037a/FNVAnCIAACIAACIAACDQyAQisSIFFDj12xZ+T6248XjQgf0KljSWaoiKaoo4XqoozZbCE4Eo0rbFUHUnlWUj5KMFl2tl2tKZJ3OWnz1lF+aahilchFDlKIlfxBTsGGvkDAn2bWwIQWHPLH1dvfALd3d2LiMgka7+kVj3WvFfMvMd13Y9u3rz5plpdB/WCAAiAAAiAAAiAQCMTgMCKMbqyu2s1NTX/ZrpoWhFNfl1R8ipK+ERGNMXI2xXVhrICLUb9kW20WfjbrnsBX7DjgRjDU1ERefDSjxHRh4iosr+0s3sH5d0P8AX37KyoATgJBGIQgMCKAQlFQKBCArrKoOM4ZzuOc2PFPwviX/uwiPT19/dfF/8UlAQBEAABEAABEAABELAJQGDFuB9k94Zl1OT+gohWFiRWUVqpCqfjFYmjpHmkUkgW77miUlFdpURdKYlXpp4oCRfWBpFv00/vfn0t8ktJLznUdekTJLKKiCt7D7D8GS3e+0U+85djMW4hFAGBighAYFWEDSeBQFkCKq6amppOEJGvM/MJs4BrTET+vr+//+pZuBYuAQIgAAIgAAIgAAINS6CyX94bFkd4x2T3K1spc8KniOlPSwsfS+wkjmhKKq/iRD3ZcqqC+gvdiRBc5QRYVZKPiPJ0Dl9418Np325y7yUvpybnH6tI0nuImK7lzru2pd021AcCNgEILNwPIJAOAX0vnXXWWbq64Apm/pTruucyV/gHjGRNmhSRbSMjI7mBgQHNgYUHCIAACIAACIAACIBAhQQgsGKCk71dZ9BY5hEiapo+JY2oK7seO5l7mfrjTMcLlUrVTH0Mac+MqKo4ecHilCkakK/xeXdtiDlEsYrJAxefTE7T90lkbcXRVyS3Ek19hM/77/tiXRSFQKBCAhBYFYLDaSDgE8jlcmcS0QUyvRDL+5j5LCJyZgmQ67rujUNDQ9fefvvt47N0TVwGBEAABEAABEAABBqWAARWzKGVR1+1gtylW0nkNcWn2OIpKlqplJiKU0cl0/1MexLIq7LRY377q5VXJaO2QgaDpYc7794Sc5jKFpMfrW+m1tYPEfOfVRx9JTRFJNfReXd/nrnIYqbRRNQBAkUEILBwQ4BAcgLd3d0nNDU1Pdt13TMcx7mUiF4tIqtmKeLKbnDf448//k7Iq+RjiDNAAARAAARAAARAIIwABFbM+0KEHHq062Jynf8gokXxkrlbwqqkGIozHTCFMkXSqIRIi5r6WDaXVTVtLDsI4+S4f8zrdvTHHKrQYvKflzXR6sluIvoLIjqx8rrkB0T8IT7vrjsrrwNngkA8AhBY8TihFAi87W1ve+rk5OTziEgjrTqI6JXMfC4RNc8FHRG5IZPJvLevr29yLq6Pa4IACIAACIAACIBAIxKAwEowqjLYtZLanI8TydsLp0UlQY8lhUpFblUTdWXLsyoTtUdOW4whr5JEXRWNiZ7ITxK5H6XzdnyJi+duxho9eXj9iTTe8kfkOB8holNinRRe6PCxHGi9dN7dn2Mm5DKpAiROjUcAAiseJ5RaWAR6e3udxx577KnMfBkRneyvIHg2M7/El1ezNUUwDPyoiHxhZGTkQ8h5tbDuS/QWBEAABEAABECg9gQgsBIylt2v66RM5pskdHbJPFhmZlmUvPIcUxWr90WdH+u4Jbo8FgkTvkcJvLJtiAvfl1gif0PkbOfz79we+8z7L/lDyvDLSPh1RHRS3PPCy8mtJPkP8/n33F9dPTgbBOIRgMCKxwmlGpvAlVdeeVJra+sLiegZ/vTvDBGdQUS6Tz/X9fWcP0TkHmb+xvDw8A0DAwMTc94gNAAEQAAEQAAEQAAEGowABFbCAZXfdC2hQ5Ij4r+ePjWh8CmSW/b5cRKcJ8hlVSSO4iScD+lL2SmDfvkoSRdaR0Lox4uPH8tB9mNy+C4S2Ulj49/gZ+2cMT3Di7iabPl9Ir6QmF5KwudUPY1E5AFy6KPcefd3Km49TgSBhAQgsBICQ/F5TWD9+vXNF1100XMcx7lY81cxsyMimrpqhYj8DjM/hYgW12MnReRLx5LFf3NkZOQHkFf1OEJoEwiAAAiAAAiAQCMQgMCqYBRl8PdPobbFHyShdx4/PU4i9rAytlxKacpglLyqKFF7KcEVR44F+lgB8+JTZJKYf05C95DI1IzqmJYR0TOJvF92/FUjq7roESL5Wxob/xg/a+dwVTXhZBBIQAACKwEsFJ03BK699toV4+Pjz3Uc53dE5NRjuQlbp39sSZPjOGeJiE4HXDWLqwVWzE5E9jPzFyYmJr5600037Q38VavienEiCIAACIAACIAACIDATAIQWBXeFfLI69YS8ceI5I2FKiqKRrJWCowd8RQik0wjSiZrjynYKmpDnOixCkHXx2m3k+v+KV+w46H6aA5asVAIQGAtlJFu7H5ms9lXENFVZhVAEdEoKp0CeBozLxeRzBysEJgG9C35fP6fReSOrVu3PplGhagDBEAABEAABEAABECgNAEIrArvDpHLmuhnKy4l5k8Q8fOryodVVR6pqGmFpY6HSLBq5VXFidorHITZOE3kv4in3sXn/fd9s3E5XAMEbAIQWLgfGoFANpv9w2NT/z7DzGsboT9E9FMi6p+amvrGkSNH9iBZe4OMKroBAiAAAiAAAiBQ9wQgsKoYItnT1UYTU68kYV3d7pnTVSXMiVWQPlWsRBgr8itiJcJYdRhYYX0s0/4qGM/pqUI/JMd9O3fu+MmctgMXX7AEILAW7NA3VMevueaajnw+v5GZ3zrPO6YrDP7tMRG37ejRo7u3bds2Ms/7g+aDAAiAAAiAAAiAwLwiAIFV5XDJfS9rpyWLX0HCHySi9UUSK3ZEU9I8UlFRV5ZIKzml0C8Tu40l5JwKu3QTtVc5IimdLrSTaKqHvnHPg9xLbkq1ohoQSEQAAisRLhSuXwJOLpf78LGcVh+r3yaWbVleRP5BRL4sIg9v2bJl3zztB5oNAiAAAiAAAiAAAvOaAARWCsMnd1/SRieufglx5oPEcqlXZVSi9KjIqzSmFRa1oVRkWCkxFVNwhfYjBahzWoXcS5P5N9BF9/yMuSikbk5bhYsvPAIQWAtvzBu1xz09Pe9l5k8e+9c8j/qof7y4zXXdv3Ac5+ebNm1ScYU/aMyjAURTQQAEQAAEQAAEGosABFZK4ymDXS20aOIZ5PJHiairbE6sGRFLcZKgJ8hlNUOgJay/ZFRVWD1przCY0oBUVI24RHwfTbmv5ot2PF5RFTgJBFIkAIGVIkxUNacEcrncS4jok0T03DltSLyLTxDR9yYmJj68aNGivX19fQcgruKBQykQAAEQAAEQAAEQqCUBCKwU6UovOdT18hOopfWzRNxTLLG8NcKtq1mrD5q9aURdefKqTL6rqqcMlqs/RZizXpXoLyy30+RoNz/zXqwmNev8ccEwAhBYuC8ahUB3d/eipqamTxDRdfXaJxE5xMy3TExMfLKpqWlk8+bNhwOJLeu16WgXCIAACIAACIAACCwIAhBYNRhm+dH6Zlq+5r1E/C4iOskTWVHiKEpeRSVZ98RV4T+/VwFJFlVHUTBV0rxcNQA5W1UKHaHM1BtIDt/BnYMqsvAAgbohkM1mX8jM3yKilWk3atOmTfgZkDZU1FeSQDab/QQzay6senscEJHukZGRO1asWDHV19c3WW8NRHtAAARAAARAAARAAASI8MtLDe8CeegVz6BMcx+JvMC/jM87bDpgUmHkl48tpaqIyiop12oIb1aqFiGmIVp392nIdTUrwHGRKghceeWV7a2trVkR+WvyP7uZuarPcAisKgYEpyYmkM1m/+zYVLw/Z+aliU9O6QSRoh9on7n33ns/unPnTgirlPiiGhAAARAAARAAARCoJYGqfvmpZcMaqW7531dpXqxriLmDRJzpXz5NVFYccaU0SiVhjxJTUcdL1O0NQMOuMDhFTGMkU6/l8+/5t0a619CXhUHgyiuvPLOlpeVDzPxGIsoQUYv/nAgABFYiXChcJYHu7u6LHMf5tOM4L6+yqtin+8JKBdUkM+sPxFvGx8c33nzzzb+JXQkKggAIgAAIgAAIgAAI1AUBCKxZGgZ56DVLyZn6JhFdSMwryRX9pdMSU6WStFcouFJNFN8gidpFJon5SSL5No3Iu/h5O47O0vDjMiBQEwKaI+tpT3vaC5j5A8x8ERG1EdHiuDILAqsmw4JKyxDI5XIaQfjuWkISkQlmPkJEEyKSF5GtIvK5LVu26CqCeIAACIAACIAACIAACMxTAhBYszxw8vAfnErkfpNIOojotEI0VsFllYmYqqhMqRUIbXkW2G60KYNetJX8lkT+hzJNf8zrfjA0y8OOy4FAzQl0dXUtWb58+ZtEpIeZTyGiVSLSXm6aIQRWzYcFFwgQyGazn2Xm98SVrFEANcKKmUeJaJiIxv3X/0NEX5mamvrh1q1bx6LqwHEQAAEQAAEQAAEQAIH5QQACa47GSe572ZnUmvlHYmkn4rUkrk4t9B9pRV3ZYipGIvlGmzIoMkzMTxDRjyjD19O5d+6enruJBwg0NoHLL7/85La2tuscx/ldIlpORKeKSGtQZkFgNfZ9UI+9y2azbz02ne/DzHx6Be3L+6LqgMqqY/m0XI22IqIdInJje3v7A5///Od1Px4gAAIgAAIgAAIgAAINSAACa44HVR576RoadW4hTWrrumcS06oZIisqUbvtqcJyZVW1CuIcA0p+ef0FZy+R/JqE7yCmr/B5dz2WvBqcAQKNQSCXy11ARB8gojOJ6GQiUnHQpL2DwGqMMZ5PvXjb29721MnJyRuY+TUh7dZp3YeIaERENHJqjJmnTDkROcLMdziO8+2DBw8+OjAwgGng82nw0VYQAAEQAAEQAAEQqJIABFaVANM6XXZfvIzyy99JRC/WqT/EcjYJtU37qCoSsRemAyatI62ezVI9TL8loUe8qYJEf0/u4W/xhfdrDhQ8QAAEpglwNpv9AyLKEdFSZj5n06ZNawAHBGabQDab1SmErwq57h5mfnBqaup+ItozOTm5d9u2bSOz3T5cDwRAAARAAARAAARAoD4JQGDV2bjIf17WRB3NmoxZp1noL5enksjZ08mZS+WzipJTcaYkzreZdZ6ZO0jMgyR0kIh2kiM38rq7H62zIUVzQKDuCHR1dbUsW7bs2v7+/hvqrnFoEAiAAAiAAAiAAAiAAAiAAAiEEIDAquPbQn5x2SIad55HLr+WmE8ictcQ8blEsjK9yCwFMG/k1RQx7SGhB4lcnWbyM3LcW3jdPbvreBjRNBAAARAAARAAARAAARAAARAAARAAgSoJQGBVCXC2TpfBzhZyV19Azc4riOgp5MpSIuokoqcTyaLj7QhL1h4ncmu2epL0OqLTR3RFqV/okugk/GOadP6Jf+cHWA49KUqUBwEQAAEQAAEQAAEQAAEQAAEQAIF5SgACa54OnAxespK49YUk8mxibieSFUR0Pol0EnHL8agqS14V8mFpp+s06krkN8S0g4QeI4dcEt5PxP/E59153zwdKjQbBEAABEAABEAABEAABEAABEAABECgSgIQWFUCrJfT5UeXnUiL3eeQy88idluJqJmIOojoOUReQnj/UVfi6rck8mMiepgcPqwLopPIXmrO/Budc+du5nq1bPUy6mgHCIAACIAACIAACIAACIAACIAACCwMAhBYDTrOXjL4E90OcuRiInet102XdLyXENNT/OmHZ3mva/kQOkokvyTinxLTY0R0gJiml0XXFQMz+R/T/qb/pUvvOgxhVcuBQN0gAAIgAAIgAAIgAAIgAAIgAAIgMH8JQGDN37GrqOXyo/WLqa1lDQmdRS6fQayrG9oPYWLWnFpLSKiNHG6hvCwipiZiT4Adf7DKKRollVTMo96/vFsc4iUyTkyPk+P+nIadX9MlO4aZKV9R43ESCIAACIAACIAACIAACIAACIAACIDAgiQAgbUgh718p+XrnS10xpJF1DTV4k1FbHWayOUm0omJRQIrM0E0MU5O0wTR/nFe+7Nx4AQBEAABEAABEAABEAABEAABEAABEACBtAlAYKVNFPWBAAiAAAiAAAiAAAiAAAiAAAiAAAiAAAikSgACK1WcqAwEQAAEQAAEQAAEQAAEQAAEQAAEQAAEQCBtAhBYaRNFfSAAAiAAAiAAAiAAAiAAAiAAAiAAAiAAAqkSgMBKFScqAwEQAAEQAAEQAAEQAAEQAAEQAAEQAAEQSJsABFbaRFEfCIAACIAACIAACIAACIAACIAACIAACIBAqgQgsFLFicpAAARAAARAAARAAARAAARAAARAAARAAATSJgCBlTZR1AcCIAACIAACIAACIAACIAACIAACIAACIJAqAQisVHGiMhAAARAAARAAARAAARAAARAAARAAARAAgbQJQGClTRT1gQAIgAAIgAAIgAAIgAAIgAAIgAAIgAAIpEoAAitVnKgMBEAABEAABEAABEAABEAABEAABEAABEAgbQIQWGkTRX0gAAIgAAIgAAIgAAIgAAIgAAIgAAIgAAKpEoDAShUnKgMBEAABEAABEAABEAABEAABEAABEAABEEibAARW2kRRHwiAAAiAAAiAAAiAAAiAAAiAAAiAAAiAQKoEILBSxYnKQAAEQAAEQAAEQAAEQAAEQAAEQAAEQAAE0iYAgZU2UdQHAiAAAiAAAiAAAiAAAiAAAiAAAiAAAiCQKgEIrFRxojIQAAEQAAEQAAEQAAEQAAEQAAEQAAEQAIG0CUBgpU0U9YEACIAACIAACIAACIAACIAACIAACIAACKRKAAIrVZyoDARAAARAAARAAARAAARAAARAAARAAARAIG0CEFhpE0V9IAACIAACIAACIAACIAACIAACIAACIAACqRKAwEoVJyoDARAAARAAARAAARAAARAAARAAARAAARBImwAEVtpE67O+2OMsIqn0gDn2JfV66Vw0lZajEhAAARAAARAAARAAARAAARAAARAAgXojkMgy1FvjF3h7QsdOBdT1119fdGxwcNB73dXVVYRs165dscd/7969oWXXrFkTWz6tW7euqOzAwIDXns7OzqL9Gzdu9F6XkGCxr7fA7w90HwRAAARAAARAAARAAARAAARAAAQahkBsgdEwPZ4/HSkam6CYsqVUUESpbFq/fn2hp0NDQzPGef/+/bx27dpIGgcOHIh1j6xcuTJSLO3evZtWrVo1o1xHR0dh386dOykoxYz4CgovFV0hkiuyHZGdRgEQAAEQAAEQAAEQAAEQAAEQAAEQAIG6IhBLTtRVixuvMYUx6O3tLWwbQdXZ2VnYZ6KgVE7ZUiooo4LS6SlPeQodPHiwaKxHRkaKXnd0dBSRDR6Pg33ZsmUz5NHQ0FDRqWFlRkZGis6zZVhQehnZFRRdg4ODhTpMRFdvb69e2+yH2IoziCgDAiAAAiAAAiAAAiAAAiAAAiAAAnVIAAJr9galpKjat28fX3bZZWRP01uzZo1XXuWUaeKqVasK28PDw3z66adTUDS1t7cXyhw5cqSwPTo6yqtWrSrqre4Ldj9OmTBkixcvniGI9u/fX1Q0WEaPB/e1t7d79TzxxBO0ZMkSb9tIrz179tDy5csL11HRpYJLHyaya+/evYXjGsm1fft2Wr16tbdPxVZAatmCa/buBFwJBEAABEAABEAABEAABEAABEAABEAgEQEIrES4EhUuElYmosoXKd4xFVblRJVKKi23fPnyQl1GUNlyqq2trUhU+ULHa6wtqcbGxnj58uVFndB9wV6ZMmHHyhFYtGiRJ4qGh4dnFDPHzAEtE9ynMsuWXkZuHT161KvXyC3dPnLkSEFUqeCy5db+/fsLx4JiK4bUQqRWotschUEABEAABEAABEAABEAABEAABECg9gQgsNJlrDxZo3yCUwBNdFVQWJmoqmBE1eHDh/nkk09WUeONkR1BFdzW462trV45WzqpiLJfm+1ly5YVeh0mqZYuXUrj4+MV3Rutra2eADp06FARWVtWjYyMeMfsfbptiy/z2i5jCy7d1gitffv2eXUZuWXEVimpFSa09HwzBTEkSgtCK933CGoDARAAARAAARAAARAAARAAARAAgcQEKpIUia/SuCd4/EzuKpVWwemAtrCyZZWeZyKrgrLKRFSVElW2dAqKK5VT9vGWlpaiMTZiasmSJd6oBEVVe3u7t39iYqLie6OlpUWOHDlSNOpGbOnOw4cPq3ArEkMTExOF1yqtgpJrfHy86LgdwVVKbAWl1vDwsFeHmYaokVoxI7SQR6tx38PoGQiAAAiAAAiAAAiAAAiAAAiAwDwgULGkmAd9q2UTNcrKY2dHWmmUlSZL7+zsLOSusqVVXGFlpv3ZcspEU6mcMhFURlQZSWXLKVtMNTc3F8bZiKnFixeHiirdX4280kpVYOnz6Oho0RjofrPPlDHljfBSsRUUXEZumWgslVtm24gtO2IrOPXQRGqp0LJza6nQsmWWtkWF1uDgIK1YsUJKTDeEzKrlOwt1gwAIgAAIgAAIgAAIgAAIgAAIgEAIAQis+LdFUbTV9u3bHTvxukZamYTrUdLKRFYZUWUirkyOKn225ZWJqrKn9qmg0igqI6psSdXU1OS11ZZVtpQyx+0ybW1tBRKTk5NV3RfNzc2FaKmjR4969drCSl9PTU0VyhixZcrYxyYnJ71yQbGlr3WaoonWKie09HzNo2UitfQ5rswySeFtmRWYZogphmuRc/YAAA/GSURBVPHfQygJAiAAAiAAAiAAAiAAAiAAAiAAAhURqEpUVHTF+XdSQVwFo61KTQ80qwOGTQ0MSisVVSaSypZWGlVlhFUpWaVSyo6YsreDEksFlRFTum0LrUwmU3QfTE1NFV63trbGGrHx8fFCuaampiKpk8/ni16rqDJiS2WXbgflVTBaSyO3TJkwqVVOaKncMpFaJiG8Siw7ObyJzArLnWVPM4TIinU7oBAIgAAIgAAIgAAIgAAIgAAIgAAIpEoAAqs8zqKpgp2dnUWrB2rEVVS0lZ3PKm6klcorW1ppXioVTkFhZSSVLatsUWWLKbOtckqllJFUuh2MuAoKraR3XFBYqaQygsvILX1ttk1581xKapnILDtiy+TbCkZo6bRDOzpLBVZwmqGueGhPN4yKyooQWSrpEI2V9GZBeRAAARAAARAAARAAARAAARAAARCIQQACKwSSiPD1119v2DhapKOjg4eGhrx9K1eu5AMHDnjby5Yt45GREe7o6CB91lUDV69erYnK2ZZXJrrKjrhSUaVT/+xpgLpthJWJqLLFlb3PyCo7osrIJ/vZCCqzz3GcwrgboaV9MeVswRXE09LSUtg1MTExg55KKSOrzFRCW1bpCa7reqLHFlalhJaJ1rKlli2wTGSWLbc0n5YKLTtSy2wbsaXXV6ml/2yJZefL0misoaEhHWNNKu+1eeXKlXLgwAFvu6OjQ4972+vWrZNdu3Z52xs3bhRmhsyK8QGEIiAAAiAAAiAAAiAAAiAAAiAAAiAQhwAEVjElFhFSeaXTBbu6uuiOO+5w1q9fTyqvVFxpcZVXKq50W6VVe3u7t7148WJWcaXbKq90uuCKFSs0mbk3TdAkYjdJ1428Ms9GXNkRVUZYmX0qoVQ0GWllnu3IKhNVtWjRIk9KqbAyx4OSSoWUPWUwKLdsYVXuhlKZZU8dNJJKz9H95riKKiO2jMAyZXX/2NiYd9wILS1jJJYts8y5Kq7CcmjZkVnlRJYRWAcPHvSiscy0QhVZo6OjnoQ6cuSIqMTyx1tUYvn3gajE2rlzJ+nUQpVYAwMDpDmyfImlxSCy4nwSoQwIgAAIgAAIgAAIgAAIgAAIgAAIlCEAgXUczgx5tWvXLo2s8iKvyskrO+rKTtBeKupKZZbJb6XySuWUyUlltuOKq2CklS2ttGtGeJmoKiOozLPKKyOxjKyy9xk8zc3NobfR5ORk0X4jo2xpZcstc1yfTbSWLay0Mj1mBJXjOK7uSyqy7Igss60iy86VZaKxTH4sI7PM1EI7GqsKiQWBhY9gEAABEAABEAABEAABEAABEAABEKiSAASWD9CeNrhu3TpWebV37142qwuuXbs2MvKqGnllC6ugzDJTBW1ZZUdcGRmlx+1tjbbSfUZQ2fIqKK70tUqqfD7v3RPMXLg3glFZejyYqN2OuBIRyWQyOoWvKPrKiKygxApGZ9mRWbptyy69ri2z7KmFRlSZqCw7MiuOxNIILBOJZUuscpFYu3fvJs2NVWo6YW9vryfg8AABEAABEAABEAABEAABEAABEAABEKicAATWNLvI6KtyOa9Mrquk0wb1wq7rejm2wiKvVGSVk1cmuqpc1JXWX0pc2ftVXqnECkZoGZFlno3gUkFlbjsVVkZW2XJK9/t9LDzbkVlatlRElpFYmUzG1WmFSSRWOXGl7TGRWPpsorCGh4dJk7zbEstMJ9RnTfAeNyeWPZWwt7cXyd0r/3zCmSAAAiAAAiAAAiAAAiAAAiAAAiAwLW7AYabAMqsN2tMHK8l7FUzYHpw6aASWvZqgnbDdRFwZuWXyXel+O6eVnZzd7Dd5r/TZbGsklr1tCysVVEHRpVJL96u0CgouI5RUXKnMiiOxgvKqVESW1m1yYJnphOXyYpnoKhOZFUzsbiKywqKwzBRFs0phmMCKyocVltR9cHBQNBcWBBY+YUAABEAABEAABEAABEAABEAABECgegIQWNMMQyOwzBTCJKsO6jRCrdDIq1KJ25csWaKr4HG5CCytJ5i03ZZXtoAy+1VSmXPiTB+0pVVQYnlg/KmEwQgsv22euDK3oW4HpZTus6OsjPgqNY0wTF75oq+QMytsGmGppO5GXpmVCTUH1uHDhwurFAYjsEw+LJPQPe6qhKWSuUNgVf8hhRpAAARAAARAAARAAARAAARAAARAAALr+D3Avb29Hg+TA8s/5E3xMxIr7uqDJoG7Rl2ZbV19MBiFpRJLE7nrNeImcE8iscKSt9v5r4JTBs1rI6zKrUoYlpxd5ZKJygrLgVVKYJnVCe38V2ZVwrDpg8pLywZzYJWbPhiUV1qHCiwTfaWvwxK5B3NgjYyMeNJOVyMsF32lZZADCx+yIAACIAACIAACIAACIAACIAACIFA9AQgsS2BpMNH111/Pg4OD3NXVRfYqhHElVlgi9zgSq729XWWKtyKhLbPsbZ1CGDadUMvYUVf62kwVVIGlydyDIstILFNWn4OrD9qrEpa71UxCdxVafns9wWMEV/BZj5VahdBEZhk5ZaYSGrEVTOAejLwKJnI3kVea78pvk2iuK7NdTl6ZHFia/0pXIdRzNA+WCqxS8krzX+3atcsru3HjRmFmrEJY/ecUagABEAABEAABEAABEAABEAABEFjgBCCwim+AssncbYnlywweGRnhjo4O0ucjR45o0nW2JZbKKzON0I7K0mgsrUOfTQRWWDSWL4QKUsvku1IpZefEMvvt3FjB5O72MSO0/DZ48sqgsKOubLEV9l6xo7Ds40ZEmbxXRmyZSCsjpozM0mc7+sq81vM1quro0aPKynvWqKtyUwb1XJOo3UwX1OirQ4cOeYnaNepKy+i2Ciw7gbtZfTBMXg0PD8vy5ctjyStMHVzgn6zoPgiAAAiAAAiAAAiAAAiAAAiAQKoEILBm4vSY6HRCOxJL82GtX7+ehoaGWKcTapmwxO5GYunxpNFYKrBMbiwjteyk7nZ0ltZvyyyzHRRZJjLLFzZeNJZu25LKnOOLH5PDq4iMLbjsAyb6yuxTMaUPlUxmn5FN+tqILTM90JQ1QssWW3qeicTScra00tcqtOyIK7/9Yk8VLCWujLQKThnUOsyqg0888QRpDiyNutqzZw/Z8qpUzis/6kqrQeRVqh9VqAwEQAAEQAAEQAAEQAAEQAAEQGAhE4DAKj36hZxYKrLslQn1FCOyVGLpa82NpVFYut3e3u5FY+m2RmSZZxVaK1as8MSWHZnly5gZ+bF0v0qt4PRCW2ppGSO2dL9GZRlJZQsujcbShxFR5piZYmhjsIVWJW8OW0Lp+WYFQVOXEVFGfo2NjRVFVdl5rfw2ezLIzm9l9us+M01Q99lTBfW1ibjSZzvS6uDBg6SJ2k3ElZ2s3RZXYfmu9u7dK2vWrPHaZFYb1G1EXVVyt+AcEAABEAABEAABEAABEAABEAABEIgmAIEVwUhEWPNi+bKiILLMCoW6316lcHh4WKcMFkSWHrejsozQSiKzTFSWLbO0Xltc2a/DjtliSwWXEVr2ti+FZtwTKrnKPUzUlV3Gjswygsoct1+XklV+W0LFlZFUGl1lb5spgnqumSZoVhVcuXKla6SVHjdTBFVc2Una9ZjJc6Xb+/fvl1WrVnntCIor3dfZ2SnIdRX9QYMSIAACIAACIAACIAACIAACIAACIFANAQis+PRC82PZUwu1KiOzVGSdfvrpXm4s3a9RWfq8ePFiPnz4cFF0li2ztIyd9F23ly1b5u3TYyZ3lp03S/cHpxz6EqeQO8t000RnqdCyy+i2LbniYwkvaaYQas4q89BoKd02eazMfjMN0BwfHR31oq30uC2ogq/LCSuTqN0ILI22CpNWKquGhoY8aWVPE9y9ezeVEleWtNImYapgtTcLzgcBEAABEAABEAABEAABEAABEACBCAIQWBXcIsGoLLNioR2VtX//fl67dq2XJ0svEZxiqPs0Mmv16tUUJrT0uJ303SSC1/1GYhmptXTpUm+qocmhpWV0W591WqFOQTQPfa3bixcv9o4Fu2+iuirAUnSKkVL2TjMF0O9DQfzoFEAjrDSqSo+b5Ot+HwplVUyNjIx4UwODksrvt6is0m1bWO3bt08lorc/uKKg7tNVBfX5wIEDhWgrfa1TBXWaoG4j2qrauwLngwAIgAAIgAAIgAAIgAAIgAAIgEBlBCCwKuNWOKvcFEOT9N0XJGzLLN0XjM7SfRqh5QucwmqG+lqjtPTZllr62hZbdqSWHlPBpXJLH0ZomYabiC27+8EytviKg0lFlP0wMsreZ4sps99OtG72GVGlr42oMjms/P4UpJady0qP2SsI6mtbWPncvZUEddsIK03Krq+HhoYKua30NaKt4ow8yoAACIAACIAACIAACIAACIAACIBAbQlAYKXLtyjxuy9APMYdHR3esyZ/12d7JUN9rRFavlyZkT9L95vcWbptVjc02/psksOb7pgk8fZru6smisveZyK67H1GgEVh0ul8wYcRT/Z+Ez1l7wsTVHpcxZTmrTLb5hwjqPR1HFnl8y4rrNatWycDAwOesNLyfkJ23cQUwajBx3EQAAEQAAEQAAEQAAEQAAEQAAEQqDEBCKzaAg7Nm6WXNLmzdLuU1NJjpcSWHjMrHdrTEHW/LbjMa9NNFV3BfTaCoMTSCK+4D42QMo8weaXHzPQ+I6bsfbptVgU09WiSdd22pwD6fS+IJTt/lR6Liq7SMhBWcUcV5UAABEAABEAABEAABEAABEAABEBg7glAYM3uGHi8e3t7C6saav4sfezatcvbFya2TD4tPW6mIeq2kVu6baYj6rZJGG+6Zosu3WdyboV1PSi/KsETlFDBOmwp5be3KMrJJFY35+lr3TZJ1nXbSCo72bqZBrhz504vd5WWU1Glz3Z0lb9qoO5GdFUlA4xzQAAEQAAEQAAEQAAEQAAEQAAEQGCWCUBgzTLwkMt5YyAidP311xfGY3BwkE1yeHNOmNwyx4JTEi35M2OMbdllt6ejo6NIhFWDJiih7LqMkLL3jYyMFMmkMEFlyquosiWVEVW2pNJ9EFXVjCDOBQEQAAEQAAEQAAEQAAEQAAEQAIH6IQCBVT9jEdaSknJLCwejt3SfSi591gTy+jDTE+3K7YiusIvaUV6V4DHyKexcO2LKPm6ip3RfmJzS/Sqo9GHyVOm2Jan0JSKqKhkwnAMCIAACIAACIAACIAACIAACIAACdU4AAqvOByhG8wqSS8vaUVz6WiO59NnILlOfmbJYqn4jwmJcv1DETNsrd46Z0mfKhEkpcwxyKgl9lAUBEAABEAABEAABEAABEAABEACBxiUAgdW4Y2v3rDDOOlXRfgSFV61wqIwqahAX3XqInKoVeNQLAiAAAiAAAiAAAiAAAiAAAiAAAg1A4P8Dw+q35cBGQSEAAAAASUVORK5CYII=" parent="1" vertex="1">
          <mxGeometry x="421.43" y="68.5" width="128.57" height="37.28" as="geometry" />
        </mxCell>
        <mxCell id="NZK6xFN09U6bkFKJZl6c-45" value="Database" style="image;aspect=fixed;perimeter=ellipsePerimeter;html=1;align=center;shadow=0;dashed=0;spacingTop=3;image=img/lib/active_directory/database.svg;" parent="1" vertex="1">
          <mxGeometry x="594" y="360" width="70" height="51.8" as="geometry" />
        </mxCell>
        <mxCell id="NZK6xFN09U6bkFKJZl6c-46" value="" style="image;aspect=fixed;html=1;points=[];align=center;fontSize=12;image=img/lib/azure2/integration/SQL_Data_Warehouses.svg;" parent="1" vertex="1">
          <mxGeometry x="275.61" y="260.37" width="40" height="40.63" as="geometry" />
        </mxCell>
        <mxCell id="NZK6xFN09U6bkFKJZl6c-47" value="&lt;font style=&quot;color: rgb(0, 127, 255);&quot;&gt;CI/ CD Pipeline&lt;/font&gt;" style="text;html=1;align=center;verticalAlign=middle;whiteSpace=wrap;rounded=0;" parent="1" vertex="1">
          <mxGeometry x="350" y="26" width="176.33" height="30" as="geometry" />
        </mxCell>
        <mxCell id="NZK6xFN09U6bkFKJZl6c-59" style="edgeStyle=orthogonalEdgeStyle;rounded=0;orthogonalLoop=1;jettySize=auto;html=1;entryX=0;entryY=0.5;entryDx=0;entryDy=0;strokeColor=#007FFF;" parent="1" source="NZK6xFN09U6bkFKJZl6c-48" target="NZK6xFN09U6bkFKJZl6c-4" edge="1">
          <mxGeometry relative="1" as="geometry">
            <Array as="points">
              <mxPoint x="103" y="185" />
            </Array>
          </mxGeometry>
        </mxCell>
        <mxCell id="NZK6xFN09U6bkFKJZl6c-60" value="Commits" style="edgeLabel;html=1;align=center;verticalAlign=middle;resizable=0;points=[];" parent="NZK6xFN09U6bkFKJZl6c-59" vertex="1" connectable="0">
          <mxGeometry x="-0.4049" y="-2" relative="1" as="geometry">
            <mxPoint as="offset" />
          </mxGeometry>
        </mxCell>
        <mxCell id="NZK6xFN09U6bkFKJZl6c-72" style="edgeStyle=orthogonalEdgeStyle;rounded=0;orthogonalLoop=1;jettySize=auto;html=1;strokeColor=#007FFF;" parent="1" source="NZK6xFN09U6bkFKJZl6c-48" target="NZK6xFN09U6bkFKJZl6c-36" edge="1">
          <mxGeometry relative="1" as="geometry" />
        </mxCell>
        <mxCell id="NZK6xFN09U6bkFKJZl6c-73" value="Deployment" style="edgeLabel;html=1;align=center;verticalAlign=middle;resizable=0;points=[];" parent="NZK6xFN09U6bkFKJZl6c-72" vertex="1" connectable="0">
          <mxGeometry x="0.3235" y="1" relative="1" as="geometry">
            <mxPoint x="22" y="1" as="offset" />
          </mxGeometry>
        </mxCell>
        <mxCell id="NZK6xFN09U6bkFKJZl6c-48" value="" style="verticalLabelPosition=bottom;html=1;verticalAlign=top;align=center;strokeColor=none;fillColor=#00BEF2;shape=mxgraph.azure.user;" parent="1" vertex="1">
          <mxGeometry x="79" y="95" width="47.5" height="50" as="geometry" />
        </mxCell>
        <mxCell id="NZK6xFN09U6bkFKJZl6c-52" style="edgeStyle=orthogonalEdgeStyle;rounded=0;orthogonalLoop=1;jettySize=auto;html=1;entryX=0.775;entryY=0.991;entryDx=0;entryDy=0;entryPerimeter=0;strokeColor=#007FFF;" parent="1" source="NZK6xFN09U6bkFKJZl6c-42" target="NZK6xFN09U6bkFKJZl6c-36" edge="1">
          <mxGeometry relative="1" as="geometry" />
        </mxCell>
        <mxCell id="NZK6xFN09U6bkFKJZl6c-54" value="Templates" style="edgeLabel;html=1;align=center;verticalAlign=middle;resizable=0;points=[];" parent="NZK6xFN09U6bkFKJZl6c-52" vertex="1" connectable="0">
          <mxGeometry x="-0.1528" relative="1" as="geometry">
            <mxPoint as="offset" />
          </mxGeometry>
        </mxCell>
        <mxCell id="NZK6xFN09U6bkFKJZl6c-62" value="Streamlit &#xa;Notebooks" style="shape=image;verticalLabelPosition=bottom;verticalAlign=top;imageAspect=0;aspect=fixed;image=data:image/jpeg,/9j/4AAQSkZJRgABAQAAAQABAAD/2wBDAAsJCQcJCQcJCQkJCwkJCQkJCQsJCwsMCwsLDA0QDBEODQ4MEhkSJRodJR0ZHxwpKRYlNzU2GioyPi0pMBk7IRP/2wBDAQcICAsJCxULCxUsHRkdLCwsLCwsLCwsLCwsLCwsLCwsLCwsLCwsLCwsLCwsLCwsLCwsLCwsLCwsLCwsLCwsLCz/wAARCADIALkDASIAAhEBAxEB/8QAGwABAAIDAQEAAAAAAAAAAAAAAAEFAwYHBAL/xAA/EAACAgECAgYHBQUHBQAAAAAAAQIDBAURITEGEhMiQVEUMmFxgZGxI2JywdEVQkNEggcWRVJTg7JUY5Kh8P/EABsBAQACAwEBAAAAAAAAAAAAAAADBQECBAYH/8QAKxEBAAIBAwIFBAEFAAAAAAAAAAECAwQRIRIxBRMUQVEGInGRgTJDU2HR/9oADAMBAAIRAxEAPwDrgAAAAAAAAAAAAAAAAAAAAAAAAAAAAAAAAAAAAAAAAAAAAAAAAAAAAAAAAAAAAAAAAAAAAAAAAAAAAAAAAAAAAAAAAAAAAAAAAAAAAAAAAAAAAAAAAAAAAAAAAAAAAAAABHH4kkcQBJTZPSDTsXNnh3K2Lio9a3betNrfbhxLWq6m6EbKpwnCS3jKDTT9zRrF624ieybJp8uKsWtXaJ5hkABshAAAAAGG++jGpvyLpKFVMHOyT8Iricq1HWs/N1CWdG2yrqSXosIyaVUIvu7JePmXfTDWu3u/ZWPP7GiSllyi+Fly5Q90fH2/hNQOHNkmZ6Yeq8K0UUp5uSOZ7fh1rRNVr1bBqvWyujtXkQX7tiXP3Pmi1OTaFq09IzYXNt49m1eTBeMG/WS81zOrV2QthCyuSlCcVOEo8U4tbpo6cWTrrupvENJ6bJx2ns+wASq4AAAcQQ3txfBJbvdrZLzbYAk1nUOmfR/AujRGyzKs68Y2PESlXXu9uM3wfw3NlT3Sa5NJ/MxExPZvalqxvMd0gAy0CCSANO6XYfVsxs6C4TXY27f5o8Yt/wD3ga/h5+dgz6+LdKHHvR5wl+KL4HQ9VxFnYGVj7d6UHKv2WR70TmTUk2mtmm015NFVqYml+qHv/As1NVpPIyxv08fx7N207pTi3bV5y7Czgu0ju6pP6o2OE67IxnXKMoyW8ZRaaa9jRyY92Dqmo6fJPHuahvvKuferl74s2x6uY4ug1305S+9tNO0/E9nTfcSa9p3SbByurXlbY1z2W8uNUn7JeHxNgUoySaaaa3TT33XsaLCl63jesvHajS5dPbpy12SUXSPWVpWHJVyXpmQpV4y8YrlK1/h8C3yMinFpuyLpKNVMJWTk/BLj82ck1XUr9VzLsqzfaXdpr8K6l6sUaZcnRDs8N0fqMm9v6YeJttttttttt8234sgArt9+Xs9ogN36Haz/AITkz5byw5SfNc3X+aNIPuqyymyu2qTjZXKM4SXOMovdMkx36Z3c2q01dRjmlv4/LtZJU6Fq0NXwq7+Cvr2ryYL921Lml5Pmi2LKJiY3eFyUtjtNLRzAQUmr9JtF0dShdd22SuWNjtTt3+++S+JzvWOl+t6qp1Rn6JiPddjjyfWkv+5ZzZrN4hNi02TJ7cN91fpfoml9euMnl5S3XY47W0X9+x8F8Nzner9J9b1jrV22unFb4Y+PvGvb775v4lGCK15la4tLTFz3ledFdN/aet4Nco704z9MyPLq0vup+97HZzSugGndhp2RqU47WahbtU3zWPTvCPzfWZupLSNoVmrydeTb4AAbuQAAA510gw/Q9Sv6q2qv+3h5d71l89zoprvSnD7fBjkRW88SXWe3Ps591/Lgzm1NOrHK78E1Pp9VET2tx/xopJBJTPpYWGBrOo6dJKu1zq34027yh8PFFeQbVtak71Q5sGPNXpyV3hadIdeyNUoxseqqVVEftL11lLr2+C4eC8DWCz9xjsornx22l5r80Szmm072V9PDaYKdOHh4AZJ02V81uvNGMkiYlBas14tAAA123WeiatbpGbG/ac6Zx6mRVF7dePNNb8N14GTWOmus6g7KMXfCxXvFqp/byX3refy2Kg8uTV/Ej/V+pPjvMfbKt1Wjpe3nbcvM222292+Lb5sgAmcYZsbHuzMjFxKVvbk3Qoh7HN7N/DmYTcugGm+k6lk6hZHevT6+zqb5ekXLi17o/wDIzWN5RZcnl0mzpWJj1YeLi4tK2qx6YVQXsitjOAdPZ5vffkAAAAADHdVC6q2ma3hbCUJL2SWzMhG49mYnpneHK8rHniZGRjz9amyUH7UnwZhNm6W4XUyKM2C7t8ezs2/1Icn8V9DWSizU6LzV9X8P1PqtPXL7z3/IACJ3gAAGGzHrnxXdl7OXyMxBmJ2aXpW8bWhXzqsr9ZcPNcj4LPnzMFmNCW7h3X/6Jov8uDJpZjmjxhpNNPk+DPudc4PvL4+B8G+/w4rVmOLK+2t1ya8Hxi/YYywtrVkWvFcYv2ngaabT5rgzqpbeFPnx+XO/sNpJt8km37kdj6Kaa9M0TBqnHa/ITy8jz7S3vJP3Lqx+BzHo7p37U1nTsWUd6VZ6Rk+XY0d9p+97R/qO2nTSFHr8nbHCPEkAlVYAAAAAEfoSAK3WcP07T8qlLexR7Sr8cOKXx5HNTrfmaDrWh5uPkX30Uysx7Zysj2S60q3J7uLiuPuODV4pt91Yet+nddXF1YMk7RPMKLiSTKu6Hr12R/HCUfqj560Vza+aKzafd7eLRPMSkABtuAAMgADCGk1s1uvaeezGi+MHs/J8j0kdaPmvmjMTMI70reNpV0oTg9pJo8eTV/Ej/V+pe9Rz4KEp7+ChJ/RGSjo/qWdZGuiiyEJNKdl0ZxrhF83uzqxXtM7KbWYcdKTNpjb/AGvf7PdN7PFzdVsj3sqfo+O3z7Gp96S97/4m9nl0/Cp0/CxMKlbV41UKo+3Zc37z1FtEbQ+d5r+ZebAAMogAAAAAAAAfIACHGD5xi/etzBLEwrPXx6Jfiri/qj0EcfMxMNovavaXhlpOkT9bBxn/ALUPyRjeg6E/5Cj4Jr6FnxI4ms0r8JY1Oava8/uVW+j2gP8Akq/g5L8yP7u6B/0UP/Kf6lrxBjy6fEJPXan/ACW/cqpdHtAX8lX8ZS/U+loGgrlgUfFN/VlmSIx1+GJ1uon+5P7l4I6Po0fVwMZf7UX9UZoYWDX6mNjx/DVBfkekG0VhFbPlt3tP7fEa64+rCK9yS+h97exAGeEe8z3AAZYAAAAAAAAAAAAAAAAAAAAAAAAAAAAAAAAAAAAAAAAAAAAAAAAAAAAAAAAAAAAAAAAAAAAAAAAAAAAAAAAAAAAAAAAAAAAAAAAAAAAAH//Z;clipPath=inset(29% 7.84% 26% 6.22%);" parent="1" vertex="1">
          <mxGeometry x="602" y="295.44" width="55" height="31.132075471698116" as="geometry" />
        </mxCell>
        <mxCell id="NZK6xFN09U6bkFKJZl6c-63" value="Powershell" style="image;aspect=fixed;html=1;points=[];align=center;fontSize=12;image=img/lib/azure2/general/Powershell.svg;" parent="1" vertex="1">
          <mxGeometry x="567.66" y="68.5" width="45" height="36" as="geometry" />
        </mxCell>
        <mxCell id="NZK6xFN09U6bkFKJZl6c-66" value="" style="edgeStyle=orthogonalEdgeStyle;elbow=vertical;endArrow=classic;html=1;rounded=0;endSize=8;startSize=8;exitX=1;exitY=0.5;exitDx=0;exitDy=0;strokeColor=#007FFF;entryX=0.5;entryY=0;entryDx=0;entryDy=0;" parent="1" source="NZK6xFN09U6bkFKJZl6c-36" target="NZK6xFN09U6bkFKJZl6c-65" edge="1">
          <mxGeometry width="50" height="50" relative="1" as="geometry">
            <mxPoint x="630" y="90" as="sourcePoint" />
            <mxPoint x="630" y="277" as="targetPoint" />
            <Array as="points">
              <mxPoint x="670" y="90" />
              <mxPoint x="670" y="204" />
              <mxPoint x="630" y="204" />
            </Array>
          </mxGeometry>
        </mxCell>
        <mxCell id="NZK6xFN09U6bkFKJZl6c-67" value="Deployment" style="edgeLabel;html=1;align=center;verticalAlign=middle;resizable=0;points=[];" parent="NZK6xFN09U6bkFKJZl6c-66" vertex="1" connectable="0">
          <mxGeometry x="-0.5655" y="-1" relative="1" as="geometry">
            <mxPoint x="-5" y="52" as="offset" />
          </mxGeometry>
        </mxCell>
        <mxCell id="NZK6xFN09U6bkFKJZl6c-68" style="edgeStyle=orthogonalEdgeStyle;rounded=0;orthogonalLoop=1;jettySize=auto;html=1;entryX=0.19;entryY=1.006;entryDx=0;entryDy=0;entryPerimeter=0;strokeColor=#007FFF;" parent="1" source="NZK6xFN09U6bkFKJZl6c-4" target="NZK6xFN09U6bkFKJZl6c-36" edge="1">
          <mxGeometry relative="1" as="geometry" />
        </mxCell>
        <mxCell id="NZK6xFN09U6bkFKJZl6c-69" value="Source Code" style="edgeLabel;html=1;align=center;verticalAlign=middle;resizable=0;points=[];" parent="NZK6xFN09U6bkFKJZl6c-68" vertex="1" connectable="0">
          <mxGeometry x="0.2843" y="-1" relative="1" as="geometry">
            <mxPoint x="-1" y="1" as="offset" />
          </mxGeometry>
        </mxCell>
        <mxCell id="NZK6xFN09U6bkFKJZl6c-71" style="edgeStyle=orthogonalEdgeStyle;rounded=0;orthogonalLoop=1;jettySize=auto;html=1;entryX=0.197;entryY=0.602;entryDx=0;entryDy=0;entryPerimeter=0;strokeColor=#007FFF;" parent="1" source="NZK6xFN09U6bkFKJZl6c-23" target="NZK6xFN09U6bkFKJZl6c-10" edge="1">
          <mxGeometry relative="1" as="geometry" />
        </mxCell>
        <mxCell id="NZK6xFN09U6bkFKJZl6c-75" value="5" style="ellipse;whiteSpace=wrap;html=1;aspect=fixed;fillColor=#FFFF33;strokeColor=#003366;" parent="1" vertex="1">
          <mxGeometry x="700" y="145" width="30" height="30" as="geometry" />
        </mxCell>
        <mxCell id="NZK6xFN09U6bkFKJZl6c-78" value="1" style="ellipse;whiteSpace=wrap;html=1;aspect=fixed;fillColor=#FFFF33;strokeColor=#003366;" parent="1" vertex="1">
          <mxGeometry x="310.61" y="425" width="30" height="30" as="geometry" />
        </mxCell>
        <mxCell id="NZK6xFN09U6bkFKJZl6c-79" value="2" style="ellipse;whiteSpace=wrap;html=1;aspect=fixed;fillColor=#FFFF33;strokeColor=#003366;" parent="1" vertex="1">
          <mxGeometry x="133" y="200" width="30" height="30" as="geometry" />
        </mxCell>
        <mxCell id="NZK6xFN09U6bkFKJZl6c-80" value="3" style="ellipse;whiteSpace=wrap;html=1;aspect=fixed;fillColor=#FFFF33;strokeColor=#003366;" parent="1" vertex="1">
          <mxGeometry x="245.61" y="51.13" width="30" height="30" as="geometry" />
        </mxCell>
        <mxCell id="NZK6xFN09U6bkFKJZl6c-81" value="4" style="ellipse;whiteSpace=wrap;html=1;aspect=fixed;fillColor=#FFFF33;strokeColor=#003366;" parent="1" vertex="1">
          <mxGeometry x="454.16" y="425" width="30" height="30" as="geometry" />
        </mxCell>
        <mxCell id="NZK6xFN09U6bkFKJZl6c-82" value="&lt;font style=&quot;color: rgb(0, 51, 102); font-size: 10px;&quot;&gt;Snow SQL,&amp;nbsp;&lt;/font&gt;&lt;div&gt;&lt;font style=&quot;color: rgb(0, 51, 102); font-size: 10px;&quot;&gt;Python,&lt;/font&gt;&lt;/div&gt;&lt;div&gt;&lt;font style=&quot;color: rgb(0, 51, 102); font-size: 10px;&quot;&gt;Streamlit, Notebooks, etc.&amp;nbsp;&amp;nbsp;&lt;/font&gt;&lt;/div&gt;" style="sketch=0;outlineConnect=0;fillColor=#1ba1e2;strokeColor=#006EAF;dashed=0;verticalLabelPosition=bottom;verticalAlign=top;align=center;html=1;fontSize=12;fontStyle=0;aspect=fixed;pointerEvents=1;shape=mxgraph.aws4.source_code;fontColor=#ffffff;" parent="1" vertex="1">
          <mxGeometry x="274.32" y="150" width="23" height="31.47" as="geometry" />
        </mxCell>
        <mxCell id="NZK6xFN09U6bkFKJZl6c-86" value="6" style="ellipse;whiteSpace=wrap;html=1;aspect=fixed;fillColor=#FFFF33;strokeColor=#003366;" parent="1" vertex="1">
          <mxGeometry x="657" y="425" width="30" height="30" as="geometry" />
        </mxCell>
        <mxCell id="FJDn8GvkSPcNdJjm8Mdf-1" value="ADLS Stage" style="image;sketch=0;aspect=fixed;html=1;points=[];align=center;fontSize=12;image=img/lib/mscae/Data_Lake.svg;" vertex="1" parent="1">
          <mxGeometry x="116" y="336" width="38" height="50" as="geometry" />
        </mxCell>
        <mxCell id="FJDn8GvkSPcNdJjm8Mdf-6" style="edgeStyle=orthogonalEdgeStyle;rounded=0;orthogonalLoop=1;jettySize=auto;html=1;entryX=0.519;entryY=0.057;entryDx=0;entryDy=0;entryPerimeter=0;exitX=0.5;exitY=1;exitDx=0;exitDy=0;strokeColor=#007FFF;" edge="1" parent="1" source="NZK6xFN09U6bkFKJZl6c-36" target="NZK6xFN09U6bkFKJZl6c-10">
          <mxGeometry relative="1" as="geometry" />
        </mxCell>
        <mxCell id="FJDn8GvkSPcNdJjm8Mdf-8" value="Move Files to Stage&amp;nbsp;" style="edgeLabel;html=1;align=center;verticalAlign=middle;resizable=0;points=[];" vertex="1" connectable="0" parent="FJDn8GvkSPcNdJjm8Mdf-6">
          <mxGeometry x="-0.4404" relative="1" as="geometry">
            <mxPoint y="-1" as="offset" />
          </mxGeometry>
        </mxCell>
        <mxCell id="FJDn8GvkSPcNdJjm8Mdf-9" value="Role" style="aspect=fixed;sketch=0;html=1;dashed=0;whitespace=wrap;verticalLabelPosition=bottom;verticalAlign=top;fillColor=#2875E2;strokeColor=#ffffff;points=[[0.005,0.63,0],[0.1,0.2,0],[0.9,0.2,0],[0.5,0,0],[0.995,0.63,0],[0.72,0.99,0],[0.5,1,0],[0.28,0.99,0]];shape=mxgraph.kubernetes.icon2;prIcon=role;fontSize=10;" vertex="1" parent="1">
          <mxGeometry x="340.61" y="345.07" width="32.29" height="31" as="geometry" />
        </mxCell>
      </root>
    </mxGraphModel>
  </diagram>
</mxfile>
